<svg xmlns="http://www.w3.org/2000/svg" fill="none" viewBox="0 0 24 24" class="h-6">
  <g clip-path="url(#discord_svg__a)"><path fill="currentColor" d="M20.317 4.656a19.8 19.8 0 0 0-4.885-1.516.074.074 0 0 0-.079.038c-.21.375-.444.864-.608 1.249a18.3 18.3 0 0 0-5.487 0 13 13 0 0 0-.617-1.25.08.08 0 0 0-.079-.037 19.7 19.7 0 0 0-4.885 1.516.1.1 0 0 0-.032.027C.533 9.332-.32 13.866.099 18.343a.08.08 0 0 0 .031.057 19.9 19.9 0 0 0 5.993 3.03.08.08 0 0 0 .084-.029 14 14 0 0 0 1.226-1.994c.021-.04.001-.09-.041-.105a13 13 0 0 1-1.872-.893.077.077 0 0 1-.008-.127q.19-.143.372-.292a.07.07 0 0 1 .078-.01c3.927 1.793 8.18 1.793 12.061 0a.07.07 0 0 1 .079.01q.18.148.372.292c.044.032.04.1-.006.127q-.895.523-1.873.892a.077.077 0 0 0-.041.106c.36.698.772 1.363 1.225 1.994a.08.08 0 0 0 .084.028 19.8 19.8 0 0 0 6.002-3.03.08.08 0 0 0 .032-.055c.5-5.176-.838-9.673-3.549-13.66a.06.06 0 0 0-.031-.028M8.02 15.617c-1.182 0-2.157-1.086-2.157-2.419S6.82 10.78 8.02 10.78c1.21 0 2.176 1.095 2.157 2.42 0 1.332-.956 2.418-2.157 2.418m7.975 0c-1.183 0-2.157-1.086-2.157-2.419s.955-2.419 2.157-2.419c1.21 0 2.176 1.095 2.157 2.42 0 1.332-.946 2.418-2.157 2.418"></path></g><defs><clipPath id="discord_svg__a"><path fill="#fff" d="M0 0h24v24H0z"></path></clipPath></defs>
</svg>