<svg width="480" height="253" viewBox="0 0 480 253" fill="none" xmlns="http://www.w3.org/2000/svg">
<rect x="24.7061" y="22.9412" width="176.471" height="158.824" rx="7.05882" fill="#D9D9D9"/>
<rect x="8.82373" width="45.8824" height="45.8824" rx="22.9412" fill="black"/>
<path d="M31.1323 15.8296L29.71 14.0912L33.9769 6.34741L42.3529 16.4617L41.8787 17.2519L31.1323 15.8296Z" fill="white"/>
<path d="M41.4051 18.3582L28.2881 16.7778L24.1792 24.5216L37.1382 26.26L41.4051 18.3582Z" fill="white"/>
<path d="M23.2307 25.7859L21.1763 29.4207L29.5522 39.535L33.9772 31.6332L29.7102 26.5761L23.2307 25.7859Z" fill="white"/>
<path d="M27.2958 169.789C34.9531 169.789 41.1607 163.581 41.1607 155.924C41.1607 148.266 34.9531 142.059 27.2958 142.059C19.6384 142.059 13.4308 148.266 13.4308 155.924C13.4308 163.581 19.6384 169.789 27.2958 169.789Z" fill="white"/>
<path d="M33.107 187.963C33.2377 187.505 33.3031 187.277 33.4011 187.063C33.4881 186.874 33.5941 186.694 33.7175 186.526C33.8565 186.336 34.0247 186.168 34.3612 185.831L54.2554 165.937C56.3825 163.81 59.8311 163.81 61.9582 165.937C64.0853 168.064 64.0854 171.513 61.9582 173.64L42.064 193.534C41.7275 193.871 41.5592 194.039 41.3699 194.178C41.2018 194.301 41.0217 194.407 40.8322 194.494C40.6188 194.592 40.39 194.658 39.9324 194.788L30.3768 197.519L33.107 187.963Z" fill="white"/>
<path d="M24.2147 180.573H19.593C15.2931 180.573 13.1432 180.573 11.3938 181.103C7.45489 182.298 4.37251 185.38 3.17766 189.319C2.64697 191.069 2.64697 193.219 2.64697 197.519M41.1607 155.924C41.1607 163.581 34.9531 169.789 27.2958 169.789C19.6384 169.789 13.4308 163.581 13.4308 155.924C13.4308 148.266 19.6384 142.059 27.2958 142.059C34.9531 142.059 41.1607 148.266 41.1607 155.924ZM30.3768 197.519L39.9324 194.788C40.39 194.658 40.6188 194.592 40.8322 194.494C41.0217 194.407 41.2018 194.301 41.3699 194.178C41.5592 194.039 41.7275 193.871 42.064 193.534L61.9582 173.64C64.0854 171.513 64.0853 168.064 61.9582 165.937C59.8311 163.81 56.3825 163.81 54.2554 165.937L34.3612 185.831C34.0247 186.168 33.8565 186.336 33.7175 186.526C33.5941 186.694 33.4881 186.874 33.4011 187.063C33.3031 187.277 33.2377 187.505 33.107 187.963L30.3768 197.519Z" stroke="black" stroke-width="5.29412" stroke-linecap="round" stroke-linejoin="round"/>
<rect x="71.9119" y="48.9705" width="85.5882" height="46.7647" rx="5.73529" fill="white"/>
<rect x="71.9119" y="48.9705" width="85.5882" height="46.7647" rx="5.73529" stroke="black" stroke-width="2.64706"/>
<path d="M105.706 63.5293H85.4121M105.706 81.1764H85.4121M92.1768 69.3197H85.4121M92.1768 75.3859H85.4121M98.4905 76.7646H103.902C104.534 76.7646 104.849 76.7646 105.091 76.6444C105.303 76.5386 105.475 76.3699 105.583 76.1624C105.706 75.9264 105.706 75.6176 105.706 74.9999V69.7058C105.706 69.0881 105.706 68.7792 105.583 68.5433C105.475 68.3357 105.303 68.167 105.091 68.0613C104.849 67.9411 104.534 67.9411 103.902 67.9411H98.4905C97.8591 67.9411 97.5434 67.9411 97.3022 68.0613C97.0901 68.167 96.9176 68.3357 96.8095 68.5433C96.6866 68.7792 96.6866 69.0881 96.6866 69.7058V74.9999C96.6866 75.6176 96.6866 75.9264 96.8095 76.1624C96.9176 76.3699 97.0901 76.5386 97.3022 76.6444C97.5434 76.7646 97.8591 76.7646 98.4905 76.7646Z" stroke="black" stroke-width="1.76471" stroke-linecap="round" stroke-linejoin="round"/>
<path d="M113.471 82.8528V64.7187H123.921V66.6704H115.768V72.3528H122.636V74.3045H115.768V80.901H124.193V82.8528H113.471ZM127.995 82.8528V64.7187H130.367L136.963 76.1575L138.89 79.8881H139.014C138.89 78.0598 138.717 76.034 138.717 74.1563V64.7187H140.891V82.8528H138.544L131.948 71.414L129.996 67.6834H129.897C129.996 69.5116 130.169 71.4387 130.169 73.341V82.8528H127.995Z" fill="black"/>
<rect x="71.9119" y="109.853" width="85.5882" height="46.7647" rx="5.73529" fill="white"/>
<rect x="71.9119" y="109.853" width="85.5882" height="46.7647" rx="5.73529" stroke="black" stroke-width="2.64706"/>
<path d="M119.326 144.057C117.028 144.057 115.398 143.068 114.335 141.191L115.966 140.029C116.781 141.462 117.794 142.055 119.104 142.055C121.055 142.055 122.019 140.944 122.019 138.201V125.601H124.292V138.424C124.292 141.537 122.859 144.057 119.326 144.057ZM132.325 133.606L131.435 136.373H136.92L136.055 133.606C135.388 131.555 134.82 129.579 134.227 127.479H134.128C133.56 129.604 132.967 131.555 132.325 133.606ZM126.79 143.735L132.942 125.601H135.487L141.639 143.735H139.218L137.488 138.201H130.867L129.113 143.735H126.79Z" fill="black"/>
<path d="M107.647 128.615H90.1416M107.647 143.836H90.1416M95.9766 133.609H90.1416M95.9766 138.842H90.1416M101.423 140.031H106.091C106.635 140.031 106.908 140.031 107.116 139.927C107.299 139.836 107.447 139.69 107.541 139.511C107.647 139.308 107.647 139.041 107.647 138.509V133.942C107.647 133.409 107.647 133.143 107.541 132.939C107.447 132.76 107.299 132.615 107.116 132.524C106.908 132.42 106.635 132.42 106.091 132.42H101.423C100.878 132.42 100.606 132.42 100.398 132.524C100.215 132.615 100.066 132.76 99.9726 132.939C99.8666 133.143 99.8666 133.409 99.8666 133.942V138.509C99.8666 139.041 99.8666 139.308 99.9726 139.511C100.066 139.69 100.215 139.836 100.398 139.927C100.606 140.031 100.878 140.031 101.423 140.031Z" stroke="black" stroke-width="1.52217" stroke-linecap="round" stroke-linejoin="round"/>
<path d="M88.9626 122.488L90.2165 125.748C90.4204 126.278 90.5223 126.543 90.6809 126.766C90.8214 126.964 90.994 127.136 91.1916 127.277C91.4146 127.435 91.6797 127.537 92.2098 127.741L95.4699 128.995L92.2098 130.249C91.6797 130.453 91.4146 130.555 91.1916 130.713C90.994 130.854 90.8214 131.027 90.6809 131.224C90.5223 131.447 90.4204 131.712 90.2165 132.242L88.9626 135.502L87.7087 132.242C87.5048 131.712 87.4029 131.447 87.2443 131.224C87.1038 131.027 86.9312 130.854 86.7336 130.713C86.5106 130.555 86.2455 130.453 85.7154 130.249L82.4553 128.995L85.7154 127.741C86.2455 127.537 86.5106 127.435 86.7336 127.277C86.9312 127.136 87.1038 126.964 87.2443 126.766C87.4029 126.543 87.5048 126.278 87.7087 125.748L88.9626 122.488Z" fill="white"/>
<path d="M82.8169 136.225V132.61M82.8169 125.38V121.765M81.0093 123.572H84.6244M81.0093 134.418H84.6244M88.9626 122.488L87.7087 125.748C87.5048 126.278 87.4029 126.543 87.2443 126.766C87.1038 126.964 86.9312 127.136 86.7336 127.277C86.5106 127.435 86.2455 127.537 85.7154 127.741L82.4553 128.995L85.7154 130.249C86.2455 130.453 86.5106 130.555 86.7336 130.713C86.9312 130.854 87.1038 131.027 87.2443 131.224C87.4029 131.447 87.5048 131.712 87.7087 132.242L88.9626 135.502L90.2165 132.242C90.4204 131.712 90.5223 131.447 90.6809 131.224C90.8214 131.027 90.994 130.854 91.1916 130.713C91.4146 130.555 91.6797 130.453 92.2098 130.249L95.4699 128.995L92.2098 127.741C91.6797 127.537 91.4146 127.435 91.1916 127.277C90.994 127.136 90.8214 126.964 90.6809 126.766C90.5223 126.543 90.4204 126.278 90.2165 125.748L88.9626 122.488Z" stroke="black" stroke-width="1.52217" stroke-linecap="round" stroke-linejoin="round"/>
<rect x="312.794" y="24.2647" width="142.941" height="156.176" rx="5.73529" fill="white"/>
<rect x="312.794" y="24.2647" width="142.941" height="156.176" rx="5.73529" stroke="black" stroke-width="2.64706"/>
<rect width="112.059" height="57.3529" transform="translate(328.235 41.9119)" fill="#E0E0E0"/>
<rect x="329.882" y="106.323" width="24.7059" height="24.7059" rx="12.3529" fill="black"/>
<path d="M341.895 114.847L341.129 113.911L343.427 109.741L347.937 115.188L347.681 115.613L341.895 114.847Z" fill="white"/>
<path d="M347.426 116.209L340.363 115.358L338.151 119.528L345.129 120.464L347.426 116.209Z" fill="white"/>
<path d="M337.64 120.208L336.534 122.166L341.044 127.612L343.426 123.357L341.129 120.634L337.64 120.208Z" fill="white"/>
<path d="M363.235 125.177V113.519H369.953V114.774H364.712V118.427H369.128V119.681H364.712V123.922H370.128V125.177H363.235ZM372.445 125.177V116.552H373.636L373.763 117.807H373.811C374.558 116.981 375.463 116.33 376.495 116.33C377.813 116.33 378.528 116.965 378.878 117.982C379.767 117.013 380.672 116.33 381.721 116.33C383.499 116.33 384.341 117.505 384.341 119.713V125.177H382.896V119.904C382.896 118.284 382.388 117.601 381.292 117.601C380.625 117.601 379.926 118.029 379.116 118.919V125.177H377.671V119.904C377.671 118.284 377.162 117.601 376.066 117.601C375.415 117.601 374.685 118.029 373.891 118.919V125.177H372.445ZM390.945 125.383C390.151 125.383 389.245 124.97 388.499 124.287H388.435L388.308 125.177H387.149V112.534H388.594V115.997L388.546 117.553C389.325 116.87 390.294 116.33 391.246 116.33C393.486 116.33 394.693 118.077 394.693 120.714C394.693 123.684 392.93 125.383 390.945 125.383ZM390.706 124.176C392.136 124.176 393.184 122.889 393.184 120.745C393.184 118.839 392.549 117.553 390.913 117.553C390.182 117.553 389.42 117.966 388.594 118.744V123.271C389.356 123.938 390.135 124.176 390.706 124.176ZM400.445 125.383C398.158 125.383 396.316 123.715 396.316 120.872C396.316 118.077 398.206 116.33 400.207 116.33C402.398 116.33 403.637 117.918 403.637 120.38C403.637 120.698 403.606 120.999 403.574 121.206H397.761C397.856 123.048 398.984 124.224 400.62 124.224C401.461 124.224 402.144 123.969 402.78 123.541L403.304 124.494C402.541 124.986 401.62 125.383 400.445 125.383ZM397.745 120.158H402.367C402.367 118.427 401.573 117.489 400.223 117.489C399 117.489 397.92 118.474 397.745 120.158ZM408.699 125.383C406.539 125.383 405.142 123.747 405.142 120.872C405.142 118.077 406.904 116.33 408.874 116.33C409.89 116.33 410.542 116.711 411.304 117.347L411.24 115.854V112.534H412.67V125.177H411.494L411.367 124.16H411.32C410.637 124.827 409.732 125.383 408.699 125.383ZM409.017 124.176C409.811 124.176 410.51 123.779 411.24 122.985V118.458C410.494 117.807 409.843 117.553 409.128 117.553C407.73 117.553 406.634 118.887 406.634 120.857C406.634 122.937 407.492 124.176 409.017 124.176ZM419.289 125.177V113.519H426.007V114.774H420.766V118.427H425.181V119.681H420.766V123.922H426.182V125.177H419.289ZM428.626 125.177V113.519H430.151L434.391 120.872L435.63 123.271H435.709C435.63 122.095 435.519 120.793 435.519 119.586V113.519H436.916V125.177H435.408L431.167 117.823L429.912 115.425H429.849C429.912 116.6 430.023 117.839 430.023 119.062V125.177H428.626Z" fill="black"/>
<rect x="330.882" y="138.088" width="24.7059" height="24.7059" rx="12.3529" fill="black"/>
<path d="M342.895 146.612L342.129 145.676L344.427 141.506L348.937 146.952L348.681 147.378L342.895 146.612Z" fill="white"/>
<path d="M348.426 147.974L341.363 147.123L339.151 151.292L346.129 152.228L348.426 147.974Z" fill="white"/>
<path d="M338.64 151.973L337.534 153.93L342.044 159.377L344.426 155.122L342.129 152.399L338.64 151.973Z" fill="white"/>
<path d="M364.235 156.941V145.284H370.953V146.538H365.712V150.191H370.128V151.446H365.712V155.686H371.128V156.941H364.235ZM373.445 156.941V148.317H374.636L374.763 149.572H374.811C375.558 148.746 376.463 148.095 377.495 148.095C378.813 148.095 379.528 148.73 379.878 149.746C380.767 148.778 381.672 148.095 382.721 148.095C384.499 148.095 385.341 149.27 385.341 151.478V156.941H383.896V151.668C383.896 150.048 383.388 149.365 382.292 149.365C381.625 149.365 380.926 149.794 380.116 150.684V156.941H378.671V151.668C378.671 150.048 378.162 149.365 377.066 149.365C376.415 149.365 375.685 149.794 374.891 150.684V156.941H373.445ZM391.945 157.148C391.151 157.148 390.245 156.735 389.499 156.052H389.435L389.308 156.941H388.149V144.299H389.594V147.761L389.546 149.318C390.325 148.635 391.294 148.095 392.246 148.095C394.486 148.095 395.693 149.842 395.693 152.478C395.693 155.448 393.93 157.148 391.945 157.148ZM391.706 155.941C393.136 155.941 394.184 154.654 394.184 152.51C394.184 150.604 393.549 149.318 391.913 149.318C391.182 149.318 390.42 149.731 389.594 150.509V155.035C390.356 155.702 391.135 155.941 391.706 155.941ZM401.445 157.148C399.158 157.148 397.316 155.48 397.316 152.637C397.316 149.842 399.206 148.095 401.207 148.095C403.398 148.095 404.637 149.683 404.637 152.145C404.637 152.462 404.606 152.764 404.574 152.971H398.761C398.856 154.813 399.984 155.988 401.62 155.988C402.461 155.988 403.144 155.734 403.78 155.305L404.304 156.258C403.541 156.751 402.62 157.148 401.445 157.148ZM398.745 151.922H403.367C403.367 150.191 402.573 149.254 401.223 149.254C400 149.254 398.92 150.239 398.745 151.922ZM409.699 157.148C407.539 157.148 406.142 155.512 406.142 152.637C406.142 149.842 407.904 148.095 409.874 148.095C410.89 148.095 411.542 148.476 412.304 149.111L412.24 147.618V144.299H413.67V156.941H412.494L412.367 155.925H412.32C411.637 156.592 410.732 157.148 409.699 157.148ZM410.017 155.941C410.811 155.941 411.51 155.544 412.24 154.749V150.223C411.494 149.572 410.843 149.318 410.128 149.318C408.73 149.318 407.634 150.652 407.634 152.621C407.634 154.702 408.492 155.941 410.017 155.941ZM422.465 157.148C420.988 157.148 419.939 156.512 419.256 155.305L420.305 154.559C420.829 155.48 421.48 155.861 422.322 155.861C423.576 155.861 424.196 155.146 424.196 153.384V145.284H425.657V153.526C425.657 155.528 424.736 157.148 422.465 157.148ZM430.821 150.429L430.249 152.208H433.775L433.219 150.429C432.79 149.111 432.425 147.841 432.044 146.491H431.98C431.615 147.856 431.234 149.111 430.821 150.429ZM427.263 156.941L431.218 145.284H432.854L436.809 156.941H435.252L434.14 153.384H429.884L428.756 156.941H427.263Z" fill="black"/>
<g clip-path="url(#clip0_197_141)">
<circle cx="311.47" cy="22.9411" r="21.1765" fill="white"/>
<path d="M311.471 0C298.817 0.000716912 288.532 10.2878 288.529 22.9408C288.532 35.5931 298.817 45.8801 311.471 45.8824C324.123 45.8801 334.41 35.5931 334.412 22.9408C334.41 10.2878 324.123 0.000716912 311.471 0ZM326.233 37.7024C322.446 41.4878 317.231 43.8279 311.471 43.8286C305.71 43.8279 300.494 41.4878 296.709 37.7024C292.923 33.917 290.584 28.7001 290.583 22.9408C290.584 17.1808 292.923 11.9653 296.709 8.17862C300.494 4.39467 305.71 2.05458 311.471 2.05377C317.231 2.05449 322.446 4.39467 326.233 8.17853C330.017 11.9653 332.357 17.18 332.358 22.9407C332.357 28.7001 330.017 33.917 326.233 37.7024Z" fill="black"/>
<path d="M294.984 15.5803H294.855C293.857 17.8312 293.298 20.3196 293.298 22.9409C293.298 30.0937 297.43 36.2774 303.437 39.2433L294.985 15.5803H294.984Z" fill="black"/>
<path d="M321.791 16.3449C320.224 14.1537 320.457 9.67425 323.338 9.18353C320.153 6.43489 316.007 4.76807 311.471 4.76807C305.028 4.76807 299.373 8.1225 296.146 13.179H302.798V15.5802H300.116L306.324 32.9552L310.678 21.3157L308.628 15.5801H305.527V13.1789H316.659V15.5801H313.759L320.019 33.1062L323.192 24.6312C323.754 22.3467 323.425 18.6368 321.791 16.3449Z" fill="black"/>
<path d="M328.364 16.2449C328.357 16.3139 328.35 16.3837 328.34 16.4513C327.9 19.4014 325.168 25.8722 325.168 25.8722L321.212 36.4463L320.33 38.8073C325.886 35.6989 329.644 29.7611 329.644 22.9407C329.644 20.5748 329.187 18.3174 328.364 16.2449Z" fill="black"/>
<path d="M307.515 36.2902L306.022 40.2814C307.743 40.8223 309.572 41.1136 311.471 41.1136C313.547 41.1136 315.539 40.7619 317.397 40.1202L311.87 24.6479L307.515 36.2902Z" fill="black"/>
</g>
<g clip-path="url(#clip1_197_141)">
<path d="M165.451 210.906L164.275 212.297C163.707 211.768 163.139 211.729 162.884 211.729C162.316 211.729 161.963 212.003 161.963 212.415C161.963 212.63 162.061 212.963 162.727 213.179L163.295 213.355C163.962 213.571 164.961 213.904 165.451 214.57C165.706 214.923 165.882 215.433 165.882 215.981C165.882 216.746 165.627 217.51 164.942 218.137C164.256 218.764 163.433 219.039 162.394 219.039C160.63 219.039 159.631 218.196 159.102 217.628L160.356 216.177C160.826 216.726 161.532 217.157 162.237 217.157C162.903 217.157 163.413 216.824 163.413 216.236C163.413 215.707 162.982 215.491 162.668 215.374L162.12 215.178C161.512 214.962 160.807 214.688 160.297 214.159C159.905 213.747 159.65 213.218 159.65 212.532C159.65 211.709 160.042 211.023 160.532 210.612C161.198 210.083 162.061 210.004 162.747 210.004C163.374 210.004 164.373 210.083 165.451 210.906Z" fill="black"/>
<path d="M148.2 218.764V210.279H150.591V211.376C151.042 210.749 151.845 210.004 153.217 210.004C153.962 210.004 155.059 210.22 155.726 211.043C156.313 211.768 156.392 212.611 156.392 213.434V218.764H154.001V214.139C154.001 213.669 153.981 212.924 153.55 212.473C153.178 212.081 152.668 212.042 152.433 212.042C151.806 212.042 151.316 212.258 150.963 212.787C150.611 213.336 150.591 213.943 150.591 214.433V218.764H148.2Z" fill="black"/>
<path d="M140.511 210.004C142.118 210.004 143.215 210.533 143.941 211.2C144.783 211.964 145.371 213.14 145.371 214.531C145.371 215.923 144.783 217.079 143.941 217.843C143.215 218.509 142.118 219.039 140.511 219.039C138.904 219.039 137.807 218.509 137.081 217.843C136.239 217.079 135.651 215.903 135.651 214.531C135.651 213.159 136.239 211.964 137.081 211.2C137.807 210.533 138.904 210.004 140.511 210.004ZM140.511 216.922C141.902 216.922 142.902 215.825 142.902 214.531C142.902 213.238 141.883 212.121 140.511 212.121C139.139 212.121 138.12 213.199 138.12 214.531C138.12 215.864 139.12 216.922 140.511 216.922Z" fill="black"/>
<path d="M130.433 210.279H132.824V218.764H130.433V210.279ZM130.198 206.692C130.198 205.908 130.844 205.262 131.628 205.262C132.412 205.262 133.059 205.908 133.059 206.692C133.059 207.476 132.412 208.123 131.628 208.123C130.844 208.123 130.198 207.476 130.198 206.692Z" fill="black"/>
<path d="M128.209 212.317H126.563V218.764H124.172V212.317H123.231V210.279H124.172V207.378H126.563V210.279H128.209V212.317Z" fill="black"/>
<path d="M121.198 210.514V212.865C120.688 212.395 120.061 212.121 119.238 212.121C117.651 212.121 116.847 213.277 116.847 214.512C116.847 215.903 117.886 216.922 119.316 216.922C119.846 216.922 120.551 216.765 121.198 216.177V218.509C120.727 218.745 119.983 219.039 119.003 219.039C117.67 219.039 116.494 218.529 115.73 217.804C115.083 217.196 114.378 216.138 114.378 214.551C114.378 213.061 114.985 211.866 115.848 211.102C116.886 210.181 118.082 210.004 118.905 210.004C119.787 210.004 120.512 210.181 121.198 210.514Z" fill="black"/>
<path d="M109.724 216.04L111.919 216.393C111.664 217.02 110.704 219.039 107.744 219.039C106.373 219.039 105.334 218.647 104.491 217.843C103.551 216.961 103.159 215.864 103.159 214.531C103.159 212.846 103.845 211.807 104.452 211.2C105.452 210.22 106.627 210.004 107.646 210.004C109.371 210.004 110.371 210.69 110.958 211.396C111.86 212.473 111.977 213.806 111.977 214.727V214.923H105.628C105.628 215.433 105.765 215.981 106.04 216.354C106.294 216.706 106.823 217.157 107.744 217.157C108.666 217.157 109.332 216.726 109.724 216.04ZM105.706 213.394H109.724C109.528 212.238 108.587 211.69 107.705 211.69C106.823 211.69 105.902 212.258 105.706 213.394Z" fill="black"/>
<path d="M97.9409 204.478H100.332V218.764H97.9409V204.478Z" fill="black"/>
<path d="M92.2915 204.478H94.6824V218.764H92.2915V204.478Z" fill="black"/>
<path d="M84.6023 210.004C86.2093 210.004 87.3068 210.533 88.0319 211.2C88.8745 211.964 89.4625 213.14 89.4625 214.531C89.4625 215.923 88.8745 217.079 88.0319 217.843C87.3068 218.509 86.2093 219.039 84.6023 219.039C82.9953 219.039 81.8979 218.509 81.1728 217.843C80.3301 217.079 79.7422 215.903 79.7422 214.531C79.7422 213.159 80.3301 211.964 81.1728 211.2C81.8979 210.533 82.9953 210.004 84.6023 210.004ZM84.6023 216.922C85.9937 216.922 86.9932 215.825 86.9932 214.531C86.9932 213.238 85.9741 212.121 84.6023 212.121C83.2305 212.121 82.2115 213.199 82.2115 214.531C82.2115 215.864 83.2109 216.922 84.6023 216.922Z" fill="black"/>
<path d="M77.204 215.315V218.294C76.4201 218.706 75.3815 219.058 73.9705 219.058C71.6776 219.058 70.2862 218.274 69.1887 217.236C67.6797 215.786 67.0918 214.159 67.0918 212.238C67.0918 209.867 68.0717 208.162 69.1887 207.123C70.5017 205.889 72.1283 205.399 73.9901 205.399C74.9111 205.399 76.0086 205.556 77.204 206.202V209.181C76.0086 207.809 74.5192 207.711 74.0489 207.711C71.4228 207.711 69.7178 209.867 69.7178 212.278C69.7178 215.178 71.9519 216.746 74.1468 216.746C75.3619 216.746 76.4397 216.217 77.204 215.315Z" fill="black"/>
<path d="M50.0696 206.761L48.9673 205.414L52.2743 199.412L58.766 207.251L58.3985 207.863L50.0696 206.761Z" fill="black"/>
<path d="M58.0309 208.721L47.8647 207.496L44.6802 213.498L54.7238 214.845L58.0309 208.721Z" fill="black"/>
<path d="M43.9453 214.477L42.353 217.294L48.8446 225.133L52.2742 219.009L48.9671 215.09L43.9453 214.477Z" fill="black"/>
</g>
<path d="M49.006 247.657C45.7942 247.657 43.3766 245.169 43.3766 240.969C43.3766 236.786 45.8295 234.245 49.1119 234.245C50.6824 234.245 51.9177 235.022 52.6589 235.851L51.7766 236.91C51.106 236.186 50.2413 235.675 49.1295 235.675C46.6766 235.675 45.053 237.686 45.053 240.916C45.053 244.18 46.606 246.227 49.0766 246.227C50.3119 246.227 51.2471 245.68 52.0766 244.78L52.9766 245.804C51.953 246.986 50.6824 247.657 49.006 247.657ZM55.23 247.427V237.845H56.5535L56.6947 239.592H56.7477C57.4182 238.375 58.3888 237.598 59.4653 237.598C59.8888 237.598 60.1888 237.651 60.4888 237.81L60.1888 239.222C59.8712 239.098 59.6418 239.063 59.2535 239.063C58.4594 239.063 57.4712 239.627 56.8359 241.269V247.427H55.23ZM65.7468 247.657C63.2056 247.657 61.1586 245.804 61.1586 242.645C61.1586 239.539 63.2586 237.598 65.4821 237.598C67.9174 237.598 69.2939 239.363 69.2939 242.098C69.2939 242.451 69.2586 242.786 69.2233 243.016H62.7645C62.8704 245.063 64.1233 246.369 65.9409 246.369C66.8762 246.369 67.6351 246.086 68.3409 245.61L68.9233 246.669C68.0762 247.216 67.0527 247.657 65.7468 247.657ZM62.7468 241.851H67.8821C67.8821 239.927 66.9998 238.886 65.4998 238.886C64.1409 238.886 62.9409 239.98 62.7468 241.851ZM73.5836 247.657C71.9778 247.657 70.7778 246.669 70.7778 244.939C70.7778 242.857 72.5954 241.816 76.6719 241.357C76.6719 240.122 76.266 238.939 74.6954 238.939C73.5836 238.939 72.5778 239.451 71.8189 239.963L71.1836 238.851C72.066 238.286 73.4248 237.598 74.9601 237.598C77.2895 237.598 78.2778 239.169 78.2778 241.533V247.427H76.9542L76.813 246.28H76.7601C75.8425 247.039 74.766 247.657 73.5836 247.657ZM74.0425 246.369C74.9778 246.369 75.7366 245.927 76.6719 245.098V242.416C73.4425 242.804 72.3483 243.598 72.3483 244.833C72.3483 245.927 73.0895 246.369 74.0425 246.369ZM84.0978 247.657C82.0508 247.657 81.3625 246.369 81.3625 244.463V239.151H79.9331V237.933L81.4331 237.845L81.6272 235.145H82.9684V237.845H85.5625V239.151H82.9684V244.498C82.9684 245.68 83.339 246.351 84.4508 246.351C84.7861 246.351 85.2272 246.227 85.5449 246.104L85.8625 247.304C85.3155 247.48 84.6802 247.657 84.0978 247.657ZM91.3385 247.657C88.7973 247.657 86.7503 245.804 86.7503 242.645C86.7503 239.539 88.8503 237.598 91.0738 237.598C93.5091 237.598 94.8856 239.363 94.8856 242.098C94.8856 242.451 94.8503 242.786 94.815 243.016H88.3562C88.462 245.063 89.715 246.369 91.5326 246.369C92.4679 246.369 93.2267 246.086 93.9326 245.61L94.515 246.669C93.6679 247.216 92.6444 247.657 91.3385 247.657ZM88.3385 241.851H93.4738C93.4738 239.927 92.5914 238.886 91.0914 238.886C89.7326 238.886 88.5326 239.98 88.3385 241.851ZM101.192 247.427V237.845H102.515L102.656 239.239H102.709C103.539 238.322 104.545 237.598 105.692 237.598C107.156 237.598 107.95 238.304 108.339 239.433C109.327 238.357 110.333 237.598 111.498 237.598C113.474 237.598 114.409 238.904 114.409 241.357V247.427H112.803V241.569C112.803 239.769 112.239 239.01 111.021 239.01C110.28 239.01 109.503 239.486 108.603 240.475V247.427H106.998V241.569C106.998 239.769 106.433 239.01 105.215 239.01C104.492 239.01 103.68 239.486 102.798 240.475V247.427H101.192ZM120.317 247.657C118.305 247.657 117.405 246.351 117.405 243.916V237.845H119.011V243.722C119.011 245.504 119.541 246.263 120.811 246.263C121.8 246.263 122.488 245.786 123.405 244.639V237.845H125.011V247.427H123.67L123.547 245.927H123.494C122.594 246.969 121.641 247.657 120.317 247.657ZM129.942 247.657C128.742 247.657 128.248 246.88 128.248 245.522V233.38H129.854V245.627C129.854 246.122 130.066 246.316 130.313 246.316C130.401 246.316 130.472 246.316 130.648 246.28L130.878 247.516C130.648 247.604 130.383 247.657 129.942 247.657ZM136.298 247.657C134.251 247.657 133.563 246.369 133.563 244.463V239.151H132.133V237.933L133.633 237.845L133.827 235.145H135.169V237.845H137.763V239.151H135.169V244.498C135.169 245.68 135.539 246.351 136.651 246.351C136.986 246.351 137.427 246.227 137.745 246.104L138.063 247.304C137.516 247.48 136.88 247.657 136.298 247.657ZM139.932 247.427V237.845H141.538V247.427H139.932ZM140.744 235.869C140.109 235.869 139.668 235.445 139.668 234.792C139.668 234.175 140.109 233.751 140.744 233.751C141.379 233.751 141.821 234.175 141.821 234.792C141.821 235.445 141.379 235.869 140.744 235.869ZM146.486 247.657C145.286 247.657 144.792 246.88 144.792 245.522V233.38H146.398V245.627C146.398 246.122 146.61 246.316 146.857 246.316C146.945 246.316 147.016 246.316 147.192 246.28L147.422 247.516C147.192 247.604 146.928 247.657 146.486 247.657ZM149.824 247.427V237.845H151.43V247.427H149.824ZM150.636 235.869C150.001 235.869 149.56 235.445 149.56 234.792C149.56 234.175 150.001 233.751 150.636 233.751C151.272 233.751 151.713 234.175 151.713 234.792C151.713 235.445 151.272 235.869 150.636 235.869ZM154.684 247.427V237.845H156.008L156.149 239.222H156.202C157.12 238.322 158.108 237.598 159.414 237.598C161.425 237.598 162.343 238.904 162.343 241.357V247.427H160.737V241.569C160.737 239.769 160.19 239.01 158.92 239.01C157.931 239.01 157.261 239.504 156.29 240.475V247.427H154.684ZM168.702 251.839C166.355 251.839 164.749 250.922 164.749 249.263C164.749 248.451 165.261 247.675 166.161 247.092V247.022C165.649 246.722 165.278 246.21 165.278 245.451C165.278 244.657 165.861 244.022 166.355 243.669V243.598C165.719 243.086 165.102 242.169 165.102 241.022C165.102 238.922 166.761 237.598 168.702 237.598C169.231 237.598 169.708 237.722 170.043 237.845H173.378V239.08H171.419C171.878 239.522 172.196 240.227 172.196 241.057C172.196 243.104 170.643 244.392 168.702 244.392C168.225 244.392 167.696 244.269 167.272 244.057C166.919 244.357 166.655 244.675 166.655 245.204C166.655 245.822 167.043 246.245 168.331 246.245H170.202C172.425 246.245 173.555 246.951 173.555 248.522C173.555 250.304 171.667 251.839 168.702 251.839ZM168.702 243.298C169.796 243.298 170.749 242.416 170.749 241.022C170.749 239.627 169.831 238.78 168.702 238.78C167.572 238.78 166.655 239.61 166.655 241.022C166.655 242.416 167.59 243.298 168.702 243.298ZM168.931 250.745C170.767 250.745 171.984 249.775 171.984 248.769C171.984 247.886 171.296 247.586 170.025 247.586H168.367C168.014 247.586 167.555 247.533 167.131 247.427C166.443 247.922 166.161 248.486 166.161 249.051C166.161 250.075 167.202 250.745 168.931 250.745ZM178.204 247.657C176.193 247.657 175.293 246.351 175.293 243.916V237.845H176.898V243.722C176.898 245.504 177.428 246.263 178.698 246.263C179.687 246.263 180.375 245.786 181.293 244.639V237.845H182.898V247.427H181.557L181.434 245.927H181.381C180.481 246.969 179.528 247.657 178.204 247.657ZM188.341 247.657C186.735 247.657 185.535 246.669 185.535 244.939C185.535 242.857 187.353 241.816 191.429 241.357C191.429 240.122 191.024 238.939 189.453 238.939C188.341 238.939 187.335 239.451 186.577 239.963L185.941 238.851C186.824 238.286 188.182 237.598 189.718 237.598C192.047 237.598 193.035 239.169 193.035 241.533V247.427H191.712L191.571 246.28H191.518C190.6 247.039 189.524 247.657 188.341 247.657ZM188.8 246.369C189.735 246.369 190.494 245.927 191.429 245.098V242.416C188.2 242.804 187.106 243.598 187.106 244.833C187.106 245.927 187.847 246.369 188.8 246.369ZM197.79 247.657C196.59 247.657 196.096 246.88 196.096 245.522V233.38H197.702V245.627C197.702 246.122 197.914 246.316 198.161 246.316C198.249 246.316 198.32 246.316 198.496 246.28L198.726 247.516C198.496 247.604 198.232 247.657 197.79 247.657ZM205.075 251.469V237.845H206.398L206.54 238.939H206.593C207.457 238.233 208.534 237.598 209.645 237.598C212.116 237.598 213.457 239.539 213.457 242.486C213.457 245.769 211.498 247.657 209.293 247.657C208.428 247.657 207.51 247.251 206.645 246.545L206.681 248.222V251.469H205.075ZM209.028 246.316C210.616 246.316 211.781 244.886 211.781 242.504C211.781 240.386 211.075 238.957 209.257 238.957C208.445 238.957 207.616 239.416 206.681 240.28V245.31C207.545 246.051 208.393 246.316 209.028 246.316ZM219.742 247.657C217.395 247.657 215.295 245.822 215.295 242.645C215.295 239.451 217.395 237.598 219.742 237.598C222.089 237.598 224.189 239.451 224.189 242.645C224.189 245.822 222.089 247.657 219.742 247.657ZM219.742 246.316C221.401 246.316 222.53 244.851 222.53 242.645C222.53 240.439 221.401 238.939 219.742 238.939C218.083 238.939 216.971 240.439 216.971 242.645C216.971 244.851 218.083 246.316 219.742 246.316ZM229.226 247.657C227.867 247.657 226.561 247.092 225.644 246.333L226.438 245.275C227.267 245.945 228.132 246.404 229.279 246.404C230.55 246.404 231.167 245.733 231.167 244.904C231.167 243.916 230.038 243.492 228.979 243.086C227.638 242.592 226.173 241.939 226.173 240.316C226.173 238.798 227.408 237.598 229.491 237.598C230.673 237.598 231.714 238.092 232.455 238.675L231.679 239.716C231.026 239.222 230.355 238.869 229.508 238.869C228.291 238.869 227.726 239.504 227.726 240.245C227.726 241.163 228.714 241.498 229.791 241.904C231.185 242.433 232.72 242.998 232.72 244.816C232.72 246.369 231.485 247.657 229.226 247.657ZM237.596 247.657C235.549 247.657 234.861 246.369 234.861 244.463V239.151H233.432V237.933L234.932 237.845L235.126 235.145H236.467V237.845H239.061V239.151H236.467V244.498C236.467 245.68 236.837 246.351 237.949 246.351C238.284 246.351 238.726 246.227 239.043 246.104L239.361 247.304C238.814 247.48 238.179 247.657 237.596 247.657ZM243.547 247.657C242.188 247.657 240.882 247.092 239.965 246.333L240.759 245.275C241.588 245.945 242.453 246.404 243.6 246.404C244.871 246.404 245.488 245.733 245.488 244.904C245.488 243.916 244.359 243.492 243.3 243.086C241.959 242.592 240.494 241.939 240.494 240.316C240.494 238.798 241.729 237.598 243.812 237.598C244.994 237.598 246.035 238.092 246.776 238.675L246 239.716C245.347 239.222 244.676 238.869 243.829 238.869C242.612 238.869 242.047 239.504 242.047 240.245C242.047 241.163 243.035 241.498 244.112 241.904C245.506 242.433 247.041 242.998 247.041 244.816C247.041 246.369 245.806 247.657 243.547 247.657Z" fill="black"/>
<path d="M305.294 219.647V206.694H312.759V208.088H306.935V212.147H311.841V213.541H306.935V218.253H312.953V219.647H305.294ZM315.527 219.647V210.065H316.851L316.992 211.459H317.045C317.874 210.541 318.88 209.818 320.027 209.818C321.492 209.818 322.286 210.523 322.674 211.653C323.663 210.576 324.669 209.818 325.833 209.818C327.81 209.818 328.745 211.123 328.745 213.576V219.647H327.139V213.788C327.139 211.988 326.574 211.229 325.357 211.229C324.616 211.229 323.839 211.706 322.939 212.694V219.647H321.333V213.788C321.333 211.988 320.769 211.229 319.551 211.229C318.827 211.229 318.016 211.706 317.133 212.694V219.647H315.527ZM336.082 219.876C335.2 219.876 334.194 219.418 333.365 218.659H333.294L333.153 219.647H331.865V205.6H333.471V209.447L333.418 211.176C334.282 210.418 335.359 209.818 336.418 209.818C338.906 209.818 340.247 211.759 340.247 214.688C340.247 217.988 338.288 219.876 336.082 219.876ZM335.818 218.535C337.406 218.535 338.571 217.106 338.571 214.723C338.571 212.606 337.865 211.176 336.047 211.176C335.235 211.176 334.388 211.635 333.471 212.5V217.529C334.318 218.271 335.182 218.535 335.818 218.535ZM346.638 219.876C344.097 219.876 342.05 218.023 342.05 214.865C342.05 211.759 344.15 209.818 346.373 209.818C348.809 209.818 350.185 211.582 350.185 214.318C350.185 214.671 350.15 215.006 350.115 215.235H343.656C343.762 217.282 345.015 218.588 346.832 218.588C347.768 218.588 348.526 218.306 349.232 217.829L349.815 218.888C348.968 219.435 347.944 219.876 346.638 219.876ZM343.638 214.071H348.773C348.773 212.147 347.891 211.106 346.391 211.106C345.032 211.106 343.832 212.2 343.638 214.071ZM355.81 219.876C353.41 219.876 351.857 218.059 351.857 214.865C351.857 211.759 353.815 209.818 356.004 209.818C357.133 209.818 357.857 210.241 358.704 210.947L358.633 209.288V205.6H360.221V219.647H358.915L358.774 218.518H358.721C357.962 219.259 356.957 219.876 355.81 219.876ZM356.162 218.535C357.045 218.535 357.821 218.094 358.633 217.212V212.182C357.804 211.459 357.08 211.176 356.286 211.176C354.733 211.176 353.515 212.659 353.515 214.847C353.515 217.159 354.468 218.535 356.162 218.535ZM367.435 223.688V210.065H368.758L368.899 211.159H368.952C369.817 210.453 370.893 209.818 372.005 209.818C374.476 209.818 375.817 211.759 375.817 214.706C375.817 217.988 373.858 219.876 371.652 219.876C370.787 219.876 369.87 219.471 369.005 218.765L369.04 220.441V223.688H367.435ZM371.387 218.535C372.976 218.535 374.14 217.106 374.14 214.723C374.14 212.606 373.435 211.176 371.617 211.176C370.805 211.176 369.976 211.635 369.04 212.5V217.529C369.905 218.271 370.752 218.535 371.387 218.535ZM382.101 219.876C379.754 219.876 377.654 218.041 377.654 214.865C377.654 211.671 379.754 209.818 382.101 209.818C384.448 209.818 386.548 211.671 386.548 214.865C386.548 218.041 384.448 219.876 382.101 219.876ZM382.101 218.535C383.76 218.535 384.89 217.071 384.89 214.865C384.89 212.659 383.76 211.159 382.101 211.159C380.442 211.159 379.331 212.659 379.331 214.865C379.331 217.071 380.442 218.535 382.101 218.535ZM391.586 219.876C390.227 219.876 388.921 219.312 388.003 218.553L388.797 217.494C389.627 218.165 390.492 218.623 391.639 218.623C392.909 218.623 393.527 217.953 393.527 217.123C393.527 216.135 392.397 215.712 391.339 215.306C389.997 214.812 388.533 214.159 388.533 212.535C388.533 211.018 389.768 209.818 391.85 209.818C393.033 209.818 394.074 210.312 394.815 210.894L394.039 211.935C393.386 211.441 392.715 211.088 391.868 211.088C390.65 211.088 390.086 211.723 390.086 212.465C390.086 213.382 391.074 213.718 392.15 214.123C393.544 214.653 395.08 215.218 395.08 217.035C395.08 218.588 393.844 219.876 391.586 219.876ZM399.956 219.876C397.909 219.876 397.221 218.588 397.221 216.682V211.371H395.791V210.153L397.291 210.065L397.485 207.365H398.826V210.065H401.421V211.371H398.826V216.718C398.826 217.9 399.197 218.571 400.309 218.571C400.644 218.571 401.085 218.447 401.403 218.323L401.721 219.523C401.174 219.7 400.538 219.876 399.956 219.876ZM405.907 219.876C404.548 219.876 403.242 219.312 402.324 218.553L403.118 217.494C403.948 218.165 404.813 218.623 405.96 218.623C407.23 218.623 407.848 217.953 407.848 217.123C407.848 216.135 406.718 215.712 405.66 215.306C404.318 214.812 402.854 214.159 402.854 212.535C402.854 211.018 404.089 209.818 406.171 209.818C407.354 209.818 408.395 210.312 409.136 210.894L408.36 211.935C407.707 211.441 407.036 211.088 406.189 211.088C404.971 211.088 404.407 211.723 404.407 212.465C404.407 213.382 405.395 213.718 406.471 214.123C407.865 214.653 409.401 215.218 409.401 217.035C409.401 218.588 408.165 219.876 405.907 219.876ZM419.326 219.876C416.979 219.876 414.879 218.041 414.879 214.865C414.879 211.671 416.979 209.818 419.326 209.818C421.673 209.818 423.773 211.671 423.773 214.865C423.773 218.041 421.673 219.876 419.326 219.876ZM419.326 218.535C420.984 218.535 422.114 217.071 422.114 214.865C422.114 212.659 420.984 211.159 419.326 211.159C417.667 211.159 416.555 212.659 416.555 214.865C416.555 217.071 417.667 218.535 419.326 218.535ZM426.304 219.647V210.065H427.628L427.769 211.441H427.822C428.739 210.541 429.728 209.818 431.033 209.818C433.045 209.818 433.963 211.123 433.963 213.576V219.647H432.357V213.788C432.357 211.988 431.81 211.229 430.539 211.229C429.551 211.229 428.88 211.723 427.91 212.694V219.647H426.304ZM441.197 223.776C440.739 223.776 440.368 223.706 440.068 223.582L440.386 222.294C440.58 222.365 440.862 222.453 441.109 222.453C442.203 222.453 442.892 221.571 443.28 220.388L443.492 219.665L439.645 210.065H441.321L443.28 215.394C443.562 216.223 443.897 217.212 444.197 218.076H444.286C444.55 217.212 444.833 216.241 445.097 215.394L446.809 210.065H448.38L444.762 220.441C444.109 222.329 443.103 223.776 441.197 223.776ZM453.896 219.876C451.549 219.876 449.449 218.041 449.449 214.865C449.449 211.671 451.549 209.818 453.896 209.818C456.243 209.818 458.343 211.671 458.343 214.865C458.343 218.041 456.243 219.876 453.896 219.876ZM453.896 218.535C455.555 218.535 456.684 217.071 456.684 214.865C456.684 212.659 455.555 211.159 453.896 211.159C452.237 211.159 451.125 212.659 451.125 214.865C451.125 217.071 452.237 218.535 453.896 218.535ZM463.663 219.876C461.651 219.876 460.751 218.571 460.751 216.135V210.065H462.357V215.941C462.357 217.723 462.886 218.482 464.157 218.482C465.145 218.482 465.833 218.006 466.751 216.859V210.065H468.357V219.647H467.016L466.892 218.147H466.839C465.939 219.188 464.986 219.876 463.663 219.876ZM471.594 219.647V210.065H472.917L473.058 211.812H473.111C473.782 210.594 474.752 209.818 475.829 209.818C476.252 209.818 476.552 209.871 476.852 210.029L476.552 211.441C476.235 211.318 476.005 211.282 475.617 211.282C474.823 211.282 473.835 211.847 473.199 213.488V219.647H471.594ZM307.659 247.876C306.3 247.876 304.994 247.312 304.076 246.553L304.87 245.494C305.7 246.165 306.565 246.623 307.712 246.623C308.982 246.623 309.6 245.953 309.6 245.123C309.6 244.135 308.47 243.712 307.412 243.306C306.07 242.812 304.606 242.159 304.606 240.535C304.606 239.018 305.841 237.818 307.923 237.818C309.106 237.818 310.147 238.312 310.888 238.894L310.112 239.935C309.459 239.441 308.788 239.088 307.941 239.088C306.723 239.088 306.159 239.723 306.159 240.465C306.159 241.382 307.147 241.718 308.223 242.123C309.618 242.653 311.153 243.218 311.153 245.035C311.153 246.588 309.918 247.876 307.659 247.876ZM313.408 247.647V238.065H315.014V247.647H313.408ZM314.219 236.088C313.584 236.088 313.143 235.665 313.143 235.012C313.143 234.394 313.584 233.971 314.219 233.971C314.855 233.971 315.296 234.394 315.296 235.012C315.296 235.665 314.855 236.088 314.219 236.088ZM321.285 247.876C319.238 247.876 318.55 246.588 318.55 244.682V239.371H317.12V238.153L318.62 238.065L318.815 235.365H320.156V238.065H322.75V239.371H320.156V244.718C320.156 245.9 320.526 246.571 321.638 246.571C321.973 246.571 322.415 246.447 322.732 246.323L323.05 247.523C322.503 247.7 321.867 247.876 321.285 247.876ZM328.526 247.876C325.985 247.876 323.938 246.023 323.938 242.865C323.938 239.759 326.038 237.818 328.261 237.818C330.696 237.818 332.073 239.582 332.073 242.318C332.073 242.671 332.038 243.006 332.002 243.235H325.543C325.649 245.282 326.902 246.588 328.72 246.588C329.655 246.588 330.414 246.306 331.12 245.829L331.702 246.888C330.855 247.435 329.832 247.876 328.526 247.876ZM325.526 242.071H330.661C330.661 240.147 329.779 239.106 328.279 239.106C326.92 239.106 325.72 240.2 325.526 242.071ZM342.102 247.876C339.755 247.876 337.655 246.041 337.655 242.865C337.655 239.671 339.755 237.818 342.102 237.818C344.45 237.818 346.55 239.671 346.55 242.865C346.55 246.041 344.45 247.876 342.102 247.876ZM342.102 246.535C343.761 246.535 344.891 245.071 344.891 242.865C344.891 240.659 343.761 239.159 342.102 239.159C340.444 239.159 339.332 240.659 339.332 242.865C339.332 245.071 340.444 246.535 342.102 246.535ZM349.081 247.647V238.065H350.404L350.546 239.812H350.599C351.269 238.594 352.24 237.818 353.316 237.818C353.74 237.818 354.04 237.871 354.34 238.029L354.04 239.441C353.722 239.318 353.493 239.282 353.104 239.282C352.31 239.282 351.322 239.847 350.687 241.488V247.647H349.081ZM361.44 247.647L358.704 234.694H360.381L361.74 241.753C361.987 243.147 362.251 244.541 362.498 245.935H362.569C362.869 244.541 363.187 243.147 363.504 241.753L365.287 234.694H366.787L368.587 241.753C368.904 243.129 369.204 244.523 369.504 245.935H369.593C369.84 244.523 370.087 243.129 370.334 241.753L371.693 234.694H373.263L370.581 247.647H368.622L366.663 239.847C366.434 238.823 366.24 237.888 366.028 236.9H365.957C365.746 237.888 365.516 238.823 365.304 239.847L363.381 247.647H361.44ZM379.085 247.876C376.738 247.876 374.638 246.041 374.638 242.865C374.638 239.671 376.738 237.818 379.085 237.818C381.433 237.818 383.533 239.671 383.533 242.865C383.533 246.041 381.433 247.876 379.085 247.876ZM379.085 246.535C380.744 246.535 381.874 245.071 381.874 242.865C381.874 240.659 380.744 239.159 379.085 239.159C377.427 239.159 376.315 240.659 376.315 242.865C376.315 245.071 377.427 246.535 379.085 246.535ZM386.064 247.647V238.065H387.387L387.529 239.812H387.582C388.252 238.594 389.223 237.818 390.299 237.818C390.723 237.818 391.023 237.871 391.323 238.029L391.023 239.441C390.705 239.318 390.476 239.282 390.087 239.282C389.293 239.282 388.305 239.847 387.67 241.488V247.647H386.064ZM395.981 247.876C393.581 247.876 392.028 246.059 392.028 242.865C392.028 239.759 393.987 237.818 396.175 237.818C397.304 237.818 398.028 238.241 398.875 238.947L398.804 237.288V233.6H400.392V247.647H399.087L398.945 246.518H398.892C398.134 247.259 397.128 247.876 395.981 247.876ZM396.334 246.535C397.216 246.535 397.992 246.094 398.804 245.212V240.182C397.975 239.459 397.251 239.176 396.457 239.176C394.904 239.176 393.687 240.659 393.687 242.847C393.687 245.159 394.64 246.535 396.334 246.535ZM403.8 247.647V234.694H407.506C410.4 234.694 412.342 235.682 412.342 238.506C412.342 241.241 410.418 242.512 407.577 242.512H405.442V247.647H403.8ZM405.442 241.188H407.365C409.642 241.188 410.718 240.359 410.718 238.506C410.718 236.635 409.571 236.035 407.295 236.035H405.442V241.188ZM414.809 247.647V238.065H416.133L416.274 239.812H416.327C416.998 238.594 417.968 237.818 419.045 237.818C419.468 237.818 419.768 237.871 420.068 238.029L419.768 239.441C419.45 239.318 419.221 239.282 418.833 239.282C418.039 239.282 417.05 239.847 416.415 241.488V247.647H414.809ZM425.326 247.876C422.785 247.876 420.738 246.023 420.738 242.865C420.738 239.759 422.838 237.818 425.061 237.818C427.497 237.818 428.873 239.582 428.873 242.318C428.873 242.671 428.838 243.006 428.803 243.235H422.344C422.45 245.282 423.703 246.588 425.52 246.588C426.456 246.588 427.214 246.306 427.92 245.829L428.503 246.888C427.656 247.435 426.632 247.876 425.326 247.876ZM422.326 242.071H427.461C427.461 240.147 426.579 239.106 425.079 239.106C423.72 239.106 422.52 240.2 422.326 242.071ZM433.739 247.876C432.38 247.876 431.074 247.312 430.156 246.553L430.95 245.494C431.78 246.165 432.645 246.623 433.792 246.623C435.062 246.623 435.68 245.953 435.68 245.123C435.68 244.135 434.55 243.712 433.492 243.306C432.15 242.812 430.686 242.159 430.686 240.535C430.686 239.018 431.921 237.818 434.003 237.818C435.186 237.818 436.227 238.312 436.968 238.894L436.192 239.935C435.539 239.441 434.868 239.088 434.021 239.088C432.803 239.088 432.239 239.723 432.239 240.465C432.239 241.382 433.227 241.718 434.303 242.123C435.697 242.653 437.233 243.218 437.233 245.035C437.233 246.588 435.997 247.876 433.739 247.876ZM441.994 247.876C440.635 247.876 439.329 247.312 438.411 246.553L439.205 245.494C440.035 246.165 440.899 246.623 442.046 246.623C443.317 246.623 443.935 245.953 443.935 245.123C443.935 244.135 442.805 243.712 441.746 243.306C440.405 242.812 438.941 242.159 438.941 240.535C438.941 239.018 440.176 237.818 442.258 237.818C443.441 237.818 444.482 238.312 445.223 238.894L444.446 239.935C443.794 239.441 443.123 239.088 442.276 239.088C441.058 239.088 440.494 239.723 440.494 240.465C440.494 241.382 441.482 241.718 442.558 242.123C443.952 242.653 445.488 243.218 445.488 245.035C445.488 246.588 444.252 247.876 441.994 247.876Z" fill="black"/>
<path d="M162.941 134.118C162.941 136.717 165.048 138.824 167.647 138.824C170.246 138.824 172.353 136.717 172.353 134.118C172.353 131.519 170.246 129.412 167.647 129.412C165.048 129.412 162.941 131.519 162.941 134.118ZM325.33 152.389C325.674 152.044 325.674 151.485 325.33 151.141L319.714 145.526C319.37 145.181 318.811 145.181 318.467 145.526C318.122 145.87 318.122 146.429 318.467 146.773L323.458 151.765L318.467 156.756C318.122 157.101 318.122 157.659 318.467 158.004C318.811 158.348 319.37 158.348 319.714 158.004L325.33 152.389ZM167.647 134.118C167.465 134.981 167.465 134.981 167.466 134.981C167.466 134.981 167.467 134.982 167.469 134.982C167.471 134.982 167.475 134.983 167.48 134.984C167.491 134.986 167.506 134.99 167.527 134.994C167.567 135.003 167.628 135.015 167.709 135.032C167.87 135.066 168.11 135.115 168.426 135.18C169.057 135.31 169.992 135.5 171.208 135.741C173.64 136.225 177.194 136.915 181.689 137.743C190.679 139.399 203.429 141.607 218.479 143.814C248.573 148.229 287.886 152.647 324.706 152.647V150.882C288.009 150.882 248.792 146.477 218.736 142.068C203.711 139.864 190.981 137.66 182.009 136.007C177.523 135.181 173.976 134.492 171.552 134.011C170.34 133.77 169.409 133.58 168.781 133.452C168.466 133.387 168.228 133.338 168.069 133.304C167.989 133.288 167.929 133.275 167.889 133.267C167.869 133.263 167.854 133.26 167.844 133.257C167.839 133.256 167.835 133.256 167.833 133.255C167.832 133.255 167.831 133.255 167.83 133.255C167.83 133.254 167.829 133.254 167.647 134.118Z" fill="black"/>
<path d="M162.941 72.3969C162.941 74.9959 165.048 77.1028 167.647 77.1028C170.246 77.1028 172.353 74.9959 172.353 72.3969C172.353 69.7979 170.246 67.691 167.647 67.691C165.048 67.691 162.941 69.7979 162.941 72.3969ZM327.094 119.742C327.439 119.397 327.439 118.838 327.094 118.494L321.479 112.878C321.135 112.534 320.576 112.534 320.231 112.878C319.887 113.223 319.887 113.782 320.231 114.126L325.223 119.118L320.231 124.109C319.887 124.454 319.887 125.012 320.231 125.357C320.576 125.701 321.134 125.701 321.479 125.357L327.094 119.742ZM167.672 73.2789C197.844 72.4353 217.338 83.9868 239.457 95.8954C261.595 107.814 286.234 119.999 326.47 120L326.471 118.235C286.667 118.235 262.337 106.209 240.294 94.3416C218.233 82.4645 198.336 70.6562 167.622 71.5149L167.672 73.2789Z" fill="black"/>
<path d="M248.632 82.44L248.056 84.232H251.608L251.048 82.44C250.616 81.112 250.248 79.832 249.864 78.472H249.8C249.432 79.848 249.048 81.112 248.632 82.44ZM245.048 89L249.032 77.256H250.68L254.664 89H253.096L251.976 85.416H247.688L246.552 89H245.048ZM256.319 89V77.256H259.679C262.303 77.256 264.063 78.152 264.063 80.712C264.063 83.192 262.319 84.344 259.743 84.344H257.807V89H256.319ZM257.807 83.144H259.551C261.615 83.144 262.591 82.392 262.591 80.712C262.591 79.016 261.551 78.472 259.487 78.472H257.807V83.144ZM266.428 89V77.256H267.916V89H266.428Z" fill="black"/>
<defs>
<clipPath id="clip0_197_141">
<rect width="45.8824" height="45.8824" fill="white" transform="translate(288.529)"/>
</clipPath>
<clipPath id="clip1_197_141">
<rect width="123.529" height="25.7215" fill="white" transform="translate(42.353 199.412)"/>
</clipPath>
</defs>
</svg>
