<svg width="480" height="253" viewBox="0 0 480 253" fill="none" xmlns="http://www.w3.org/2000/svg">
<rect x="24.7061" y="22.9412" width="176.471" height="158.824" rx="7.05882" fill="#D9D9D9"/>
<rect x="8.82373" width="45.8824" height="45.8824" rx="22.9412" fill="black"/>
<path d="M31.1323 15.8296L29.71 14.0912L33.9769 6.34741L42.3529 16.4617L41.8787 17.2519L31.1323 15.8296Z" fill="white"/>
<path d="M41.4051 18.3582L28.2881 16.7778L24.1792 24.5216L37.1382 26.26L41.4051 18.3582Z" fill="white"/>
<path d="M23.2307 25.7859L21.1763 29.4207L29.5522 39.535L33.9772 31.6332L29.7102 26.5761L23.2307 25.7859Z" fill="white"/>
<path d="M27.2958 169.789C34.9531 169.789 41.1607 163.581 41.1607 155.924C41.1607 148.266 34.9531 142.059 27.2958 142.059C19.6384 142.059 13.4308 148.266 13.4308 155.924C13.4308 163.581 19.6384 169.789 27.2958 169.789Z" fill="white"/>
<path d="M33.107 187.963C33.2377 187.505 33.3031 187.277 33.4011 187.063C33.4881 186.874 33.5941 186.694 33.7175 186.526C33.8565 186.336 34.0247 186.168 34.3612 185.831L54.2554 165.937C56.3825 163.81 59.8311 163.81 61.9582 165.937C64.0854 168.064 64.0854 171.513 61.9582 173.64L42.064 193.534C41.7275 193.871 41.5592 194.039 41.3699 194.178C41.2018 194.301 41.0217 194.407 40.8322 194.494C40.6188 194.592 40.39 194.658 39.9324 194.788L30.3768 197.519L33.107 187.963Z" fill="white"/>
<path d="M24.2147 180.573H19.593C15.2931 180.573 13.1432 180.573 11.3938 181.103C7.45489 182.298 4.37251 185.38 3.17766 189.319C2.64697 191.069 2.64697 193.219 2.64697 197.519M41.1607 155.924C41.1607 163.581 34.9531 169.789 27.2958 169.789C19.6384 169.789 13.4308 163.581 13.4308 155.924C13.4308 148.266 19.6384 142.059 27.2958 142.059C34.9531 142.059 41.1607 148.266 41.1607 155.924ZM30.3768 197.519L39.9324 194.788C40.39 194.658 40.6188 194.592 40.8322 194.494C41.0217 194.407 41.2018 194.301 41.3699 194.178C41.5592 194.039 41.7275 193.871 42.064 193.534L61.9582 173.64C64.0854 171.513 64.0853 168.064 61.9582 165.937C59.8311 163.81 56.3825 163.81 54.2554 165.937L34.3612 185.831C34.0247 186.168 33.8565 186.336 33.7175 186.526C33.5941 186.694 33.4881 186.874 33.4011 187.063C33.3031 187.277 33.2377 187.505 33.107 187.963L30.3768 197.519Z" stroke="black" stroke-width="5.29412" stroke-linecap="round" stroke-linejoin="round"/>
<rect x="71.9119" y="48.9705" width="85.5882" height="46.7647" rx="5.73529" fill="white"/>
<rect x="71.9119" y="48.9705" width="85.5882" height="46.7647" rx="5.73529" stroke="black" stroke-width="2.64706"/>
<path d="M105.706 63.5293H85.4121M105.706 81.1764H85.4121M92.1768 69.3197H85.4121M92.1768 75.3859H85.4121M98.4905 76.7646H103.902C104.534 76.7646 104.849 76.7646 105.091 76.6444C105.303 76.5386 105.475 76.3699 105.583 76.1624C105.706 75.9264 105.706 75.6176 105.706 74.9999V69.7058C105.706 69.0881 105.706 68.7792 105.583 68.5433C105.475 68.3357 105.303 68.167 105.091 68.0613C104.849 67.9411 104.534 67.9411 103.902 67.9411H98.4905C97.8591 67.9411 97.5434 67.9411 97.3022 68.0613C97.0901 68.167 96.9176 68.3357 96.8095 68.5433C96.6866 68.7792 96.6866 69.0881 96.6866 69.7058V74.9999C96.6866 75.6176 96.6866 75.9264 96.8095 76.1624C96.9176 76.3699 97.0901 76.5386 97.3022 76.6444C97.5434 76.7646 97.8591 76.7646 98.4905 76.7646Z" stroke="black" stroke-width="1.76471" stroke-linecap="round" stroke-linejoin="round"/>
<path d="M113.471 82.8528V64.7187H123.921V66.6704H115.768V72.3528H122.636V74.3045H115.768V80.901H124.193V82.8528H113.471ZM127.995 82.8528V64.7187H130.367L136.963 76.1575L138.89 79.8881H139.014C138.89 78.0598 138.717 76.034 138.717 74.1563V64.7187H140.891V82.8528H138.544L131.948 71.414L129.996 67.6834H129.897C129.996 69.5116 130.169 71.4387 130.169 73.341V82.8528H127.995Z" fill="black"/>
<rect x="71.9119" y="109.853" width="85.5882" height="46.7647" rx="5.73529" fill="white"/>
<rect x="71.9119" y="109.853" width="85.5882" height="46.7647" rx="5.73529" stroke="black" stroke-width="2.64706"/>
<path d="M119.326 144.057C117.028 144.057 115.398 143.068 114.335 141.191L115.966 140.029C116.781 141.462 117.794 142.055 119.104 142.055C121.055 142.055 122.019 140.944 122.019 138.201V125.601H124.292V138.424C124.292 141.537 122.859 144.057 119.326 144.057ZM132.325 133.606L131.435 136.373H136.92L136.055 133.606C135.388 131.555 134.82 129.579 134.227 127.479H134.128C133.56 129.604 132.967 131.555 132.325 133.606ZM126.79 143.735L132.942 125.601H135.487L141.639 143.735H139.218L137.488 138.201H130.867L129.113 143.735H126.79Z" fill="black"/>
<path d="M107.647 128.615H90.1416M107.647 143.836H90.1416M95.9766 133.609H90.1416M95.9766 138.842H90.1416M101.423 140.031H106.091C106.635 140.031 106.908 140.031 107.116 139.927C107.299 139.836 107.447 139.69 107.541 139.511C107.647 139.308 107.647 139.041 107.647 138.509V133.942C107.647 133.409 107.647 133.143 107.541 132.939C107.447 132.76 107.299 132.615 107.116 132.524C106.908 132.42 106.635 132.42 106.091 132.42H101.423C100.878 132.42 100.606 132.42 100.398 132.524C100.215 132.615 100.066 132.76 99.9726 132.939C99.8666 133.143 99.8666 133.409 99.8666 133.942V138.509C99.8666 139.041 99.8666 139.308 99.9726 139.511C100.066 139.69 100.215 139.836 100.398 139.927C100.606 140.031 100.878 140.031 101.423 140.031Z" stroke="black" stroke-width="1.52217" stroke-linecap="round" stroke-linejoin="round"/>
<path d="M88.9626 122.488L90.2165 125.748C90.4204 126.278 90.5223 126.543 90.6809 126.766C90.8214 126.964 90.994 127.136 91.1916 127.277C91.4146 127.435 91.6797 127.537 92.2098 127.741L95.4699 128.995L92.2098 130.249C91.6797 130.453 91.4146 130.555 91.1916 130.713C90.994 130.854 90.8214 131.027 90.6809 131.224C90.5223 131.447 90.4204 131.712 90.2165 132.242L88.9626 135.502L87.7087 132.242C87.5048 131.712 87.4029 131.447 87.2443 131.224C87.1038 131.027 86.9312 130.854 86.7336 130.713C86.5106 130.555 86.2455 130.453 85.7154 130.249L82.4553 128.995L85.7154 127.741C86.2455 127.537 86.5106 127.435 86.7336 127.277C86.9312 127.136 87.1038 126.964 87.2443 126.766C87.4029 126.543 87.5048 126.278 87.7087 125.748L88.9626 122.488Z" fill="white"/>
<path d="M82.8169 136.225V132.61M82.8169 125.38V121.765M81.0093 123.572H84.6244M81.0093 134.418H84.6244M88.9626 122.488L87.7087 125.748C87.5048 126.278 87.4029 126.543 87.2443 126.766C87.1038 126.964 86.9312 127.136 86.7336 127.277C86.5106 127.435 86.2455 127.537 85.7154 127.741L82.4553 128.995L85.7154 130.249C86.2455 130.453 86.5106 130.555 86.7336 130.713C86.9312 130.854 87.1038 131.027 87.2443 131.224C87.4029 131.447 87.5048 131.712 87.7087 132.242L88.9626 135.502L90.2165 132.242C90.4204 131.712 90.5223 131.447 90.6809 131.224C90.8214 131.027 90.994 130.854 91.1916 130.713C91.4146 130.555 91.6797 130.453 92.2098 130.249L95.4699 128.995L92.2098 127.741C91.6797 127.537 91.4146 127.435 91.1916 127.277C90.994 127.136 90.8214 126.964 90.6809 126.766C90.5223 126.543 90.4204 126.278 90.2165 125.748L88.9626 122.488Z" stroke="black" stroke-width="1.52217" stroke-linecap="round" stroke-linejoin="round"/>
<rect x="312.794" y="24.2647" width="142.941" height="156.176" rx="5.73529" fill="white"/>
<rect x="312.794" y="24.2647" width="142.941" height="156.176" rx="5.73529" stroke="black" stroke-width="2.64706"/>
<rect width="112.059" height="57.3529" transform="translate(328.235 41.9119)" fill="#E0E0E0"/>
<rect x="339.882" y="106.323" width="24.7059" height="24.7059" rx="12.3529" fill="black"/>
<path d="M351.895 114.847L351.129 113.911L353.427 109.741L357.937 115.188L357.681 115.613L351.895 114.847Z" fill="white"/>
<path d="M357.426 116.209L350.363 115.358L348.151 119.528L355.129 120.464L357.426 116.209Z" fill="white"/>
<path d="M347.64 120.208L346.534 122.166L351.044 127.612L353.426 123.357L351.129 120.634L347.64 120.208Z" fill="white"/>
<path d="M373.251 125.177V113.535H379.953V114.774H374.712V118.427H379.128V119.681H374.712V123.922H380.128V125.177H373.251ZM382.604 125.177V113.535H384.097L388.353 120.872L389.608 123.271H389.687C389.634 122.688 389.587 122.079 389.544 121.444C389.502 120.809 389.481 120.189 389.481 119.586V113.535H390.878V125.177H389.37L385.129 117.823L383.874 115.441H383.811C383.843 116.023 383.88 116.621 383.922 117.235C383.964 117.839 383.985 118.448 383.985 119.062V125.177H382.604ZM397.49 128.814V116.552H398.681L398.824 117.553H398.856C399.248 117.225 399.677 116.939 400.142 116.695C400.619 116.452 401.106 116.33 401.604 116.33C402.345 116.33 402.969 116.515 403.478 116.886C403.997 117.246 404.383 117.754 404.637 118.411C404.902 119.067 405.034 119.84 405.034 120.729C405.034 121.714 404.854 122.556 404.494 123.255C404.145 123.943 403.684 124.472 403.112 124.843C402.551 125.203 401.942 125.383 401.286 125.383C400.894 125.383 400.497 125.298 400.095 125.129C399.692 124.949 399.295 124.7 398.904 124.382L398.951 125.891V128.814H397.49ZM401.048 124.16C401.524 124.16 401.948 124.028 402.318 123.763C402.699 123.488 402.996 123.096 403.208 122.588C403.419 122.069 403.525 121.455 403.525 120.745C403.525 120.11 403.446 119.554 403.287 119.078C403.139 118.591 402.901 118.215 402.572 117.95C402.244 117.685 401.799 117.553 401.238 117.553C400.878 117.553 400.508 117.654 400.127 117.855C399.756 118.056 399.364 118.347 398.951 118.728V123.271C399.332 123.599 399.708 123.832 400.079 123.969C400.449 124.097 400.772 124.16 401.048 124.16ZM410.69 125.383C409.991 125.383 409.335 125.208 408.721 124.859C408.107 124.499 407.614 123.985 407.244 123.318C406.884 122.641 406.704 121.825 406.704 120.872C406.704 119.909 406.884 119.094 407.244 118.427C407.614 117.749 408.107 117.23 408.721 116.87C409.335 116.51 409.991 116.33 410.69 116.33C411.22 116.33 411.722 116.431 412.199 116.632C412.686 116.833 413.115 117.129 413.485 117.521C413.856 117.913 414.147 118.389 414.359 118.951C414.571 119.512 414.677 120.152 414.677 120.872C414.677 121.825 414.491 122.641 414.121 123.318C413.75 123.985 413.263 124.499 412.66 124.859C412.056 125.208 411.4 125.383 410.69 125.383ZM410.69 124.176C411.188 124.176 411.622 124.038 411.992 123.763C412.374 123.488 412.67 123.101 412.882 122.604C413.094 122.106 413.2 121.529 413.2 120.872C413.2 120.205 413.094 119.623 412.882 119.125C412.67 118.628 412.374 118.241 411.992 117.966C411.622 117.691 411.188 117.553 410.69 117.553C410.192 117.553 409.753 117.691 409.372 117.966C409.001 118.241 408.71 118.628 408.498 119.125C408.297 119.623 408.197 120.205 408.197 120.872C408.197 121.529 408.297 122.106 408.498 122.604C408.71 123.101 409.001 123.488 409.372 123.763C409.753 124.038 410.192 124.176 410.69 124.176ZM419.148 125.383C418.545 125.383 417.957 125.272 417.386 125.049C416.824 124.817 416.343 124.531 415.94 124.192L416.639 123.223C417.02 123.53 417.412 123.779 417.814 123.969C418.217 124.16 418.677 124.255 419.196 124.255C419.768 124.255 420.191 124.128 420.467 123.874C420.753 123.609 420.896 123.287 420.896 122.905C420.896 122.609 420.795 122.365 420.594 122.175C420.403 121.974 420.154 121.804 419.847 121.667C419.551 121.518 419.244 121.386 418.926 121.269C418.524 121.111 418.127 120.936 417.735 120.745C417.354 120.544 417.036 120.29 416.782 119.983C416.538 119.665 416.417 119.263 416.417 118.776C416.417 118.31 416.533 117.897 416.766 117.537C416.999 117.167 417.338 116.875 417.783 116.664C418.227 116.441 418.762 116.33 419.387 116.33C419.916 116.33 420.408 116.425 420.864 116.616C421.33 116.807 421.727 117.039 422.055 117.315L421.356 118.22C421.06 118.008 420.753 117.828 420.435 117.68C420.128 117.532 419.784 117.458 419.403 117.458C418.852 117.458 418.444 117.585 418.18 117.839C417.926 118.082 417.798 118.374 417.798 118.712C417.798 118.977 417.883 119.199 418.053 119.379C418.233 119.559 418.466 119.713 418.751 119.84C419.037 119.957 419.339 120.078 419.657 120.205C419.974 120.322 420.287 120.449 420.594 120.587C420.911 120.724 421.192 120.888 421.436 121.079C421.69 121.269 421.891 121.508 422.039 121.794C422.198 122.069 422.277 122.413 422.277 122.826C422.277 123.292 422.156 123.721 421.912 124.112C421.679 124.504 421.33 124.817 420.864 125.049C420.408 125.272 419.837 125.383 419.148 125.383ZM426.619 125.383C426.016 125.383 425.534 125.267 425.174 125.034C424.814 124.79 424.555 124.451 424.396 124.017C424.248 123.583 424.173 123.08 424.173 122.508V117.728H422.887V116.632L424.253 116.552L424.412 114.122H425.619V116.552H427.969V117.728H425.619V122.556C425.619 123.075 425.714 123.482 425.905 123.779C426.106 124.065 426.455 124.208 426.953 124.208C427.112 124.208 427.281 124.187 427.461 124.144C427.641 124.091 427.8 124.033 427.938 123.969L428.223 125.065C427.98 125.15 427.72 125.224 427.445 125.288C427.17 125.351 426.895 125.383 426.619 125.383Z" fill="black"/>
<rect x="340.882" y="138.088" width="24.7059" height="24.7059" rx="12.3529" fill="black"/>
<path d="M352.895 146.612L352.129 145.676L354.427 141.506L358.937 146.952L358.681 147.378L352.895 146.612Z" fill="white"/>
<path d="M358.426 147.974L351.363 147.123L349.151 151.292L356.129 152.228L358.426 147.974Z" fill="white"/>
<path d="M348.64 151.973L347.534 153.93L352.044 159.377L354.426 155.122L352.129 152.399L348.64 151.973Z" fill="white"/>
<path d="M376.411 157.148C375.67 157.148 375.035 156.994 374.505 156.687C373.986 156.369 373.552 155.909 373.203 155.305L374.251 154.543C374.516 155.019 374.812 155.358 375.141 155.559C375.479 155.761 375.855 155.861 376.268 155.861C376.903 155.861 377.375 155.671 377.682 155.289C377.989 154.898 378.142 154.262 378.142 153.384V145.299H379.619V153.526C379.619 154.194 379.508 154.802 379.286 155.353C379.063 155.904 378.714 156.343 378.238 156.671C377.772 156.989 377.163 157.148 376.411 157.148ZM381.21 156.941L385.149 145.299H386.785L390.739 156.941H389.183L387.15 150.429C386.938 149.762 386.737 149.111 386.547 148.476C386.356 147.83 386.165 147.168 385.975 146.491H385.911C385.731 147.168 385.541 147.83 385.339 148.476C385.149 149.111 384.953 149.762 384.752 150.429L382.687 156.941H381.21ZM383.259 153.384V152.224H388.627V153.384H383.259ZM395.822 160.578V148.317H397.013L397.156 149.318H397.188C397.58 148.989 398.009 148.704 398.475 148.46C398.951 148.216 399.438 148.095 399.936 148.095C400.677 148.095 401.302 148.28 401.81 148.651C402.329 149.011 402.715 149.519 402.969 150.175C403.234 150.832 403.366 151.605 403.366 152.494C403.366 153.479 403.186 154.321 402.826 155.019C402.477 155.708 402.016 156.237 401.445 156.608C400.883 156.968 400.275 157.148 399.618 157.148C399.226 157.148 398.829 157.063 398.427 156.894C398.025 156.714 397.628 156.465 397.236 156.147L397.283 157.656V160.578H395.822ZM399.38 155.925C399.856 155.925 400.28 155.792 400.651 155.528C401.032 155.252 401.328 154.861 401.54 154.352C401.752 153.834 401.858 153.219 401.858 152.51C401.858 151.875 401.778 151.319 401.619 150.842C401.471 150.355 401.233 149.979 400.905 149.715C400.576 149.45 400.132 149.318 399.571 149.318C399.211 149.318 398.84 149.418 398.459 149.619C398.088 149.821 397.696 150.112 397.283 150.493V155.035C397.665 155.364 398.041 155.596 398.411 155.734C398.782 155.861 399.105 155.925 399.38 155.925ZM409.022 157.148C408.324 157.148 407.667 156.973 407.053 156.624C406.439 156.264 405.947 155.75 405.576 155.083C405.216 154.405 405.036 153.59 405.036 152.637C405.036 151.674 405.216 150.858 405.576 150.191C405.947 149.514 406.439 148.995 407.053 148.635C407.667 148.275 408.324 148.095 409.022 148.095C409.552 148.095 410.055 148.195 410.531 148.396C411.018 148.598 411.447 148.894 411.818 149.286C412.188 149.678 412.479 150.154 412.691 150.715C412.903 151.276 413.009 151.917 413.009 152.637C413.009 153.59 412.824 154.405 412.453 155.083C412.082 155.75 411.595 156.264 410.992 156.624C410.388 156.973 409.732 157.148 409.022 157.148ZM409.022 155.941C409.52 155.941 409.954 155.803 410.325 155.528C410.706 155.252 411.002 154.866 411.214 154.368C411.426 153.871 411.532 153.294 411.532 152.637C411.532 151.97 411.426 151.388 411.214 150.89C411.002 150.392 410.706 150.006 410.325 149.731C409.954 149.455 409.52 149.318 409.022 149.318C408.525 149.318 408.085 149.455 407.704 149.731C407.334 150.006 407.042 150.392 406.831 150.89C406.629 151.388 406.529 151.97 406.529 152.637C406.529 153.294 406.629 153.871 406.831 154.368C407.042 154.866 407.334 155.252 407.704 155.528C408.085 155.803 408.525 155.941 409.022 155.941ZM417.481 157.148C416.877 157.148 416.29 157.036 415.718 156.814C415.157 156.581 414.675 156.295 414.273 155.956L414.971 154.988C415.353 155.295 415.744 155.544 416.147 155.734C416.549 155.925 417.01 156.02 417.528 156.02C418.1 156.02 418.524 155.893 418.799 155.639C419.085 155.374 419.228 155.051 419.228 154.67C419.228 154.374 419.127 154.13 418.926 153.939C418.735 153.738 418.487 153.569 418.18 153.431C417.883 153.283 417.576 153.151 417.258 153.034C416.856 152.875 416.459 152.701 416.067 152.51C415.686 152.309 415.368 152.055 415.114 151.748C414.871 151.43 414.749 151.028 414.749 150.541C414.749 150.075 414.865 149.662 415.098 149.302C415.331 148.931 415.67 148.64 416.115 148.428C416.56 148.206 417.094 148.095 417.719 148.095C418.248 148.095 418.741 148.19 419.196 148.381C419.662 148.571 420.059 148.804 420.387 149.079L419.688 149.985C419.392 149.773 419.085 149.593 418.767 149.445C418.46 149.296 418.116 149.222 417.735 149.222C417.184 149.222 416.777 149.349 416.512 149.604C416.258 149.847 416.131 150.138 416.131 150.477C416.131 150.742 416.215 150.964 416.385 151.144C416.565 151.324 416.798 151.478 417.084 151.605C417.37 151.721 417.671 151.843 417.989 151.97C418.307 152.086 418.619 152.214 418.926 152.351C419.244 152.489 419.524 152.653 419.768 152.844C420.022 153.034 420.223 153.272 420.371 153.558C420.53 153.834 420.61 154.178 420.61 154.591C420.61 155.056 420.488 155.485 420.244 155.877C420.011 156.269 419.662 156.581 419.196 156.814C418.741 157.036 418.169 157.148 417.481 157.148ZM424.952 157.148C424.348 157.148 423.866 157.031 423.506 156.798C423.146 156.555 422.887 156.216 422.728 155.782C422.58 155.348 422.506 154.845 422.506 154.273V149.492H421.219V148.396L422.585 148.317L422.744 145.887H423.951V148.317H426.302V149.492H423.951V154.321C423.951 154.839 424.046 155.247 424.237 155.544C424.438 155.829 424.787 155.972 425.285 155.972C425.444 155.972 425.613 155.951 425.793 155.909C425.973 155.856 426.132 155.798 426.27 155.734L426.556 156.83C426.312 156.915 426.053 156.989 425.777 157.052C425.502 157.116 425.227 157.148 424.952 157.148Z" fill="black"/>
<g clip-path="url(#clip0_197_141)">
<path d="M165.451 210.906L164.275 212.297C163.707 211.768 163.139 211.729 162.884 211.729C162.316 211.729 161.963 212.003 161.963 212.415C161.963 212.63 162.061 212.963 162.727 213.179L163.295 213.355C163.962 213.571 164.961 213.904 165.451 214.57C165.706 214.923 165.882 215.433 165.882 215.981C165.882 216.746 165.627 217.51 164.942 218.137C164.256 218.764 163.433 219.039 162.394 219.039C160.63 219.039 159.631 218.196 159.102 217.628L160.356 216.177C160.826 216.726 161.532 217.157 162.237 217.157C162.903 217.157 163.413 216.824 163.413 216.236C163.413 215.707 162.982 215.491 162.668 215.374L162.12 215.178C161.512 214.962 160.807 214.688 160.297 214.159C159.905 213.747 159.65 213.218 159.65 212.532C159.65 211.709 160.042 211.023 160.532 210.612C161.198 210.083 162.061 210.004 162.747 210.004C163.374 210.004 164.373 210.083 165.451 210.906Z" fill="black"/>
<path d="M148.2 218.764V210.279H150.591V211.376C151.042 210.749 151.845 210.004 153.217 210.004C153.962 210.004 155.059 210.22 155.726 211.043C156.313 211.768 156.392 212.611 156.392 213.434V218.764H154.001V214.139C154.001 213.669 153.981 212.924 153.55 212.473C153.178 212.081 152.668 212.042 152.433 212.042C151.806 212.042 151.316 212.258 150.963 212.787C150.611 213.336 150.591 213.943 150.591 214.433V218.764H148.2Z" fill="black"/>
<path d="M140.511 210.004C142.118 210.004 143.215 210.533 143.941 211.2C144.783 211.964 145.371 213.14 145.371 214.531C145.371 215.923 144.783 217.079 143.941 217.843C143.215 218.509 142.118 219.039 140.511 219.039C138.904 219.039 137.807 218.509 137.081 217.843C136.239 217.079 135.651 215.903 135.651 214.531C135.651 213.159 136.239 211.964 137.081 211.2C137.807 210.533 138.904 210.004 140.511 210.004ZM140.511 216.922C141.902 216.922 142.902 215.825 142.902 214.531C142.902 213.238 141.883 212.121 140.511 212.121C139.139 212.121 138.12 213.199 138.12 214.531C138.12 215.864 139.12 216.922 140.511 216.922Z" fill="black"/>
<path d="M130.433 210.279H132.824V218.764H130.433V210.279ZM130.198 206.692C130.198 205.908 130.844 205.262 131.628 205.262C132.412 205.262 133.059 205.908 133.059 206.692C133.059 207.476 132.412 208.123 131.628 208.123C130.844 208.123 130.198 207.476 130.198 206.692Z" fill="black"/>
<path d="M128.209 212.317H126.563V218.764H124.172V212.317H123.231V210.279H124.172V207.378H126.563V210.279H128.209V212.317Z" fill="black"/>
<path d="M121.198 210.514V212.865C120.688 212.395 120.061 212.121 119.238 212.121C117.651 212.121 116.847 213.277 116.847 214.512C116.847 215.903 117.886 216.922 119.316 216.922C119.846 216.922 120.551 216.765 121.198 216.177V218.509C120.727 218.745 119.983 219.039 119.003 219.039C117.67 219.039 116.494 218.529 115.73 217.804C115.083 217.196 114.378 216.138 114.378 214.551C114.378 213.061 114.985 211.866 115.848 211.102C116.886 210.181 118.082 210.004 118.905 210.004C119.787 210.004 120.512 210.181 121.198 210.514Z" fill="black"/>
<path d="M109.724 216.04L111.919 216.393C111.664 217.02 110.704 219.039 107.744 219.039C106.373 219.039 105.334 218.647 104.491 217.843C103.551 216.961 103.159 215.864 103.159 214.531C103.159 212.846 103.845 211.807 104.452 211.2C105.452 210.22 106.627 210.004 107.646 210.004C109.371 210.004 110.371 210.69 110.958 211.396C111.86 212.473 111.977 213.806 111.977 214.727V214.923H105.628C105.628 215.433 105.765 215.981 106.04 216.354C106.294 216.706 106.823 217.157 107.744 217.157C108.666 217.157 109.332 216.726 109.724 216.04ZM105.706 213.394H109.724C109.528 212.238 108.587 211.69 107.705 211.69C106.823 211.69 105.902 212.258 105.706 213.394Z" fill="black"/>
<path d="M97.9409 204.478H100.332V218.764H97.9409V204.478Z" fill="black"/>
<path d="M92.2915 204.478H94.6824V218.764H92.2915V204.478Z" fill="black"/>
<path d="M84.6023 210.004C86.2093 210.004 87.3068 210.533 88.0319 211.2C88.8745 211.964 89.4625 213.14 89.4625 214.531C89.4625 215.923 88.8745 217.079 88.0319 217.843C87.3068 218.509 86.2093 219.039 84.6023 219.039C82.9953 219.039 81.8979 218.509 81.1728 217.843C80.3301 217.079 79.7422 215.903 79.7422 214.531C79.7422 213.159 80.3301 211.964 81.1728 211.2C81.8979 210.533 82.9953 210.004 84.6023 210.004ZM84.6023 216.922C85.9937 216.922 86.9932 215.825 86.9932 214.531C86.9932 213.238 85.9741 212.121 84.6023 212.121C83.2305 212.121 82.2115 213.199 82.2115 214.531C82.2115 215.864 83.2109 216.922 84.6023 216.922Z" fill="black"/>
<path d="M77.204 215.315V218.294C76.4201 218.706 75.3815 219.058 73.9705 219.058C71.6776 219.058 70.2862 218.274 69.1887 217.236C67.6797 215.786 67.0918 214.159 67.0918 212.238C67.0918 209.867 68.0717 208.162 69.1887 207.123C70.5017 205.889 72.1283 205.399 73.9901 205.399C74.9111 205.399 76.0086 205.556 77.204 206.202V209.181C76.0086 207.809 74.5192 207.711 74.0489 207.711C71.4228 207.711 69.7178 209.867 69.7178 212.278C69.7178 215.178 71.9519 216.746 74.1468 216.746C75.3619 216.746 76.4397 216.217 77.204 215.315Z" fill="black"/>
<path d="M50.0696 206.761L48.9673 205.414L52.2743 199.412L58.766 207.251L58.3985 207.863L50.0696 206.761Z" fill="black"/>
<path d="M58.0309 208.721L47.8647 207.496L44.6802 213.498L54.7238 214.845L58.0309 208.721Z" fill="black"/>
<path d="M43.9453 214.477L42.353 217.294L48.8446 225.133L52.2742 219.009L48.9671 215.09L43.9453 214.477Z" fill="black"/>
</g>
<path d="M49.006 246.657C48.206 246.657 47.4589 246.51 46.7648 246.216C46.0824 245.91 45.4883 245.469 44.9824 244.892C44.4766 244.316 44.0824 243.616 43.8001 242.792C43.5177 241.957 43.3766 241.016 43.3766 239.969C43.3766 238.922 43.5177 237.986 43.8001 237.163C44.0942 236.327 44.5001 235.622 45.0177 235.045C45.5354 234.469 46.1413 234.027 46.8354 233.722C47.5295 233.416 48.2883 233.263 49.1119 233.263C49.9001 233.263 50.5942 233.427 51.1942 233.757C51.7942 234.075 52.2824 234.439 52.6589 234.851L51.7766 235.91C51.4354 235.545 51.0471 235.251 50.6119 235.027C50.1766 234.804 49.6824 234.692 49.1295 234.692C48.3177 234.692 47.606 234.904 46.9942 235.327C46.3824 235.751 45.906 236.357 45.5648 237.145C45.2236 237.922 45.053 238.845 45.053 239.916C45.053 241.01 45.2177 241.957 45.5471 242.757C45.8766 243.545 46.3413 244.157 46.9413 244.592C47.5413 245.016 48.253 245.227 49.0766 245.227C49.6883 245.227 50.2354 245.098 50.7177 244.839C51.2119 244.58 51.6648 244.222 52.0766 243.763L52.9766 244.804C52.4707 245.392 51.8942 245.851 51.2471 246.18C50.6001 246.498 49.853 246.657 49.006 246.657ZM55.23 246.427V236.845H56.5535L56.7124 238.592H56.7477C57.0771 237.98 57.4771 237.498 57.9477 237.145C58.43 236.78 58.9359 236.598 59.4653 236.598C59.6888 236.598 59.8771 236.616 60.03 236.651C60.1947 236.675 60.3477 236.727 60.4888 236.81L60.1888 238.204C60.0241 238.157 59.8771 238.122 59.7477 238.098C59.6182 238.063 59.4535 238.045 59.2535 238.045C58.8653 238.045 58.4477 238.216 58.0006 238.557C57.5535 238.886 57.1712 239.457 56.8535 240.269V246.427H55.23ZM65.7128 246.657C64.8539 246.657 64.0775 246.457 63.3834 246.057C62.6892 245.657 62.1363 245.086 61.7245 244.345C61.3245 243.592 61.1245 242.692 61.1245 241.645C61.1245 240.857 61.2422 240.157 61.4775 239.545C61.7128 238.922 62.0304 238.392 62.4304 237.957C62.8422 237.51 63.3069 237.175 63.8245 236.951C64.3422 236.716 64.8716 236.598 65.4128 236.598C66.2363 236.598 66.9304 236.78 67.4951 237.145C68.0598 237.51 68.4892 238.033 68.7834 238.716C69.0892 239.386 69.2422 240.18 69.2422 241.098C69.2422 241.275 69.2363 241.439 69.2245 241.592C69.2128 241.745 69.1951 241.886 69.1716 242.016H62.7128C62.7481 242.698 62.901 243.292 63.1716 243.798C63.4539 244.292 63.8245 244.68 64.2834 244.963C64.7422 245.233 65.2775 245.369 65.8892 245.369C66.3598 245.369 66.7834 245.304 67.1598 245.175C67.5481 245.033 67.9245 244.845 68.2892 244.61L68.8539 245.686C68.4422 245.957 67.9775 246.186 67.4598 246.375C66.9422 246.563 66.3598 246.657 65.7128 246.657ZM62.6951 240.869H67.8304C67.8304 239.904 67.6187 239.169 67.1951 238.663C66.7834 238.145 66.201 237.886 65.4481 237.886C65.001 237.886 64.5775 238.004 64.1775 238.239C63.7892 238.475 63.4598 238.81 63.1892 239.245C62.9304 239.68 62.7657 240.222 62.6951 240.869ZM73.4802 246.657C72.9508 246.657 72.4744 246.551 72.0508 246.339C71.6273 246.127 71.292 245.822 71.0449 245.422C70.8096 245.01 70.692 244.516 70.692 243.939C70.692 242.892 71.1567 242.092 72.0861 241.539C73.0273 240.975 74.5214 240.58 76.5685 240.357C76.5685 239.945 76.5096 239.557 76.392 239.192C76.2861 238.816 76.092 238.516 75.8096 238.292C75.5273 238.057 75.1214 237.939 74.592 237.939C74.0391 237.939 73.5155 238.051 73.0214 238.275C72.5391 238.486 72.1038 238.716 71.7155 238.963L71.0979 237.851C71.392 237.663 71.7332 237.475 72.1214 237.286C72.5096 237.086 72.9332 236.922 73.392 236.792C73.8508 236.663 74.3391 236.598 74.8567 236.598C75.6332 236.598 76.2626 236.763 76.7449 237.092C77.2391 237.422 77.5979 237.88 77.8214 238.469C78.0567 239.045 78.1744 239.733 78.1744 240.533V246.427H76.8508L76.7096 245.28H76.6567C76.2096 245.657 75.7155 245.98 75.1744 246.251C74.6449 246.522 74.0802 246.657 73.4802 246.657ZM73.9391 245.351C74.3979 245.351 74.8332 245.245 75.2449 245.033C75.6685 244.822 76.1096 244.51 76.5685 244.098V241.433C75.4979 241.551 74.6449 241.722 74.0096 241.945C73.3744 242.157 72.9214 242.422 72.6508 242.739C72.3802 243.045 72.2449 243.41 72.2449 243.833C72.2449 244.386 72.4096 244.78 72.7391 245.016C73.0685 245.239 73.4685 245.351 73.9391 245.351ZM83.9079 246.657C83.2373 246.657 82.702 246.527 82.302 246.269C81.902 245.998 81.6137 245.622 81.4373 245.139C81.2726 244.657 81.1902 244.098 81.1902 243.463V238.151H79.7608V236.933L81.2784 236.845L81.4549 234.145H82.7961V236.845H85.4079V238.151H82.7961V243.516C82.7961 244.092 82.902 244.545 83.1137 244.875C83.3373 245.192 83.7255 245.351 84.2784 245.351C84.4549 245.351 84.6431 245.327 84.8431 245.28C85.0431 245.222 85.2196 245.157 85.3726 245.086L85.6902 246.304C85.4196 246.398 85.1314 246.48 84.8255 246.551C84.5196 246.622 84.2137 246.657 83.9079 246.657ZM91.1321 246.657C90.2733 246.657 89.4968 246.457 88.8027 246.057C88.1086 245.657 87.5556 245.086 87.1439 244.345C86.7439 243.592 86.5439 242.692 86.5439 241.645C86.5439 240.857 86.6615 240.157 86.8968 239.545C87.1321 238.922 87.4498 238.392 87.8498 237.957C88.2615 237.51 88.7262 237.175 89.2439 236.951C89.7615 236.716 90.2909 236.598 90.8321 236.598C91.6556 236.598 92.3498 236.78 92.9145 237.145C93.4792 237.51 93.9086 238.033 94.2027 238.716C94.5086 239.386 94.6615 240.18 94.6615 241.098C94.6615 241.275 94.6556 241.439 94.6439 241.592C94.6321 241.745 94.6145 241.886 94.5909 242.016H88.1321C88.1674 242.698 88.3204 243.292 88.5909 243.798C88.8733 244.292 89.2439 244.68 89.7027 244.963C90.1615 245.233 90.6968 245.369 91.3086 245.369C91.7792 245.369 92.2027 245.304 92.5792 245.175C92.9674 245.033 93.3439 244.845 93.7086 244.61L94.2733 245.686C93.8615 245.957 93.3968 246.186 92.8792 246.375C92.3615 246.563 91.7792 246.657 91.1321 246.657ZM88.1145 240.869H93.2498C93.2498 239.904 93.038 239.169 92.6145 238.663C92.2027 238.145 91.6204 237.886 90.8674 237.886C90.4204 237.886 89.9968 238.004 89.5968 238.239C89.2086 238.475 88.8792 238.81 88.6086 239.245C88.3498 239.68 88.1851 240.222 88.1145 240.869ZM100.968 250.469V236.845H102.291L102.45 237.957H102.485C102.921 237.592 103.397 237.275 103.915 237.004C104.444 236.733 104.985 236.598 105.538 236.598C106.362 236.598 107.056 236.804 107.621 237.216C108.197 237.616 108.626 238.18 108.909 238.91C109.203 239.639 109.35 240.498 109.35 241.486C109.35 242.58 109.15 243.516 108.75 244.292C108.362 245.057 107.85 245.645 107.215 246.057C106.591 246.457 105.915 246.657 105.185 246.657C104.75 246.657 104.309 246.563 103.862 246.375C103.415 246.175 102.973 245.898 102.538 245.545L102.591 247.222V250.469H100.968ZM104.921 245.298C105.45 245.298 105.921 245.151 106.332 244.857C106.756 244.551 107.085 244.116 107.321 243.551C107.556 242.975 107.673 242.292 107.673 241.504C107.673 240.798 107.585 240.18 107.409 239.651C107.244 239.11 106.979 238.692 106.615 238.398C106.25 238.104 105.756 237.957 105.132 237.957C104.732 237.957 104.321 238.069 103.897 238.292C103.485 238.516 103.05 238.839 102.591 239.263V244.31C103.015 244.675 103.432 244.933 103.844 245.086C104.256 245.227 104.615 245.298 104.921 245.298ZM115.634 246.657C114.858 246.657 114.128 246.463 113.446 246.075C112.764 245.675 112.217 245.104 111.805 244.363C111.405 243.61 111.205 242.704 111.205 241.645C111.205 240.575 111.405 239.669 111.805 238.927C112.217 238.175 112.764 237.598 113.446 237.198C114.128 236.798 114.858 236.598 115.634 236.598C116.223 236.598 116.781 236.71 117.311 236.933C117.852 237.157 118.328 237.486 118.74 237.922C119.152 238.357 119.476 238.886 119.711 239.51C119.946 240.133 120.064 240.845 120.064 241.645C120.064 242.704 119.858 243.61 119.446 244.363C119.034 245.104 118.493 245.675 117.823 246.075C117.152 246.463 116.423 246.657 115.634 246.657ZM115.634 245.316C116.187 245.316 116.67 245.163 117.081 244.857C117.505 244.551 117.834 244.122 118.07 243.569C118.305 243.016 118.423 242.375 118.423 241.645C118.423 240.904 118.305 240.257 118.07 239.704C117.834 239.151 117.505 238.722 117.081 238.416C116.67 238.11 116.187 237.957 115.634 237.957C115.081 237.957 114.593 238.11 114.17 238.416C113.758 238.722 113.434 239.151 113.199 239.704C112.976 240.257 112.864 240.904 112.864 241.645C112.864 242.375 112.976 243.016 113.199 243.569C113.434 244.122 113.758 244.551 114.17 244.857C114.593 245.163 115.081 245.316 115.634 245.316ZM125.033 246.657C124.362 246.657 123.709 246.533 123.074 246.286C122.45 246.027 121.915 245.71 121.468 245.333L122.244 244.257C122.668 244.598 123.103 244.875 123.55 245.086C123.997 245.298 124.509 245.404 125.085 245.404C125.721 245.404 126.191 245.263 126.497 244.98C126.815 244.686 126.974 244.327 126.974 243.904C126.974 243.575 126.862 243.304 126.638 243.092C126.427 242.869 126.15 242.68 125.809 242.527C125.48 242.363 125.138 242.216 124.785 242.086C124.338 241.91 123.897 241.716 123.462 241.504C123.038 241.28 122.685 240.998 122.403 240.657C122.133 240.304 121.997 239.857 121.997 239.316C121.997 238.798 122.127 238.339 122.385 237.939C122.644 237.527 123.021 237.204 123.515 236.969C124.009 236.722 124.603 236.598 125.297 236.598C125.885 236.598 126.433 236.704 126.938 236.916C127.456 237.127 127.897 237.386 128.262 237.692L127.485 238.698C127.156 238.463 126.815 238.263 126.462 238.098C126.121 237.933 125.738 237.851 125.315 237.851C124.703 237.851 124.25 237.992 123.956 238.275C123.674 238.545 123.533 238.869 123.533 239.245C123.533 239.539 123.627 239.786 123.815 239.986C124.015 240.186 124.274 240.357 124.591 240.498C124.909 240.627 125.244 240.763 125.597 240.904C125.95 241.033 126.297 241.175 126.638 241.327C126.991 241.48 127.303 241.663 127.574 241.875C127.856 242.086 128.08 242.351 128.244 242.669C128.421 242.975 128.509 243.357 128.509 243.816C128.509 244.333 128.374 244.81 128.103 245.245C127.844 245.68 127.456 246.027 126.938 246.286C126.433 246.533 125.797 246.657 125.033 246.657ZM133.333 246.657C132.663 246.657 132.128 246.527 131.728 246.269C131.328 245.998 131.039 245.622 130.863 245.139C130.698 244.657 130.616 244.098 130.616 243.463V238.151H129.186V236.933L130.704 236.845L130.88 234.145H132.222V236.845H134.833V238.151H132.222V243.516C132.222 244.092 132.328 244.545 132.539 244.875C132.763 245.192 133.151 245.351 133.704 245.351C133.88 245.351 134.069 245.327 134.269 245.28C134.469 245.222 134.645 245.157 134.798 245.086L135.116 246.304C134.845 246.398 134.557 246.48 134.251 246.551C133.945 246.622 133.639 246.657 133.333 246.657ZM139.25 246.657C138.58 246.657 137.927 246.533 137.291 246.286C136.668 246.027 136.132 245.71 135.685 245.333L136.462 244.257C136.885 244.598 137.321 244.875 137.768 245.086C138.215 245.298 138.727 245.404 139.303 245.404C139.938 245.404 140.409 245.263 140.715 244.98C141.032 244.686 141.191 244.327 141.191 243.904C141.191 243.575 141.08 243.304 140.856 243.092C140.644 242.869 140.368 242.68 140.027 242.527C139.697 242.363 139.356 242.216 139.003 242.086C138.556 241.91 138.115 241.716 137.68 241.504C137.256 241.28 136.903 240.998 136.621 240.657C136.35 240.304 136.215 239.857 136.215 239.316C136.215 238.798 136.344 238.339 136.603 237.939C136.862 237.527 137.238 237.204 137.732 236.969C138.227 236.722 138.821 236.598 139.515 236.598C140.103 236.598 140.65 236.704 141.156 236.916C141.674 237.127 142.115 237.386 142.48 237.692L141.703 238.698C141.374 238.463 141.032 238.263 140.68 238.098C140.338 237.933 139.956 237.851 139.532 237.851C138.921 237.851 138.468 237.992 138.174 238.275C137.891 238.545 137.75 238.869 137.75 239.245C137.75 239.539 137.844 239.786 138.032 239.986C138.232 240.186 138.491 240.357 138.809 240.498C139.127 240.627 139.462 240.763 139.815 240.904C140.168 241.033 140.515 241.175 140.856 241.327C141.209 241.48 141.521 241.663 141.791 241.875C142.074 242.086 142.297 242.351 142.462 242.669C142.638 242.975 142.727 243.357 142.727 243.816C142.727 244.333 142.591 244.81 142.321 245.245C142.062 245.68 141.674 246.027 141.156 246.286C140.65 246.533 140.015 246.657 139.25 246.657Z" fill="black"/>
<path d="M305.312 218.647V205.712H309C309.965 205.712 310.812 205.835 311.541 206.082C312.27 206.318 312.835 206.712 313.235 207.265C313.635 207.818 313.835 208.565 313.835 209.506C313.835 210.412 313.635 211.159 313.235 211.747C312.835 212.335 312.276 212.776 311.559 213.071C310.841 213.353 310.012 213.494 309.07 213.494H306.935V218.647H305.312ZM306.935 212.171H308.859C309.988 212.171 310.829 211.959 311.382 211.535C311.935 211.112 312.212 210.435 312.212 209.506C312.212 208.565 311.923 207.918 311.347 207.565C310.782 207.212 309.929 207.035 308.788 207.035H306.935V212.171ZM319.126 218.876C318.114 218.876 317.367 218.559 316.885 217.923C316.414 217.288 316.179 216.359 316.179 215.135V209.065H317.802V214.941C317.802 215.823 317.944 216.471 318.226 216.882C318.508 217.282 318.967 217.482 319.602 217.482C320.097 217.482 320.538 217.353 320.926 217.094C321.314 216.835 321.738 216.423 322.197 215.859V209.065H323.802V218.647H322.461L322.338 217.147H322.285C321.838 217.665 321.361 218.082 320.855 218.4C320.361 218.718 319.785 218.876 319.126 218.876ZM331.257 218.876C330.822 218.876 330.363 218.771 329.88 218.559C329.398 218.347 328.951 218.047 328.539 217.659H328.469L328.328 218.647H327.039V204.6H328.663V208.447L328.592 210.159C329.028 209.782 329.504 209.465 330.022 209.206C330.539 208.947 331.069 208.818 331.61 208.818C332.433 208.818 333.128 209.023 333.692 209.435C334.257 209.835 334.686 210.4 334.98 211.129C335.275 211.859 335.422 212.718 335.422 213.706C335.422 214.788 335.222 215.718 334.822 216.494C334.433 217.271 333.922 217.865 333.286 218.276C332.663 218.676 331.986 218.876 331.257 218.876ZM330.992 217.518C331.522 217.518 331.992 217.371 332.404 217.076C332.828 216.771 333.157 216.335 333.392 215.771C333.628 215.194 333.745 214.512 333.745 213.723C333.745 213.018 333.657 212.4 333.48 211.871C333.316 211.329 333.051 210.912 332.686 210.618C332.322 210.323 331.828 210.176 331.204 210.176C330.804 210.176 330.392 210.288 329.969 210.512C329.545 210.735 329.11 211.059 328.663 211.482V216.529C329.075 216.894 329.486 217.153 329.898 217.306C330.322 217.447 330.686 217.518 330.992 217.518ZM339.642 218.876C339.242 218.876 338.919 218.794 338.672 218.629C338.425 218.465 338.242 218.223 338.125 217.906C338.007 217.576 337.948 217.188 337.948 216.741V204.6H339.572V216.847C339.572 217.094 339.613 217.271 339.695 217.376C339.789 217.482 339.895 217.535 340.013 217.535C340.06 217.535 340.107 217.535 340.154 217.535C340.201 217.523 340.266 217.512 340.348 217.5L340.578 218.735C340.46 218.771 340.33 218.8 340.189 218.823C340.048 218.859 339.866 218.876 339.642 218.876ZM342.963 218.647V209.065H344.587V218.647H342.963ZM343.775 207.088C343.457 207.088 343.198 206.994 342.998 206.806C342.81 206.606 342.716 206.341 342.716 206.012C342.716 205.694 342.81 205.441 342.998 205.253C343.198 205.065 343.457 204.971 343.775 204.971C344.092 204.971 344.351 205.065 344.551 205.253C344.751 205.441 344.851 205.694 344.851 206.012C344.851 206.341 344.751 206.606 344.551 206.806C344.351 206.994 344.092 207.088 343.775 207.088ZM350.329 218.876C349.658 218.876 349.005 218.753 348.37 218.506C347.746 218.247 347.211 217.929 346.764 217.553L347.541 216.476C347.964 216.818 348.399 217.094 348.846 217.306C349.293 217.518 349.805 217.623 350.382 217.623C351.017 217.623 351.488 217.482 351.793 217.2C352.111 216.906 352.27 216.547 352.27 216.123C352.27 215.794 352.158 215.523 351.935 215.312C351.723 215.088 351.446 214.9 351.105 214.747C350.776 214.582 350.435 214.435 350.082 214.306C349.635 214.129 349.193 213.935 348.758 213.723C348.335 213.5 347.982 213.218 347.699 212.876C347.429 212.523 347.293 212.076 347.293 211.535C347.293 211.018 347.423 210.559 347.682 210.159C347.941 209.747 348.317 209.423 348.811 209.188C349.305 208.941 349.899 208.818 350.593 208.818C351.182 208.818 351.729 208.923 352.235 209.135C352.752 209.347 353.193 209.606 353.558 209.912L352.782 210.918C352.452 210.682 352.111 210.482 351.758 210.318C351.417 210.153 351.035 210.071 350.611 210.071C349.999 210.071 349.546 210.212 349.252 210.494C348.97 210.765 348.829 211.088 348.829 211.465C348.829 211.759 348.923 212.006 349.111 212.206C349.311 212.406 349.57 212.576 349.888 212.718C350.205 212.847 350.541 212.982 350.893 213.123C351.246 213.253 351.593 213.394 351.935 213.547C352.288 213.7 352.599 213.882 352.87 214.094C353.152 214.306 353.376 214.571 353.541 214.888C353.717 215.194 353.805 215.576 353.805 216.035C353.805 216.553 353.67 217.029 353.399 217.465C353.141 217.9 352.752 218.247 352.235 218.506C351.729 218.753 351.093 218.876 350.329 218.876ZM356.078 218.647V204.6H357.701V208.447L357.631 210.423C358.078 209.976 358.554 209.6 359.06 209.294C359.566 208.976 360.148 208.818 360.807 208.818C361.819 208.818 362.56 209.141 363.031 209.788C363.501 210.423 363.737 211.353 363.737 212.576V218.647H362.131V212.788C362.131 211.882 361.984 211.229 361.689 210.829C361.407 210.429 360.948 210.229 360.313 210.229C359.819 210.229 359.378 210.353 358.989 210.6C358.601 210.847 358.172 211.212 357.701 211.694V218.647H356.078ZM370.743 222.688V209.065H372.067L372.226 210.176H372.261C372.696 209.812 373.173 209.494 373.69 209.223C374.22 208.953 374.761 208.818 375.314 208.818C376.137 208.818 376.832 209.023 377.396 209.435C377.973 209.835 378.402 210.4 378.685 211.129C378.979 211.859 379.126 212.718 379.126 213.706C379.126 214.8 378.926 215.735 378.526 216.512C378.137 217.276 377.626 217.865 376.99 218.276C376.367 218.676 375.69 218.876 374.961 218.876C374.526 218.876 374.085 218.782 373.637 218.594C373.19 218.394 372.749 218.118 372.314 217.765L372.367 219.441V222.688H370.743ZM374.696 217.518C375.226 217.518 375.696 217.371 376.108 217.076C376.532 216.771 376.861 216.335 377.096 215.771C377.332 215.194 377.449 214.512 377.449 213.723C377.449 213.018 377.361 212.4 377.185 211.871C377.02 211.329 376.755 210.912 376.39 210.618C376.026 210.323 375.532 210.176 374.908 210.176C374.508 210.176 374.096 210.288 373.673 210.512C373.261 210.735 372.826 211.059 372.367 211.482V216.529C372.79 216.894 373.208 217.153 373.62 217.306C374.032 217.447 374.39 217.518 374.696 217.518ZM385.41 218.876C384.634 218.876 383.904 218.682 383.222 218.294C382.54 217.894 381.992 217.323 381.581 216.582C381.181 215.829 380.981 214.923 380.981 213.865C380.981 212.794 381.181 211.888 381.581 211.147C381.992 210.394 382.54 209.818 383.222 209.418C383.904 209.018 384.634 208.818 385.41 208.818C385.998 208.818 386.557 208.929 387.087 209.153C387.628 209.376 388.104 209.706 388.516 210.141C388.928 210.576 389.251 211.106 389.487 211.729C389.722 212.353 389.84 213.065 389.84 213.865C389.84 214.923 389.634 215.829 389.222 216.582C388.81 217.323 388.269 217.894 387.598 218.294C386.928 218.682 386.198 218.876 385.41 218.876ZM385.41 217.535C385.963 217.535 386.445 217.382 386.857 217.076C387.281 216.771 387.61 216.341 387.845 215.788C388.081 215.235 388.198 214.594 388.198 213.865C388.198 213.123 388.081 212.476 387.845 211.923C387.61 211.371 387.281 210.941 386.857 210.635C386.445 210.329 385.963 210.176 385.41 210.176C384.857 210.176 384.369 210.329 383.945 210.635C383.534 210.941 383.21 211.371 382.975 211.923C382.751 212.476 382.64 213.123 382.64 213.865C382.64 214.594 382.751 215.235 382.975 215.788C383.21 216.341 383.534 216.771 383.945 217.076C384.369 217.382 384.857 217.535 385.41 217.535ZM394.808 218.876C394.138 218.876 393.485 218.753 392.849 218.506C392.226 218.247 391.691 217.929 391.244 217.553L392.02 216.476C392.444 216.818 392.879 217.094 393.326 217.306C393.773 217.518 394.285 217.623 394.861 217.623C395.497 217.623 395.967 217.482 396.273 217.2C396.591 216.906 396.749 216.547 396.749 216.123C396.749 215.794 396.638 215.523 396.414 215.312C396.202 215.088 395.926 214.9 395.585 214.747C395.255 214.582 394.914 214.435 394.561 214.306C394.114 214.129 393.673 213.935 393.238 213.723C392.814 213.5 392.461 213.218 392.179 212.876C391.908 212.523 391.773 212.076 391.773 211.535C391.773 211.018 391.902 210.559 392.161 210.159C392.42 209.747 392.797 209.423 393.291 209.188C393.785 208.941 394.379 208.818 395.073 208.818C395.661 208.818 396.208 208.923 396.714 209.135C397.232 209.347 397.673 209.606 398.038 209.912L397.261 210.918C396.932 210.682 396.591 210.482 396.238 210.318C395.897 210.153 395.514 210.071 395.091 210.071C394.479 210.071 394.026 210.212 393.732 210.494C393.449 210.765 393.308 211.088 393.308 211.465C393.308 211.759 393.402 212.006 393.591 212.206C393.791 212.406 394.049 212.576 394.367 212.718C394.685 212.847 395.02 212.982 395.373 213.123C395.726 213.253 396.073 213.394 396.414 213.547C396.767 213.7 397.079 213.882 397.349 214.094C397.632 214.306 397.855 214.571 398.02 214.888C398.197 215.194 398.285 215.576 398.285 216.035C398.285 216.553 398.149 217.029 397.879 217.465C397.62 217.9 397.232 218.247 396.714 218.506C396.208 218.753 395.573 218.876 394.808 218.876ZM403.109 218.876C402.439 218.876 401.903 218.747 401.503 218.488C401.103 218.218 400.815 217.841 400.639 217.359C400.474 216.876 400.392 216.318 400.392 215.682V210.371H398.962V209.153L400.48 209.065L400.656 206.365H401.997V209.065H404.609V210.371H401.997V215.735C401.997 216.312 402.103 216.765 402.315 217.094C402.539 217.412 402.927 217.571 403.48 217.571C403.656 217.571 403.844 217.547 404.044 217.5C404.244 217.441 404.421 217.376 404.574 217.306L404.892 218.523C404.621 218.618 404.333 218.7 404.027 218.771C403.721 218.841 403.415 218.876 403.109 218.876ZM409.026 218.876C408.355 218.876 407.702 218.753 407.067 218.506C406.444 218.247 405.908 217.929 405.461 217.553L406.238 216.476C406.661 216.818 407.096 217.094 407.544 217.306C407.991 217.518 408.502 217.623 409.079 217.623C409.714 217.623 410.185 217.482 410.491 217.2C410.808 216.906 410.967 216.547 410.967 216.123C410.967 215.794 410.855 215.523 410.632 215.312C410.42 215.088 410.144 214.9 409.802 214.747C409.473 214.582 409.132 214.435 408.779 214.306C408.332 214.129 407.891 213.935 407.455 213.723C407.032 213.5 406.679 213.218 406.396 212.876C406.126 212.523 405.991 212.076 405.991 211.535C405.991 211.018 406.12 210.559 406.379 210.159C406.638 209.747 407.014 209.423 407.508 209.188C408.002 208.941 408.596 208.818 409.291 208.818C409.879 208.818 410.426 208.923 410.932 209.135C411.449 209.347 411.891 209.606 412.255 209.912L411.479 210.918C411.149 210.682 410.808 210.482 410.455 210.318C410.114 210.153 409.732 210.071 409.308 210.071C408.696 210.071 408.244 210.212 407.949 210.494C407.667 210.765 407.526 211.088 407.526 211.465C407.526 211.759 407.62 212.006 407.808 212.206C408.008 212.406 408.267 212.576 408.585 212.718C408.902 212.847 409.238 212.982 409.591 213.123C409.944 213.253 410.291 213.394 410.632 213.547C410.985 213.7 411.296 213.882 411.567 214.094C411.849 214.306 412.073 214.571 412.238 214.888C412.414 215.194 412.502 215.576 412.502 216.035C412.502 216.553 412.367 217.029 412.096 217.465C411.838 217.9 411.449 218.247 410.932 218.506C410.426 218.753 409.791 218.876 409.026 218.876ZM421.721 218.876C421.051 218.876 420.515 218.747 420.115 218.488C419.715 218.218 419.427 217.841 419.251 217.359C419.086 216.876 419.004 216.318 419.004 215.682V210.371H417.574V209.153L419.092 209.065L419.268 206.365H420.61V209.065H423.221V210.371H420.61V215.735C420.61 216.312 420.715 216.765 420.927 217.094C421.151 217.412 421.539 217.571 422.092 217.571C422.268 217.571 422.457 217.547 422.657 217.5C422.857 217.441 423.033 217.376 423.186 217.306L423.504 218.523C423.233 218.618 422.945 218.7 422.639 218.771C422.333 218.841 422.027 218.876 421.721 218.876ZM428.787 218.876C428.01 218.876 427.281 218.682 426.599 218.294C425.916 217.894 425.369 217.323 424.957 216.582C424.557 215.829 424.357 214.923 424.357 213.865C424.357 212.794 424.557 211.888 424.957 211.147C425.369 210.394 425.916 209.818 426.599 209.418C427.281 209.018 428.01 208.818 428.787 208.818C429.375 208.818 429.934 208.929 430.463 209.153C431.004 209.376 431.481 209.706 431.893 210.141C432.304 210.576 432.628 211.106 432.863 211.729C433.099 212.353 433.216 213.065 433.216 213.865C433.216 214.923 433.01 215.829 432.599 216.582C432.187 217.323 431.646 217.894 430.975 218.294C430.304 218.682 429.575 218.876 428.787 218.876ZM428.787 217.535C429.34 217.535 429.822 217.382 430.234 217.076C430.657 216.771 430.987 216.341 431.222 215.788C431.457 215.235 431.575 214.594 431.575 213.865C431.575 213.123 431.457 212.476 431.222 211.923C430.987 211.371 430.657 210.941 430.234 210.635C429.822 210.329 429.34 210.176 428.787 210.176C428.234 210.176 427.746 210.329 427.322 210.635C426.91 210.941 426.587 211.371 426.351 211.923C426.128 212.476 426.016 213.123 426.016 213.865C426.016 214.594 426.128 215.235 426.351 215.788C426.587 216.341 426.91 216.771 427.322 217.076C427.746 217.382 428.234 217.535 428.787 217.535ZM442.712 218.876C442.041 218.876 441.506 218.747 441.106 218.488C440.706 218.218 440.418 217.841 440.241 217.359C440.076 216.876 439.994 216.318 439.994 215.682V210.371H438.565V209.153L440.082 209.065L440.259 206.365H441.6V209.065H444.212V210.371H441.6V215.735C441.6 216.312 441.706 216.765 441.918 217.094C442.141 217.412 442.529 217.571 443.082 217.571C443.259 217.571 443.447 217.547 443.647 217.5C443.847 217.441 444.023 217.376 444.176 217.306L444.494 218.523C444.223 218.618 443.935 218.7 443.629 218.771C443.323 218.841 443.018 218.876 442.712 218.876ZM446.364 218.647V204.6H447.987V208.447L447.917 210.423C448.364 209.976 448.84 209.6 449.346 209.294C449.852 208.976 450.434 208.818 451.093 208.818C452.105 208.818 452.846 209.141 453.317 209.788C453.787 210.423 454.023 211.353 454.023 212.576V218.647H452.417V212.788C452.417 211.882 452.27 211.229 451.976 210.829C451.693 210.429 451.234 210.229 450.599 210.229C450.105 210.229 449.664 210.353 449.276 210.6C448.887 210.847 448.458 211.212 447.987 211.694V218.647H446.364ZM460.965 218.876C460.107 218.876 459.33 218.676 458.636 218.276C457.942 217.876 457.389 217.306 456.977 216.565C456.577 215.812 456.377 214.912 456.377 213.865C456.377 213.076 456.495 212.376 456.73 211.765C456.965 211.141 457.283 210.612 457.683 210.176C458.095 209.729 458.559 209.394 459.077 209.171C459.595 208.935 460.124 208.818 460.665 208.818C461.489 208.818 462.183 209 462.748 209.365C463.312 209.729 463.742 210.253 464.036 210.935C464.342 211.606 464.495 212.4 464.495 213.318C464.495 213.494 464.489 213.659 464.477 213.812C464.465 213.965 464.448 214.106 464.424 214.235H457.965C458.001 214.918 458.154 215.512 458.424 216.018C458.707 216.512 459.077 216.9 459.536 217.182C459.995 217.453 460.53 217.588 461.142 217.588C461.612 217.588 462.036 217.523 462.412 217.394C462.801 217.253 463.177 217.065 463.542 216.829L464.107 217.906C463.695 218.176 463.23 218.406 462.712 218.594C462.195 218.782 461.612 218.876 460.965 218.876ZM457.948 213.088H463.083C463.083 212.123 462.871 211.388 462.448 210.882C462.036 210.365 461.454 210.106 460.701 210.106C460.254 210.106 459.83 210.223 459.43 210.459C459.042 210.694 458.712 211.029 458.442 211.465C458.183 211.9 458.018 212.441 457.948 213.088ZM307.659 246.876C306.988 246.876 306.335 246.753 305.7 246.506C305.076 246.247 304.541 245.929 304.094 245.553L304.87 244.476C305.294 244.818 305.729 245.094 306.176 245.306C306.623 245.518 307.135 245.623 307.712 245.623C308.347 245.623 308.818 245.482 309.123 245.2C309.441 244.906 309.6 244.547 309.6 244.123C309.6 243.794 309.488 243.523 309.265 243.312C309.053 243.088 308.776 242.9 308.435 242.747C308.106 242.582 307.765 242.435 307.412 242.306C306.965 242.129 306.523 241.935 306.088 241.723C305.665 241.5 305.312 241.218 305.029 240.876C304.759 240.523 304.623 240.076 304.623 239.535C304.623 239.018 304.753 238.559 305.012 238.159C305.27 237.747 305.647 237.423 306.141 237.188C306.635 236.941 307.229 236.818 307.923 236.818C308.512 236.818 309.059 236.923 309.565 237.135C310.082 237.347 310.523 237.606 310.888 237.912L310.112 238.918C309.782 238.682 309.441 238.482 309.088 238.318C308.747 238.153 308.365 238.071 307.941 238.071C307.329 238.071 306.876 238.212 306.582 238.494C306.3 238.765 306.159 239.088 306.159 239.465C306.159 239.759 306.253 240.006 306.441 240.206C306.641 240.406 306.9 240.576 307.218 240.718C307.535 240.847 307.87 240.982 308.223 241.123C308.576 241.253 308.923 241.394 309.265 241.547C309.618 241.7 309.929 241.882 310.2 242.094C310.482 242.306 310.706 242.571 310.87 242.888C311.047 243.194 311.135 243.576 311.135 244.035C311.135 244.553 311 245.029 310.729 245.465C310.47 245.9 310.082 246.247 309.565 246.506C309.059 246.753 308.423 246.876 307.659 246.876ZM313.408 246.647V237.065H315.031V246.647H313.408ZM314.219 235.088C313.902 235.088 313.643 234.994 313.443 234.806C313.255 234.606 313.161 234.341 313.161 234.012C313.161 233.694 313.255 233.441 313.443 233.253C313.643 233.065 313.902 232.971 314.219 232.971C314.537 232.971 314.796 233.065 314.996 233.253C315.196 233.441 315.296 233.694 315.296 234.012C315.296 234.341 315.196 234.606 314.996 234.806C314.796 234.994 314.537 235.088 314.219 235.088ZM321.267 246.876C320.597 246.876 320.062 246.747 319.662 246.488C319.262 246.218 318.973 245.841 318.797 245.359C318.632 244.876 318.55 244.318 318.55 243.682V238.371H317.12V237.153L318.638 237.065L318.815 234.365H320.156V237.065H322.767V238.371H320.156V243.735C320.156 244.312 320.262 244.765 320.473 245.094C320.697 245.412 321.085 245.571 321.638 245.571C321.815 245.571 322.003 245.547 322.203 245.5C322.403 245.441 322.579 245.376 322.732 245.306L323.05 246.523C322.779 246.618 322.491 246.7 322.185 246.771C321.879 246.841 321.573 246.876 321.267 246.876ZM328.492 246.876C327.633 246.876 326.856 246.676 326.162 246.276C325.468 245.876 324.915 245.306 324.504 244.565C324.104 243.812 323.904 242.912 323.904 241.865C323.904 241.076 324.021 240.376 324.256 239.765C324.492 239.141 324.809 238.612 325.209 238.176C325.621 237.729 326.086 237.394 326.604 237.171C327.121 236.935 327.651 236.818 328.192 236.818C329.015 236.818 329.709 237 330.274 237.365C330.839 237.729 331.268 238.253 331.562 238.935C331.868 239.606 332.021 240.4 332.021 241.318C332.021 241.494 332.015 241.659 332.004 241.812C331.992 241.965 331.974 242.106 331.951 242.235H325.492C325.527 242.918 325.68 243.512 325.951 244.018C326.233 244.512 326.604 244.9 327.062 245.182C327.521 245.453 328.056 245.588 328.668 245.588C329.139 245.588 329.562 245.523 329.939 245.394C330.327 245.253 330.704 245.065 331.068 244.829L331.633 245.906C331.221 246.176 330.756 246.406 330.239 246.594C329.721 246.782 329.139 246.876 328.492 246.876ZM325.474 241.088H330.609C330.609 240.123 330.398 239.388 329.974 238.882C329.562 238.365 328.98 238.106 328.227 238.106C327.78 238.106 327.356 238.223 326.956 238.459C326.568 238.694 326.239 239.029 325.968 239.465C325.709 239.9 325.545 240.441 325.474 241.088ZM340.392 246.647L336.933 237.065H338.61L340.41 242.518C340.563 242.988 340.71 243.465 340.851 243.947C341.004 244.418 341.151 244.882 341.292 245.341H341.38C341.533 244.882 341.68 244.418 341.821 243.947C341.974 243.465 342.121 242.988 342.263 242.518L344.08 237.065H345.668L342.28 246.647H340.392ZM347.53 246.647V237.065H349.153V246.647H347.53ZM348.342 235.088C348.024 235.088 347.765 234.994 347.565 234.806C347.377 234.606 347.283 234.341 347.283 234.012C347.283 233.694 347.377 233.441 347.565 233.253C347.765 233.065 348.024 232.971 348.342 232.971C348.659 232.971 348.918 233.065 349.118 233.253C349.318 233.441 349.418 233.694 349.418 234.012C349.418 234.341 349.318 234.606 349.118 234.806C348.918 234.994 348.659 235.088 348.342 235.088ZM354.596 246.876C354.066 246.876 353.59 246.771 353.166 246.559C352.743 246.347 352.407 246.041 352.16 245.641C351.925 245.229 351.807 244.735 351.807 244.159C351.807 243.112 352.272 242.312 353.201 241.759C354.143 241.194 355.637 240.8 357.684 240.576C357.684 240.165 357.625 239.776 357.507 239.412C357.401 239.035 357.207 238.735 356.925 238.512C356.643 238.276 356.237 238.159 355.707 238.159C355.154 238.159 354.631 238.271 354.137 238.494C353.654 238.706 353.219 238.935 352.831 239.182L352.213 238.071C352.507 237.882 352.849 237.694 353.237 237.506C353.625 237.306 354.049 237.141 354.507 237.012C354.966 236.882 355.454 236.818 355.972 236.818C356.749 236.818 357.378 236.982 357.86 237.312C358.354 237.641 358.713 238.1 358.937 238.688C359.172 239.265 359.29 239.953 359.29 240.753V246.647H357.966L357.825 245.5H357.772C357.325 245.876 356.831 246.2 356.29 246.471C355.76 246.741 355.196 246.876 354.596 246.876ZM355.054 245.571C355.513 245.571 355.949 245.465 356.36 245.253C356.784 245.041 357.225 244.729 357.684 244.318V241.653C356.613 241.771 355.76 241.941 355.125 242.165C354.49 242.376 354.037 242.641 353.766 242.959C353.496 243.265 353.36 243.629 353.36 244.053C353.36 244.606 353.525 245 353.854 245.235C354.184 245.459 354.584 245.571 355.054 245.571ZM364.727 246.647L369.103 233.712H370.921L375.315 246.647H373.586L371.327 239.412C371.092 238.671 370.868 237.947 370.656 237.241C370.445 236.523 370.233 235.788 370.021 235.035H369.95C369.75 235.788 369.539 236.523 369.315 237.241C369.103 237.947 368.886 238.671 368.662 239.412L366.368 246.647H364.727ZM367.003 242.694V241.406H372.968V242.694H367.003ZM377.175 246.647V233.712H380.863C381.828 233.712 382.675 233.835 383.405 234.082C384.134 234.318 384.699 234.712 385.099 235.265C385.499 235.818 385.699 236.565 385.699 237.506C385.699 238.412 385.499 239.159 385.099 239.747C384.699 240.335 384.14 240.776 383.422 241.071C382.705 241.353 381.875 241.494 380.934 241.494H378.799V246.647H377.175ZM378.799 240.171H380.722C381.852 240.171 382.693 239.959 383.246 239.535C383.799 239.112 384.075 238.435 384.075 237.506C384.075 236.565 383.787 235.918 383.21 235.565C382.646 235.212 381.793 235.035 380.652 235.035H378.799V240.171ZM388.342 246.647V233.712H389.966V246.647H388.342Z" fill="black"/>
<path d="M162.941 134.118C162.941 136.717 165.048 138.824 167.647 138.824C170.246 138.824 172.353 136.717 172.353 134.118C172.353 131.519 170.246 129.412 167.647 129.412C165.048 129.412 162.941 131.519 162.941 134.118ZM325.33 152.389C325.674 152.044 325.674 151.485 325.33 151.141L319.714 145.526C319.37 145.181 318.811 145.181 318.467 145.526C318.122 145.87 318.122 146.429 318.467 146.773L323.458 151.765L318.467 156.756C318.122 157.101 318.122 157.659 318.467 158.004C318.811 158.348 319.37 158.348 319.714 158.004L325.33 152.389ZM167.647 134.118C167.465 134.981 167.465 134.981 167.466 134.981C167.466 134.981 167.467 134.982 167.469 134.982C167.471 134.982 167.475 134.983 167.48 134.984C167.491 134.986 167.506 134.99 167.527 134.994C167.567 135.003 167.628 135.015 167.709 135.032C167.87 135.066 168.11 135.115 168.426 135.18C169.057 135.31 169.992 135.5 171.208 135.741C173.64 136.225 177.194 136.915 181.689 137.743C190.679 139.399 203.429 141.607 218.479 143.814C248.573 148.229 287.886 152.647 324.706 152.647V150.882C288.009 150.882 248.792 146.477 218.736 142.068C203.711 139.864 190.981 137.66 182.009 136.007C177.523 135.181 173.976 134.492 171.552 134.011C170.34 133.77 169.409 133.58 168.781 133.452C168.466 133.387 168.228 133.338 168.069 133.304C167.989 133.288 167.929 133.275 167.889 133.267C167.869 133.263 167.854 133.26 167.844 133.257C167.839 133.256 167.835 133.256 167.833 133.255C167.832 133.255 167.831 133.255 167.83 133.255C167.83 133.254 167.829 133.254 167.647 134.118Z" fill="black"/>
<path d="M162.941 72.3969C162.941 74.9959 165.048 77.1028 167.647 77.1028C170.246 77.1028 172.353 74.9959 172.353 72.3969C172.353 69.7979 170.246 67.691 167.647 67.691C165.048 67.691 162.941 69.7979 162.941 72.3969ZM327.094 119.742C327.439 119.397 327.439 118.838 327.094 118.494L321.479 112.878C321.135 112.534 320.576 112.534 320.231 112.878C319.887 113.223 319.887 113.782 320.231 114.126L325.223 119.118L320.231 124.109C319.887 124.454 319.887 125.012 320.231 125.357C320.576 125.701 321.134 125.701 321.479 125.357L327.094 119.742ZM167.672 73.2789C197.844 72.4353 217.338 83.9868 239.457 95.8954C261.595 107.814 286.234 119.999 326.47 120L326.471 118.235C286.667 118.235 262.337 106.209 240.294 94.3416C218.233 82.4645 198.336 70.6562 167.622 71.5149L167.672 73.2789Z" fill="black"/>
<path d="M248.632 82.44L248.056 84.232H251.608L251.048 82.44C250.616 81.112 250.248 79.832 249.864 78.472H249.8C249.432 79.848 249.048 81.112 248.632 82.44ZM245.048 89L249.032 77.256H250.68L254.664 89H253.096L251.976 85.416H247.688L246.552 89H245.048ZM256.319 89V77.256H259.679C262.303 77.256 264.063 78.152 264.063 80.712C264.063 83.192 262.319 84.344 259.743 84.344H257.807V89H256.319ZM257.807 83.144H259.551C261.615 83.144 262.591 82.392 262.591 80.712C262.591 79.016 261.551 78.472 259.487 78.472H257.807V83.144ZM266.428 89V77.256H267.916V89H266.428Z" fill="black"/>
<defs>
<clipPath id="clip0_197_141">
<rect width="123.529" height="25.7215" fill="white" transform="translate(42.353 199.412)"/>
</clipPath>
</defs>
</svg>
