<svg width="480" height="253" viewBox="0 0 480 253" fill="none" xmlns="http://www.w3.org/2000/svg">
<rect x="24.7061" y="22.9412" width="176.471" height="158.824" rx="7.05882" fill="#D9D9D9"/>
<rect x="8.82373" width="45.8824" height="45.8824" rx="22.9412" fill="black"/>
<path d="M31.1323 15.8295L29.71 14.0911L33.9769 6.34735L42.3529 16.4617L41.8787 17.2519L31.1323 15.8295Z" fill="white"/>
<path d="M41.4051 18.3582L28.2881 16.7778L24.1792 24.5216L37.1382 26.26L41.4051 18.3582Z" fill="white"/>
<path d="M23.2307 25.7858L21.1763 29.4207L29.5522 39.535L33.9772 31.6332L29.7102 26.576L23.2307 25.7858Z" fill="white"/>
<path d="M27.2958 169.789C34.9531 169.789 41.1607 163.581 41.1607 155.924C41.1607 148.266 34.9531 142.059 27.2958 142.059C19.6384 142.059 13.4308 148.266 13.4308 155.924C13.4308 163.581 19.6384 169.789 27.2958 169.789Z" fill="white"/>
<path d="M33.107 187.963C33.2377 187.505 33.3031 187.277 33.4011 187.063C33.4881 186.874 33.5941 186.694 33.7175 186.526C33.8565 186.336 34.0247 186.168 34.3612 185.831L54.2554 165.937C56.3825 163.81 59.8311 163.81 61.9582 165.937C64.0854 168.064 64.0854 171.513 61.9582 173.64L42.064 193.534C41.7275 193.871 41.5592 194.039 41.3699 194.178C41.2018 194.301 41.0217 194.407 40.8322 194.494C40.6188 194.592 40.39 194.658 39.9324 194.788L30.3768 197.519L33.107 187.963Z" fill="white"/>
<path d="M24.2147 180.573H19.593C15.2931 180.573 13.1432 180.573 11.3938 181.103C7.45489 182.298 4.37251 185.38 3.17766 189.319C2.64697 191.069 2.64697 193.219 2.64697 197.519M41.1607 155.924C41.1607 163.581 34.9531 169.789 27.2958 169.789C19.6384 169.789 13.4308 163.581 13.4308 155.924C13.4308 148.266 19.6384 142.059 27.2958 142.059C34.9531 142.059 41.1607 148.266 41.1607 155.924ZM30.3768 197.519L39.9324 194.788C40.39 194.658 40.6188 194.592 40.8322 194.494C41.0217 194.407 41.2018 194.301 41.3699 194.178C41.5592 194.039 41.7275 193.871 42.064 193.534L61.9582 173.64C64.0854 171.513 64.0853 168.064 61.9582 165.937C59.8311 163.81 56.3825 163.81 54.2554 165.937L34.3612 185.831C34.0247 186.168 33.8565 186.336 33.7175 186.526C33.5941 186.694 33.4881 186.874 33.4011 187.063C33.3031 187.277 33.2377 187.505 33.107 187.963L30.3768 197.519Z" stroke="black" stroke-width="5.29412" stroke-linecap="round" stroke-linejoin="round"/>
<rect x="71.9119" y="48.9706" width="85.5882" height="46.7647" rx="5.73529" fill="white"/>
<rect x="71.9119" y="48.9706" width="85.5882" height="46.7647" rx="5.73529" stroke="black" stroke-width="2.64706"/>
<path d="M107.706 63.5294H87.4121M107.706 81.1765H87.4121M94.1768 69.3199H87.4121M94.1768 75.386H87.4121M100.491 76.7647H105.902C106.534 76.7647 106.849 76.7647 107.091 76.6445C107.303 76.5388 107.475 76.37 107.583 76.1625C107.706 75.9266 107.706 75.6177 107.706 75V69.7059C107.706 69.0882 107.706 68.7793 107.583 68.5434C107.475 68.3359 107.303 68.1671 107.091 68.0614C106.849 67.9412 106.534 67.9412 105.902 67.9412H100.491C99.8591 67.9412 99.5434 67.9412 99.3022 68.0614C99.0901 68.1671 98.9176 68.3359 98.8095 68.5434C98.6866 68.7793 98.6866 69.0882 98.6866 69.7059V75C98.6866 75.6177 98.6866 75.9266 98.8095 76.1625C98.9176 76.37 99.0901 76.5388 99.3022 76.6445C99.5434 76.7647 99.8591 76.7647 100.491 76.7647Z" stroke="black" stroke-width="1.76471" stroke-linecap="round" stroke-linejoin="round"/>
<path d="M118.855 83.1741C116.558 83.1741 114.927 82.1859 113.865 80.3082L115.495 79.1471C116.311 80.58 117.324 81.1729 118.633 81.1729C120.585 81.1729 121.548 80.0612 121.548 77.3188V64.7188H123.821V77.5412C123.821 80.6541 122.388 83.1741 118.855 83.1741ZM131.854 72.7235L130.964 75.4906H136.449L135.584 72.7235C134.917 70.6729 134.349 68.6965 133.756 66.5965H133.657C133.089 68.7212 132.496 70.6729 131.854 72.7235ZM126.32 82.8529L132.472 64.7188H135.016L141.168 82.8529H138.747L137.017 77.3188H130.396L128.642 82.8529H126.32Z" fill="black"/>
<rect x="71.9119" y="109.853" width="85.5882" height="46.7647" rx="5.73529" fill="white"/>
<rect x="71.9119" y="109.853" width="85.5882" height="46.7647" rx="5.73529" stroke="black" stroke-width="2.64706"/>
<path d="M115.941 143.735V125.626H126.392V127.553H118.239V133.235H125.107V135.187H118.239V141.784H126.664V143.735H115.941ZM130.466 143.735V125.626H132.837L139.434 137.04L141.361 140.771H141.484C141.361 138.942 141.188 136.916 141.188 135.039V125.626H143.362V143.735H141.015L134.419 132.296L132.467 128.566H132.368C132.467 130.394 132.64 132.321 132.64 134.224V143.735H130.466Z" fill="black"/>
<path d="M107.647 128.614H90.1416M107.647 143.836H90.1416M95.9766 133.609H90.1416M95.9766 138.841H90.1416M101.423 140.031H106.091C106.635 140.031 106.908 140.031 107.116 139.927C107.299 139.836 107.447 139.69 107.541 139.511C107.647 139.308 107.647 139.041 107.647 138.508V133.942C107.647 133.409 107.647 133.143 107.541 132.939C107.447 132.76 107.299 132.615 107.116 132.524C106.908 132.42 106.635 132.42 106.091 132.42H101.423C100.878 132.42 100.606 132.42 100.398 132.524C100.215 132.615 100.066 132.76 99.9726 132.939C99.8666 133.143 99.8666 133.409 99.8666 133.942V138.508C99.8666 139.041 99.8666 139.308 99.9726 139.511C100.066 139.69 100.215 139.836 100.398 139.927C100.606 140.031 100.878 140.031 101.423 140.031Z" stroke="black" stroke-width="1.52217" stroke-linecap="round" stroke-linejoin="round"/>
<path d="M88.9626 122.488L90.2165 125.748C90.4204 126.278 90.5223 126.543 90.6809 126.766C90.8214 126.964 90.994 127.136 91.1916 127.277C91.4146 127.435 91.6797 127.537 92.2098 127.741L95.4699 128.995L92.2098 130.249C91.6797 130.453 91.4146 130.555 91.1916 130.713C90.994 130.854 90.8214 131.026 90.6809 131.224C90.5223 131.447 90.4204 131.712 90.2165 132.242L88.9626 135.502L87.7087 132.242C87.5048 131.712 87.4029 131.447 87.2443 131.224C87.1038 131.026 86.9312 130.854 86.7336 130.713C86.5106 130.555 86.2455 130.453 85.7154 130.249L82.4553 128.995L85.7154 127.741C86.2455 127.537 86.5106 127.435 86.7336 127.277C86.9312 127.136 87.1038 126.964 87.2443 126.766C87.4029 126.543 87.5048 126.278 87.7087 125.748L88.9626 122.488Z" fill="white"/>
<path d="M82.8169 136.225V132.61M82.8169 125.38V121.765M81.0093 123.572H84.6244M81.0093 134.418H84.6244M88.9626 122.488L87.7087 125.748C87.5048 126.278 87.4029 126.543 87.2443 126.766C87.1038 126.964 86.9312 127.136 86.7336 127.277C86.5106 127.435 86.2455 127.537 85.7154 127.741L82.4553 128.995L85.7154 130.249C86.2455 130.453 86.5106 130.555 86.7336 130.713C86.9312 130.854 87.1038 131.026 87.2443 131.224C87.4029 131.447 87.5048 131.712 87.7087 132.242L88.9626 135.502L90.2165 132.242C90.4204 131.712 90.5223 131.447 90.6809 131.224C90.8214 131.026 90.994 130.854 91.1916 130.713C91.4146 130.555 91.6797 130.453 92.2098 130.249L95.4699 128.995L92.2098 127.741C91.6797 127.537 91.4146 127.435 91.1916 127.277C90.994 127.136 90.8214 126.964 90.6809 126.766C90.5223 126.543 90.4204 126.278 90.2165 125.748L88.9626 122.488Z" stroke="black" stroke-width="1.52217" stroke-linecap="round" stroke-linejoin="round"/>
<rect x="312.794" y="24.2647" width="142.941" height="156.176" rx="5.73529" fill="white"/>
<rect x="312.794" y="24.2647" width="142.941" height="156.176" rx="5.73529" stroke="black" stroke-width="2.64706"/>
<rect width="112.059" height="57.3529" transform="translate(328.235 41.9118)" fill="#E0E0E0"/>
<rect x="327.382" y="106.324" width="24.7059" height="24.7059" rx="12.3529" fill="black"/>
<path d="M339.395 114.847L338.629 113.911L340.927 109.741L345.437 115.188L345.181 115.613L339.395 114.847Z" fill="white"/>
<path d="M344.926 116.209L337.863 115.358L335.651 119.528L342.629 120.464L344.926 116.209Z" fill="white"/>
<path d="M335.14 120.208L334.034 122.166L338.544 127.612L340.926 123.357L338.629 120.634L335.14 120.208Z" fill="white"/>
<path d="M362.911 125.383C361.434 125.383 360.386 124.748 359.703 123.541L360.751 122.794C361.275 123.715 361.926 124.096 362.768 124.096C364.023 124.096 364.642 123.382 364.642 121.619V113.519H366.103V121.762C366.103 123.763 365.182 125.383 362.911 125.383ZM371.267 118.665L370.696 120.444H374.221L373.666 118.665C373.237 117.346 372.871 116.076 372.49 114.726H372.427C372.061 116.092 371.68 117.346 371.267 118.665ZM367.71 125.176L371.664 113.519H373.3L377.255 125.176H375.698L374.587 121.619H370.33L369.203 125.176H367.71ZM382.9 120.523L383.154 121.571C381.502 122.349 379.708 123.144 378.342 123.747L377.881 122.588C378.469 122.365 379.215 122.064 380.025 121.73V116.806H378.103V115.679H380.025V112.074H381.137V115.679H382.932V116.806H381.137V121.269L382.9 120.523ZM384.726 116.679V118.696H387.109V116.679H384.726ZM384.726 113.694V115.695H387.109V113.694H384.726ZM390.635 115.695V113.694H388.189V115.695H390.635ZM390.635 118.696V116.679H388.189V118.696H390.635ZM388.284 124.795H392.556V125.891H382.233V124.795H387.045V122.619H383.456V121.539H387.045V119.729H383.646V112.677H391.762V119.729H388.284V121.539H392.032V122.619H388.284V124.795ZM403.817 112.884C403.706 113.281 403.61 113.821 403.547 114.122C403.468 114.472 403.388 114.837 403.293 115.218C405.834 115.631 407.581 117.585 407.581 120.316C407.581 123.477 405.31 125.399 401.911 125.875L401.165 124.748C404.484 124.462 406.326 122.715 406.326 120.269C406.326 118.204 405.04 116.648 402.991 116.298C402.388 118.315 401.578 120.396 400.672 121.698C400.99 122.111 401.323 122.492 401.657 122.81L400.656 123.636C400.402 123.35 400.148 123.048 399.91 122.715C398.925 123.906 397.956 124.7 396.765 124.7C395.558 124.7 394.558 123.699 394.558 121.841C394.558 120.015 395.558 118.093 397.003 116.918C396.829 116.425 396.67 115.933 396.527 115.456C396.384 114.964 396.193 114.44 396.003 114.027L397.321 113.598C397.4 114.043 397.528 114.567 397.639 115.012C397.734 115.377 397.877 115.806 398.02 116.251C399.37 115.456 400.72 115.139 402.102 115.123C402.197 114.726 402.292 114.345 402.356 113.964C402.403 113.646 402.451 113.122 402.451 112.756L403.817 112.884ZM395.701 121.746C395.701 122.794 396.178 123.445 396.892 123.445C397.67 123.445 398.512 122.651 399.211 121.714C399.084 121.524 398.973 121.317 398.846 121.111C398.385 120.396 397.877 119.268 397.416 118.061C396.368 119.046 395.701 120.507 395.701 121.746ZM399.624 120.11C399.719 120.285 399.83 120.459 399.942 120.634C400.625 119.506 401.308 117.855 401.8 116.219C400.561 116.282 399.433 116.664 398.385 117.315C398.782 118.411 399.243 119.475 399.624 120.11ZM415.522 112.693H419.382C419.763 117.537 421.002 121.285 424.178 122.921C423.892 123.112 423.479 123.525 423.241 123.811C421.018 122.508 419.731 120.269 419.016 117.378C418.19 120.221 416.84 122.381 414.808 123.811C414.617 123.588 414.156 123.128 413.886 122.937C416.205 121.46 417.539 118.982 418.175 115.742L418.683 115.822C418.572 115.171 418.492 114.504 418.413 113.805H415.522V112.693ZM413.712 114.726L412.775 115.504C412.282 114.742 411.107 113.694 410.075 112.995L410.948 112.28C411.965 112.947 413.156 113.964 413.712 114.726ZM413.267 118.109V123.175C414.013 124.335 415.395 124.875 417.222 124.954C418.953 125.018 422.479 124.97 424.337 124.843C424.21 125.129 424.003 125.685 423.956 126.05C422.225 126.114 418.969 126.145 417.222 126.082C415.157 126.002 413.743 125.431 412.727 124.208C411.965 124.875 411.17 125.558 410.329 126.241L409.693 125.049C410.424 124.573 411.313 123.906 412.108 123.239V119.221H409.9V118.109H413.267ZM428.498 113.535C428.911 113.566 429.372 113.582 429.689 113.582C430.531 113.582 432.612 113.471 433.279 113.424C433.58 113.392 433.866 113.328 434.073 113.249L434.867 113.9C434.724 114.075 434.581 114.234 434.454 114.424C434.009 115.139 433.31 116.759 432.643 118.236C434.248 118.411 435.725 118.919 437.011 119.506C437.075 119.109 437.106 118.712 437.138 118.331C437.154 117.855 437.17 117.315 437.138 116.87L438.425 117.013C438.377 118.141 438.266 119.157 438.091 120.078C438.853 120.507 439.505 120.936 440.013 121.301L439.425 122.667C438.949 122.254 438.393 121.825 437.773 121.412C437.122 123.477 435.899 124.986 433.596 126.129L432.548 125.256C435.058 124.192 436.201 122.492 436.709 120.777C435.375 120.031 433.819 119.459 432.167 119.316C431.548 120.714 430.769 122.588 430.166 123.477C429.594 124.287 428.99 124.573 428.165 124.573C426.989 124.573 426.1 123.731 426.1 122.397C426.1 120.062 428.26 118.268 431.389 118.188C431.945 116.934 432.548 115.552 433.04 114.567C432.405 114.599 430.468 114.678 429.737 114.726C429.388 114.742 428.943 114.789 428.562 114.821L428.498 113.535ZM427.259 122.238C427.259 122.937 427.704 123.318 428.212 123.318C428.578 123.318 428.832 123.175 429.165 122.762C429.737 122.016 430.34 120.539 430.896 119.3C428.578 119.475 427.259 120.872 427.259 122.238Z" fill="black"/>
<rect x="325.882" y="138.088" width="24.7059" height="24.7059" rx="12.3529" fill="black"/>
<path d="M337.895 146.612L337.129 145.676L339.427 141.506L343.937 146.952L343.681 147.378L337.895 146.612Z" fill="white"/>
<path d="M343.426 147.974L336.363 147.123L334.151 151.292L341.129 152.228L343.426 147.974Z" fill="white"/>
<path d="M333.64 151.973L332.534 153.93L337.044 159.376L339.426 155.122L337.129 152.399L333.64 151.973Z" fill="white"/>
<path d="M359.235 156.941V145.284H365.953V146.538H360.712V150.191H365.128V151.446H360.712V155.686H366.128V156.941H359.235ZM368.572 156.941V145.284H370.097L374.338 152.637L375.576 155.035H375.656C375.576 153.86 375.465 152.558 375.465 151.351V145.284H376.863V156.941H375.354L371.113 149.588L369.859 147.189H369.795C369.859 148.365 369.97 149.604 369.97 150.826V156.941H368.572ZM384.037 152.288L384.291 153.336C382.639 154.114 380.844 154.908 379.478 155.512L379.018 154.352C379.605 154.13 380.352 153.828 381.162 153.495V148.571H379.24V147.444H381.162V143.838H382.274V147.444H384.068V148.571H382.274V153.034L384.037 152.288ZM385.863 148.444V150.461H388.245V148.444H385.863ZM385.863 145.458V147.459H388.245V145.458H385.863ZM391.771 147.459V145.458H389.325V147.459H391.771ZM391.771 150.461V148.444H389.325V150.461H391.771ZM389.421 156.56H393.693V157.656H383.37V156.56H388.182V154.384H384.593V153.304H388.182V151.494H384.783V144.442H392.899V151.494H389.421V153.304H393.169V154.384H389.421V156.56ZM404.954 144.648C404.843 145.045 404.747 145.585 404.684 145.887C404.604 146.236 404.525 146.602 404.43 146.983C406.971 147.396 408.718 149.349 408.718 152.081C408.718 155.242 406.447 157.164 403.048 157.64L402.301 156.512C405.621 156.226 407.463 154.479 407.463 152.034C407.463 149.969 406.177 148.412 404.128 148.063C403.524 150.08 402.714 152.161 401.809 153.463C402.127 153.876 402.46 154.257 402.794 154.575L401.793 155.401C401.539 155.115 401.285 154.813 401.047 154.479C400.062 155.671 399.093 156.465 397.902 156.465C396.695 156.465 395.694 155.464 395.694 153.606C395.694 151.779 396.695 149.858 398.14 148.682C397.965 148.19 397.807 147.698 397.664 147.221C397.521 146.729 397.33 146.205 397.14 145.792L398.458 145.363C398.537 145.808 398.664 146.332 398.775 146.776C398.871 147.142 399.014 147.571 399.157 148.015C400.507 147.221 401.857 146.904 403.238 146.888C403.334 146.491 403.429 146.109 403.493 145.728C403.54 145.411 403.588 144.886 403.588 144.521L404.954 144.648ZM396.838 153.511C396.838 154.559 397.314 155.21 398.029 155.21C398.807 155.21 399.649 154.416 400.348 153.479C400.221 153.288 400.11 153.082 399.983 152.875C399.522 152.161 399.014 151.033 398.553 149.826C397.505 150.811 396.838 152.272 396.838 153.511ZM400.761 151.875C400.856 152.049 400.967 152.224 401.078 152.399C401.761 151.271 402.444 149.619 402.937 147.984C401.698 148.047 400.57 148.428 399.522 149.079C399.919 150.175 400.38 151.239 400.761 151.875ZM416.659 144.458H420.518C420.9 149.302 422.138 153.05 425.315 154.686C425.029 154.876 424.616 155.289 424.378 155.575C422.154 154.273 420.868 152.034 420.153 149.143C419.327 151.986 417.977 154.146 415.944 155.575C415.754 155.353 415.293 154.892 415.023 154.702C417.342 153.225 418.676 150.747 419.311 147.507L419.82 147.586C419.708 146.935 419.629 146.268 419.55 145.569H416.659V144.458ZM414.848 146.491L413.911 147.269C413.419 146.506 412.244 145.458 411.211 144.759L412.085 144.045C413.101 144.712 414.292 145.728 414.848 146.491ZM414.404 149.874V154.94C415.15 156.099 416.532 156.639 418.358 156.719C420.09 156.782 423.615 156.735 425.474 156.608C425.347 156.894 425.14 157.449 425.093 157.815C423.361 157.878 420.105 157.91 418.358 157.846C416.294 157.767 414.88 157.195 413.864 155.972C413.101 156.639 412.307 157.322 411.465 158.005L410.83 156.814C411.561 156.338 412.45 155.671 413.244 155.004V150.985H411.037V149.874H414.404ZM429.635 145.299C430.048 145.331 430.508 145.347 430.826 145.347C431.668 145.347 433.748 145.236 434.415 145.188C434.717 145.156 435.003 145.093 435.21 145.014L436.004 145.665C435.861 145.839 435.718 145.998 435.591 146.189C435.146 146.904 434.447 148.524 433.78 150.001C435.384 150.175 436.861 150.684 438.148 151.271C438.211 150.874 438.243 150.477 438.275 150.096C438.291 149.619 438.307 149.079 438.275 148.635L439.561 148.778C439.514 149.905 439.402 150.922 439.228 151.843C439.99 152.272 440.641 152.701 441.15 153.066L440.562 154.432C440.085 154.019 439.53 153.59 438.91 153.177C438.259 155.242 437.036 156.751 434.733 157.894L433.685 157.021C436.194 155.956 437.338 154.257 437.846 152.542C436.512 151.795 434.955 151.224 433.304 151.081C432.684 152.478 431.906 154.352 431.302 155.242C430.731 156.052 430.127 156.338 429.301 156.338C428.126 156.338 427.237 155.496 427.237 154.162C427.237 151.827 429.397 150.032 432.525 149.953C433.081 148.698 433.685 147.316 434.177 146.332C433.542 146.364 431.604 146.443 430.874 146.491C430.524 146.506 430.08 146.554 429.698 146.586L429.635 145.299ZM428.396 154.003C428.396 154.702 428.841 155.083 429.349 155.083C429.714 155.083 429.968 154.94 430.302 154.527C430.874 153.781 431.477 152.304 432.033 151.065C429.714 151.239 428.396 152.637 428.396 154.003Z" fill="black"/>
<g clip-path="url(#clip0_177_185)">
<circle cx="311.47" cy="22.9412" r="21.1765" fill="white"/>
<path d="M311.471 0C298.817 0.000716912 288.532 10.2878 288.529 22.9408C288.532 35.5931 298.817 45.8801 311.471 45.8824C324.123 45.8801 334.41 35.5931 334.412 22.9408C334.41 10.2878 324.123 0.000716912 311.471 0ZM326.233 37.7024C322.446 41.4878 317.231 43.8279 311.471 43.8286C305.71 43.8279 300.494 41.4878 296.709 37.7024C292.923 33.917 290.584 28.7001 290.583 22.9408C290.584 17.1808 292.923 11.9653 296.709 8.17862C300.494 4.39467 305.71 2.05458 311.471 2.05377C317.231 2.05449 322.446 4.39467 326.233 8.17853C330.017 11.9653 332.357 17.18 332.358 22.9407C332.357 28.7001 330.017 33.917 326.233 37.7024Z" fill="black"/>
<path d="M294.984 15.5802H294.855C293.857 17.8311 293.298 20.3194 293.298 22.9408C293.298 30.0935 297.43 36.2773 303.437 39.2432L294.985 15.5802H294.984Z" fill="black"/>
<path d="M321.791 16.3449C320.224 14.1537 320.457 9.67422 323.338 9.1835C320.153 6.43486 316.007 4.76804 311.471 4.76804C305.028 4.76804 299.373 8.12247 296.146 13.1789H302.798V15.5801H300.116L306.324 32.9551L310.678 21.3157L308.628 15.5801H305.527V13.1788H316.659V15.5801H313.759L320.019 33.1061L323.192 24.6312C323.754 22.3467 323.425 18.6368 321.791 16.3449Z" fill="black"/>
<path d="M328.364 16.245C328.357 16.314 328.35 16.3838 328.34 16.4514C327.9 19.4015 325.168 25.8723 325.168 25.8723L321.212 36.4464L320.33 38.8073C325.886 35.699 329.644 29.7612 329.644 22.9408C329.644 20.5748 329.187 18.3175 328.364 16.245Z" fill="black"/>
<path d="M307.515 36.2903L306.022 40.2814C307.743 40.8223 309.572 41.1137 311.471 41.1137C313.547 41.1137 315.539 40.7619 317.397 40.1202L311.87 24.648L307.515 36.2903Z" fill="black"/>
</g>
<g clip-path="url(#clip1_177_185)">
<path d="M165.451 210.906L164.275 212.297C163.707 211.768 163.139 211.729 162.884 211.729C162.316 211.729 161.963 212.003 161.963 212.415C161.963 212.63 162.061 212.963 162.727 213.179L163.295 213.355C163.962 213.571 164.961 213.904 165.451 214.57C165.706 214.923 165.882 215.433 165.882 215.981C165.882 216.746 165.627 217.51 164.942 218.137C164.256 218.764 163.433 219.039 162.394 219.039C160.63 219.039 159.631 218.196 159.102 217.628L160.356 216.177C160.826 216.726 161.532 217.157 162.237 217.157C162.903 217.157 163.413 216.824 163.413 216.236C163.413 215.707 162.982 215.491 162.668 215.374L162.12 215.178C161.512 214.962 160.807 214.688 160.297 214.159C159.905 213.747 159.65 213.218 159.65 212.532C159.65 211.709 160.042 211.023 160.532 210.612C161.198 210.083 162.061 210.004 162.747 210.004C163.374 210.004 164.373 210.083 165.451 210.906Z" fill="black"/>
<path d="M148.2 218.764V210.279H150.591V211.376C151.042 210.749 151.845 210.004 153.217 210.004C153.962 210.004 155.059 210.22 155.726 211.043C156.313 211.768 156.392 212.611 156.392 213.434V218.764H154.001V214.139C154.001 213.669 153.981 212.924 153.55 212.473C153.178 212.082 152.668 212.042 152.433 212.042C151.806 212.042 151.316 212.258 150.963 212.787C150.611 213.336 150.591 213.943 150.591 214.433V218.764H148.2Z" fill="black"/>
<path d="M140.511 210.004C142.118 210.004 143.215 210.533 143.941 211.2C144.783 211.964 145.371 213.14 145.371 214.531C145.371 215.923 144.783 217.079 143.941 217.843C143.215 218.509 142.118 219.039 140.511 219.039C138.904 219.039 137.807 218.509 137.081 217.843C136.239 217.079 135.651 215.903 135.651 214.531C135.651 213.159 136.239 211.964 137.081 211.2C137.807 210.533 138.904 210.004 140.511 210.004ZM140.511 216.922C141.902 216.922 142.902 215.825 142.902 214.531C142.902 213.238 141.883 212.121 140.511 212.121C139.139 212.121 138.12 213.199 138.12 214.531C138.12 215.864 139.12 216.922 140.511 216.922Z" fill="black"/>
<path d="M130.433 210.279H132.824V218.764H130.433V210.279ZM130.198 206.692C130.198 205.908 130.844 205.262 131.628 205.262C132.412 205.262 133.059 205.908 133.059 206.692C133.059 207.476 132.412 208.123 131.628 208.123C130.844 208.123 130.198 207.476 130.198 206.692Z" fill="black"/>
<path d="M128.209 212.317H126.563V218.764H124.172V212.317H123.231V210.279H124.172V207.378H126.563V210.279H128.209V212.317Z" fill="black"/>
<path d="M121.198 210.514V212.865C120.688 212.395 120.061 212.121 119.238 212.121C117.651 212.121 116.847 213.277 116.847 214.512C116.847 215.903 117.886 216.922 119.316 216.922C119.846 216.922 120.551 216.765 121.198 216.177V218.509C120.727 218.745 119.983 219.039 119.003 219.039C117.67 219.039 116.494 218.529 115.73 217.804C115.083 217.196 114.378 216.138 114.378 214.551C114.378 213.061 114.985 211.866 115.848 211.102C116.886 210.181 118.082 210.004 118.905 210.004C119.787 210.004 120.512 210.181 121.198 210.514Z" fill="black"/>
<path d="M109.724 216.04L111.919 216.393C111.664 217.02 110.704 219.039 107.744 219.039C106.373 219.039 105.334 218.647 104.491 217.843C103.551 216.961 103.159 215.864 103.159 214.531C103.159 212.846 103.845 211.807 104.452 211.2C105.452 210.22 106.627 210.004 107.646 210.004C109.371 210.004 110.371 210.69 110.958 211.396C111.86 212.473 111.977 213.806 111.977 214.727V214.923H105.628C105.628 215.433 105.765 215.981 106.04 216.354C106.294 216.706 106.823 217.157 107.744 217.157C108.666 217.157 109.332 216.726 109.724 216.04ZM105.706 213.395H109.724C109.528 212.238 108.587 211.69 107.705 211.69C106.823 211.69 105.902 212.258 105.706 213.395Z" fill="black"/>
<path d="M97.9409 204.478H100.332V218.764H97.9409V204.478Z" fill="black"/>
<path d="M92.2915 204.478H94.6824V218.764H92.2915V204.478Z" fill="black"/>
<path d="M84.6023 210.004C86.2093 210.004 87.3068 210.533 88.0319 211.2C88.8745 211.964 89.4625 213.14 89.4625 214.531C89.4625 215.923 88.8745 217.079 88.0319 217.843C87.3068 218.509 86.2093 219.039 84.6023 219.039C82.9953 219.039 81.8979 218.509 81.1728 217.843C80.3301 217.079 79.7422 215.903 79.7422 214.531C79.7422 213.159 80.3301 211.964 81.1728 211.2C81.8979 210.533 82.9953 210.004 84.6023 210.004ZM84.6023 216.922C85.9937 216.922 86.9932 215.825 86.9932 214.531C86.9932 213.238 85.9741 212.121 84.6023 212.121C83.2305 212.121 82.2115 213.199 82.2115 214.531C82.2115 215.864 83.2109 216.922 84.6023 216.922Z" fill="black"/>
<path d="M77.204 215.315V218.294C76.4201 218.705 75.3815 219.058 73.9705 219.058C71.6776 219.058 70.2862 218.274 69.1887 217.236C67.6797 215.785 67.0918 214.159 67.0918 212.238C67.0918 209.867 68.0717 208.162 69.1887 207.123C70.5017 205.889 72.1283 205.399 73.9901 205.399C74.9111 205.399 76.0086 205.556 77.204 206.202V209.181C76.0086 207.809 74.5192 207.711 74.0489 207.711C71.4228 207.711 69.7178 209.867 69.7178 212.277C69.7178 215.178 71.9519 216.746 74.1468 216.746C75.3619 216.746 76.4397 216.217 77.204 215.315Z" fill="black"/>
<path d="M50.0696 206.761L48.9673 205.413L52.2743 199.412L58.766 207.251L58.3985 207.863L50.0696 206.761Z" fill="black"/>
<path d="M58.0309 208.721L47.8647 207.496L44.6802 213.497L54.7238 214.845L58.0309 208.721Z" fill="black"/>
<path d="M43.9453 214.477L42.353 217.294L48.8446 225.133L52.2742 219.009L48.9671 215.09L43.9453 214.477Z" fill="black"/>
</g>
<path d="M170.513 208.924C171.049 208.91 171.501 208.882 171.783 208.854C172.687 208.755 175.355 208.501 177.953 208.275C179.506 208.148 180.819 208.063 181.765 208.035L181.779 209.164C180.96 209.15 179.732 209.178 179.012 209.376C176.993 210.026 175.765 212.186 175.765 213.851C175.765 216.604 178.348 217.494 180.635 217.578L180.226 218.736C177.614 218.637 174.649 217.254 174.649 214.091C174.649 211.903 175.99 210.096 177.275 209.334C175.765 209.489 172.165 209.842 170.64 210.167L170.513 208.924ZM179.732 210.887C180.056 211.353 180.593 212.228 180.903 212.863L180.169 213.188C179.845 212.51 179.449 211.79 179.026 211.197L179.732 210.887ZM181.27 210.294C181.623 210.76 182.174 211.621 182.499 212.242L181.779 212.595C181.44 211.917 181.016 211.211 180.579 210.618L181.27 210.294Z" fill="black"/>
<path d="M46.7824 236.504L47.6648 235.727C48.9883 236.345 50.6119 237.333 51.406 238.075L50.4707 238.939C49.7119 238.198 48.106 237.157 46.7824 236.504ZM54.9354 234.104H55.2001L55.4295 234.033L56.2942 234.563C54.0001 238.675 48.7766 241.145 44.1177 242.169C43.9942 241.833 43.7295 241.286 43.4824 241.004C47.9295 240.175 53.0119 237.792 54.9354 234.316V234.104ZM49.0413 234.104H55.2707V235.216H49.0413V234.104ZM50.3471 232.586L51.8295 232.904C50.206 234.775 47.806 236.522 44.5236 237.827C44.3295 237.51 43.9236 237.069 43.6236 236.839C46.8001 235.727 49.1295 234.069 50.3471 232.586ZM49.0413 242.98L50.0119 242.222C51.406 242.945 53.1001 244.057 53.9471 244.904L52.906 245.751C52.1119 244.922 50.4354 243.739 49.0413 242.98ZM57.5119 240.28H57.7766L58.0236 240.21L58.8883 240.686C56.6648 245.839 51.1589 248.045 45.3883 248.892C45.3001 248.522 45.0354 247.975 44.8236 247.675C50.2766 247.022 55.606 244.922 57.5119 240.475V240.28ZM51.7766 240.28H57.8648V241.41H51.7766V240.28ZM53.206 238.622L54.6707 238.957C52.8883 241.039 50.1001 242.963 46.2354 244.322C46.0766 244.022 45.6883 243.545 45.406 243.298C49.1471 242.133 51.8295 240.298 53.206 238.622ZM64.2001 246.951H73.5354V248.08H64.2001V246.951ZM63.6707 240.845H73.9589V241.939H63.6707V240.845ZM63.6707 238.445H73.9589V239.539H63.6707V238.445ZM60.953 235.975H76.7824V237.139H60.953V235.975ZM63.953 233.592H73.7119V234.669H63.953V233.592ZM63.4766 243.28H74.206V248.786H72.8471V244.427H64.7648V248.839H63.4766V243.28ZM86.1001 242.486H93.5648V248.769H92.2766V243.704H87.353V248.839H86.1001V242.486ZM85.6236 236.239H93.0883V240.563H91.8001V237.404H85.6236V236.239ZM88.1648 233.716L89.4707 233.822C89.153 235.992 88.6589 238.886 88.2883 240.563H86.9824C87.3883 238.816 87.8824 235.851 88.1648 233.716ZM85.3413 233.275H94.0766V234.422H85.3413V233.275ZM84.8119 239.963H94.6413V241.145H84.8119V239.963ZM86.6648 246.827H92.9824V248.027H86.6648V246.827ZM79.1471 238.057H84.1236V239.098H79.1471V238.057ZM79.253 233.239H84.106V234.298H79.253V233.239ZM79.1471 240.457H84.1236V241.516H79.1471V240.457ZM78.3177 235.604H84.7413V236.698H78.3177V235.604ZM79.7824 242.875H84.1942V248.027H79.7824V246.933H83.0295V243.986H79.7824V242.875ZM79.1295 242.875H80.2766V248.839H79.1295V242.875ZM104.577 239.363H110.665V240.616H104.577V239.363ZM103.994 239.363H105.318V246.563C105.318 247.251 105.512 247.392 106.482 247.392C106.941 247.392 109.235 247.392 109.835 247.392C110.788 247.392 110.929 246.933 111.035 244.48C111.353 244.71 111.918 244.939 112.288 245.027C112.094 247.869 111.688 248.663 109.924 248.663C109.482 248.663 106.782 248.663 106.377 248.663C104.541 248.663 103.994 248.239 103.994 246.545V239.363ZM103.8 233.61H111.353V241.604H110.012V234.863H103.8V233.61ZM96.7942 237.951H102.3V239.01H96.7942V237.951ZM96.9001 233.239H102.371V234.298H96.9001V233.239ZM96.7942 240.316H102.3V241.375H96.7942V240.316ZM95.9648 235.551H102.988V236.645H95.9648V235.551ZM97.4119 242.698H102.247V247.851H97.4119V246.739H101.065V243.792H97.4119V242.698ZM96.7766 242.698H97.9589V248.663H96.7766V242.698ZM121.024 232.604H122.365V247.357C122.365 248.186 122.135 248.504 121.588 248.698C121.024 248.875 120.106 248.892 118.624 248.892C118.553 248.575 118.341 248.08 118.165 247.78C119.224 247.816 120.282 247.798 120.6 247.798C120.918 247.78 121.024 247.675 121.024 247.357V232.604ZM114.124 234.016H129.441V235.11H114.124V234.016ZM117.229 237.086V238.357H126.335V237.086H117.229ZM115.977 236.169H127.677V239.292H115.977V236.169ZM115.465 240.527H127.941V246.951H126.618V241.516H115.465V240.527ZM113.788 242.733H129.777V243.792H113.788V242.733ZM115.288 245.133H127.306V246.157H115.288V245.133ZM138.706 233.486C138.547 234.175 138.353 235.145 137.894 236.327C137.453 237.404 136.8 238.586 136.094 239.504C136.782 239.098 137.788 238.851 138.565 238.851C139.924 238.851 140.982 239.663 140.982 241.092C140.982 242.01 141.018 244.039 141.035 245.133H139.677C139.747 244.198 139.765 242.38 139.747 241.463C139.729 240.439 139.024 239.963 138.106 239.963C136.977 239.963 135.865 240.527 135.053 241.251C134.541 241.745 134.047 242.38 133.465 243.104L132.247 242.204C134.788 239.769 135.971 237.722 136.571 236.222C136.959 235.251 137.206 234.192 137.259 233.363L138.706 233.486ZM132.653 235.392C133.606 235.516 134.824 235.569 135.635 235.569C138.018 235.569 141.071 235.427 143.559 234.986V236.292C141.088 236.663 137.806 236.822 135.565 236.822C134.806 236.822 133.641 236.786 132.653 236.716V235.392ZM146.135 239.645C145.694 239.786 145.059 240.033 144.582 240.21C143.329 240.704 141.653 241.375 139.941 242.257C138.194 243.175 136.959 244.127 136.959 245.345C136.959 246.722 138.318 246.933 140.135 246.933C141.512 246.933 143.418 246.775 144.971 246.492L144.918 247.922C143.577 248.08 141.618 248.222 140.082 248.222C137.577 248.222 135.547 247.675 135.547 245.539C135.547 243.386 137.735 242.063 139.835 240.986C141.512 240.122 142.941 239.575 144.106 239.027C144.635 238.78 145.077 238.586 145.571 238.339L146.135 239.645ZM156.829 235.569H165.194V236.839H156.212L156.829 235.569ZM159.035 239.398H164.788V240.616H159.035V239.398ZM159.018 243.28H165.035V244.533H159.018V243.28ZM158.365 235.975H159.724V248.839H158.365V235.975ZM157.5 232.816L158.788 233.151C157.782 235.957 156.247 238.727 154.624 240.545C154.429 240.316 153.9 239.839 153.6 239.627C155.206 237.986 156.635 235.41 157.5 232.816ZM153.265 232.675L154.535 233.08C153.371 236.063 151.553 239.08 149.629 241.057C149.506 240.739 149.1 240.033 148.853 239.716C150.618 238.004 152.259 235.357 153.265 232.675ZM151.377 237.227L152.682 235.904L152.718 235.922V248.822H151.377V237.227ZM168.882 239.222H173.277V240.457H168.882V239.222ZM172.747 239.222H174.035C174.035 239.222 174.035 239.61 174.035 239.786C173.947 243.775 173.841 245.257 173.471 245.751C173.188 246.069 172.906 246.192 172.412 246.245C171.953 246.298 171.159 246.28 170.294 246.245C170.259 245.857 170.118 245.345 169.924 245.01C170.718 245.08 171.494 245.08 171.794 245.08C172.041 245.08 172.218 245.063 172.341 244.904C172.606 244.586 172.694 243.263 172.747 239.451V239.222ZM177.724 233.504L178.518 232.675C179.612 233.239 181.006 234.086 181.694 234.704L180.865 235.604C180.194 234.986 178.835 234.086 177.724 233.504ZM180.247 238.286L181.571 238.604C180.071 243.21 177.441 246.616 173.824 248.751C173.629 248.486 173.135 247.939 172.853 247.675C176.435 245.769 178.924 242.539 180.247 238.286ZM168.988 235.604H182.647V236.91H168.988V235.604ZM168.141 235.604H169.518V240.58C169.518 243.086 169.235 246.651 167.629 248.963C167.4 248.698 166.835 248.239 166.518 248.08C167.982 245.91 168.141 242.875 168.141 240.563V235.604ZM175.465 232.639H176.841C176.806 240.757 178.535 247.375 180.829 247.375C181.324 247.375 181.553 246.457 181.659 244.11C181.959 244.41 182.453 244.71 182.806 244.833C182.559 247.851 182.065 248.716 180.724 248.716C177.124 248.716 175.535 241.092 175.465 232.639Z" fill="black"/>
<path d="M316.235 211.547C316.235 216.241 315.229 218.659 311.188 220.459L310.006 219.347C313.218 218.112 314.823 216.594 314.823 211.653V210.912H309.794V213.771C309.794 214.424 309.847 215.2 309.865 215.376H308.312C308.329 215.2 308.382 214.441 308.382 213.771V210.912H306.476C305.718 210.912 304.923 210.965 304.712 210.982V209.447C304.87 209.482 305.735 209.571 306.476 209.571H308.382V207.312C308.382 206.941 308.365 206.429 308.312 206.024H309.882C309.865 206.2 309.794 206.694 309.794 207.312V209.571H314.823V207.365C314.823 206.676 314.77 206.094 314.735 205.918H316.323C316.306 206.094 316.235 206.676 316.235 207.365V209.571H318.176C318.953 209.571 319.553 209.518 319.8 209.482V210.965C319.606 210.947 318.953 210.912 318.176 210.912H316.235V211.547ZM322.694 213.276C325.747 212.447 328.447 211.212 330.406 209.976C332.241 208.829 334.006 207.294 335.223 205.829L336.406 206.924C335.065 208.318 333.441 209.659 331.641 210.859V218.306C331.641 218.976 331.676 219.841 331.747 220.194H330.018C330.07 219.859 330.123 218.976 330.123 218.306V211.776C328.27 212.835 325.853 213.894 323.4 214.653L322.694 213.276ZM344.77 218.094V207.824C344.77 207.329 344.735 206.535 344.629 205.988H346.359C346.306 206.535 346.235 207.294 346.235 207.824C346.235 208.565 346.235 209.588 346.235 210.7C348.565 211.406 351.918 212.676 353.77 213.612L353.17 215.112C351.247 214.071 348.194 212.888 346.235 212.271C346.253 214.918 346.253 217.582 346.253 218.094C346.253 218.641 346.288 219.594 346.359 220.176H344.647C344.735 219.612 344.77 218.747 344.77 218.094ZM366.265 208.441C365.576 207.771 364.429 206.694 363.67 206.129L364.676 205.406C365.259 205.847 366.6 206.959 367.27 207.647L366.265 208.441ZM360.653 206.924C360.776 207.206 361.076 207.788 361.27 208.106C361.588 208.688 361.941 209.394 362.294 210.135C364.429 209.2 366.812 208.247 368.647 208.247C371.082 208.247 372.582 209.641 372.582 211.565C372.582 213.594 371.276 215.129 368.523 215.129C367.535 215.129 366.547 214.882 365.876 214.635L365.929 213.259C366.618 213.559 367.5 213.824 368.435 213.824C370.359 213.824 371.17 212.765 371.17 211.494C371.17 210.453 370.341 209.5 368.612 209.5C367.059 209.5 364.888 210.329 362.841 211.282C363.07 211.776 363.3 212.271 363.512 212.747C364.482 214.935 365.594 218.218 366.194 220.159L364.676 220.565C364.129 218.482 363.282 215.641 362.276 213.329C362.047 212.818 361.835 212.324 361.606 211.865C360.247 212.518 359.012 213.153 358.2 213.524L357.529 212.076C358.041 211.953 358.659 211.724 358.976 211.6C359.576 211.371 360.3 211.053 361.076 210.7C360.706 209.924 360.37 209.253 360.07 208.759C359.841 208.406 359.488 207.859 359.206 207.506L360.653 206.924ZM377.312 219.647L374.576 206.694H376.253L377.612 213.753C377.859 215.147 378.123 216.541 378.37 217.935H378.441C378.741 216.541 379.059 215.147 379.376 213.753L381.159 206.694H382.659L384.459 213.753C384.776 215.129 385.076 216.524 385.376 217.935H385.465C385.712 216.524 385.959 215.129 386.206 213.753L387.565 206.694H389.135L386.453 219.647H384.494L382.535 211.847C382.306 210.824 382.112 209.888 381.9 208.9H381.829C381.618 209.888 381.388 210.824 381.176 211.847L379.253 219.647H377.312ZM394.957 219.876C392.61 219.876 390.51 218.041 390.51 214.865C390.51 211.671 392.61 209.818 394.957 209.818C397.305 209.818 399.405 211.671 399.405 214.865C399.405 218.041 397.305 219.876 394.957 219.876ZM394.957 218.535C396.616 218.535 397.746 217.071 397.746 214.865C397.746 212.659 396.616 211.159 394.957 211.159C393.299 211.159 392.187 212.659 392.187 214.865C392.187 217.071 393.299 218.535 394.957 218.535ZM401.936 219.647V210.065H403.259L403.401 211.812H403.454C404.124 210.594 405.095 209.818 406.171 209.818C406.595 209.818 406.895 209.871 407.195 210.029L406.895 211.441C406.577 211.318 406.348 211.282 405.959 211.282C405.165 211.282 404.177 211.847 403.542 213.488V219.647H401.936ZM411.853 219.876C409.453 219.876 407.9 218.059 407.9 214.865C407.9 211.759 409.859 209.818 412.047 209.818C413.176 209.818 413.9 210.241 414.747 210.947L414.676 209.288V205.6H416.265V219.647H414.959L414.817 218.518H414.765C414.006 219.259 413 219.876 411.853 219.876ZM412.206 218.535C413.088 218.535 413.865 218.094 414.676 217.212V212.182C413.847 211.459 413.123 211.176 412.329 211.176C410.776 211.176 409.559 212.659 409.559 214.847C409.559 217.159 410.512 218.535 412.206 218.535ZM419.672 219.647V206.694H423.378C426.272 206.694 428.214 207.682 428.214 210.506C428.214 213.241 426.29 214.512 423.449 214.512H421.314V219.647H419.672ZM421.314 213.188H423.237C425.514 213.188 426.59 212.359 426.59 210.506C426.59 208.635 425.443 208.035 423.167 208.035H421.314V213.188ZM430.681 219.647V210.065H432.005L432.146 211.812H432.199C432.87 210.594 433.84 209.818 434.917 209.818C435.34 209.818 435.64 209.871 435.94 210.029L435.64 211.441C435.322 211.318 435.093 211.282 434.705 211.282C433.911 211.282 432.922 211.847 432.287 213.488V219.647H430.681ZM441.198 219.876C438.657 219.876 436.61 218.024 436.61 214.865C436.61 211.759 438.71 209.818 440.933 209.818C443.369 209.818 444.745 211.582 444.745 214.318C444.745 214.671 444.71 215.006 444.675 215.235H438.216C438.322 217.282 439.575 218.588 441.392 218.588C442.328 218.588 443.086 218.306 443.792 217.829L444.375 218.888C443.528 219.435 442.504 219.876 441.198 219.876ZM438.198 214.071H443.333C443.333 212.147 442.451 211.106 440.951 211.106C439.592 211.106 438.392 212.2 438.198 214.071ZM449.611 219.876C448.252 219.876 446.946 219.312 446.028 218.553L446.822 217.494C447.652 218.165 448.517 218.624 449.664 218.624C450.934 218.624 451.552 217.953 451.552 217.124C451.552 216.135 450.422 215.712 449.364 215.306C448.022 214.812 446.558 214.159 446.558 212.535C446.558 211.018 447.793 209.818 449.875 209.818C451.058 209.818 452.099 210.312 452.84 210.894L452.064 211.935C451.411 211.441 450.74 211.088 449.893 211.088C448.675 211.088 448.111 211.724 448.111 212.465C448.111 213.382 449.099 213.718 450.175 214.124C451.569 214.653 453.105 215.218 453.105 217.035C453.105 218.588 451.869 219.876 449.611 219.876ZM457.866 219.876C456.507 219.876 455.201 219.312 454.283 218.553L455.077 217.494C455.907 218.165 456.771 218.624 457.918 218.624C459.189 218.624 459.807 217.953 459.807 217.124C459.807 216.135 458.677 215.712 457.618 215.306C456.277 214.812 454.813 214.159 454.813 212.535C454.813 211.018 456.048 209.818 458.13 209.818C459.313 209.818 460.354 210.312 461.095 210.894L460.318 211.935C459.666 211.441 458.995 211.088 458.148 211.088C456.93 211.088 456.366 211.724 456.366 212.465C456.366 213.382 457.354 213.718 458.43 214.124C459.824 214.653 461.36 215.218 461.36 217.035C461.36 218.588 460.124 219.876 457.866 219.876ZM470.038 207.735C471.962 208.053 475.526 207.982 477.291 207.718V209.147C475.403 209.359 471.979 209.359 470.038 209.147V207.735ZM470.726 214.918C470.55 215.571 470.462 216.065 470.462 216.541C470.462 217.353 471.044 218.129 473.444 218.129C475.032 218.129 476.391 217.988 477.82 217.671L477.856 219.153C476.744 219.365 475.262 219.524 473.444 219.524C470.479 219.524 469.156 218.535 469.156 216.876C469.156 216.276 469.262 215.659 469.456 214.794L470.726 214.918ZM466.667 206.376C466.579 206.676 466.42 207.241 466.35 207.559C466.014 209.182 465.467 212.341 465.467 214.318C465.467 215.182 465.52 215.924 465.626 216.788C465.926 215.994 466.35 214.935 466.65 214.212L467.391 214.776C466.932 216.029 466.297 217.9 466.138 218.729C466.085 218.994 466.032 219.329 466.05 219.524C466.067 219.718 466.085 219.965 466.103 220.141L464.832 220.229C464.479 218.976 464.179 216.947 464.179 214.565C464.179 211.971 464.762 208.953 464.973 207.488C465.044 207.082 465.097 206.624 465.097 206.235L466.667 206.376ZM310.641 233.494V234.553H305.188V233.494H310.641ZM309.335 243.959H306.247V246.924H309.335V243.959ZM310.518 242.882V247.982H306.247V248.794H305.082V242.882H310.518ZM305.1 241.576V240.518H310.57V241.576H305.1ZM305.1 239.229V238.188H310.57V239.229H305.1ZM304.27 236.882V235.806H311.223V236.882H304.27ZM314.7 247.559H318.035C318.988 247.559 319.129 247.1 319.235 244.647C319.553 244.894 320.1 245.106 320.47 245.194C320.276 248.018 319.87 248.794 318.123 248.794H314.594C312.776 248.794 312.229 248.388 312.229 246.729V239.582H318.229V235.118H312.035V233.882H319.535V241.806H318.229V240.835H313.553V246.729C313.553 247.418 313.729 247.559 314.7 247.559ZM334.835 245.318V243.994H330.6V245.318H334.835ZM330.6 241.718V242.953H334.835V241.718H330.6ZM325.5 238.594H329.294V237.324H325.5V238.594ZM334.553 237.324H330.6V238.594H334.553V237.324ZM337.959 242.953V243.994H336.141V247.118H334.835V246.324H330.6V247.541C330.6 248.353 330.353 248.653 329.823 248.847C329.276 249.041 328.359 249.059 326.894 249.059C326.823 248.724 326.612 248.247 326.435 247.947C327.494 247.982 328.553 247.965 328.853 247.965C329.188 247.947 329.294 247.841 329.294 247.541V246.324H323.594V245.318H329.294V243.994H322.076V242.953H329.294V241.718H323.753V240.747H329.294V239.512H324.247V236.406H329.294V235.382H322.412V234.306H329.294V232.894H330.6V234.306H337.623V235.382H330.6V236.406H335.859V239.512H330.6V240.747H336.141V242.953H337.959ZM354.847 241.471C354.847 245.176 352.412 247.647 348.229 248.194L347.4 246.888C347.965 246.835 348.512 246.747 348.918 246.659C351.176 246.147 353.4 244.471 353.4 241.418C353.4 238.753 351.688 236.547 348.688 236.3C348.459 237.941 348.123 239.741 347.629 241.382C346.553 245.018 345.159 246.871 343.518 246.871C341.947 246.871 340.376 245.071 340.376 242.159C340.376 238.329 343.782 234.976 348.088 234.976C352.218 234.976 354.847 237.888 354.847 241.471ZM341.753 242.035C341.753 244.259 342.776 245.247 343.57 245.247C344.4 245.247 345.335 244.065 346.235 241.082C346.676 239.618 347.029 237.941 347.223 236.318C343.835 236.741 341.753 239.635 341.753 242.035ZM359.506 235.541C360.088 235.612 360.865 235.647 361.429 235.647H370.129C370.553 235.647 371.082 235.629 371.435 235.612C371.418 236.018 371.382 236.565 371.382 236.988V246.094C371.382 246.729 371.435 247.524 371.453 247.806H369.865C369.882 247.612 369.882 247.241 369.9 246.818H361.27C360.547 246.818 359.753 246.853 359.276 246.888V245.282C359.735 245.335 360.494 245.388 361.235 245.388H369.9V237.059H361.447C360.794 237.059 359.912 237.094 359.506 237.112V235.541ZM375.918 240.006C376.447 240.041 377.382 240.094 378.37 240.094H388.041C388.923 240.094 389.559 240.041 389.947 240.006V241.735C389.594 241.718 388.853 241.647 388.059 241.647H378.37C377.4 241.647 376.465 241.682 375.918 241.735V240.006ZM403.341 234.941C403.782 235.594 404.541 236.776 404.947 237.606L403.941 238.065C403.5 237.147 402.953 236.176 402.37 235.382L403.341 234.941ZM405.476 234.059C405.935 234.676 406.712 235.859 407.135 236.671L406.147 237.165C405.67 236.229 405.106 235.294 404.506 234.518L405.476 234.059ZM397.147 246.324V236.053C397.147 235.559 397.112 234.765 397.006 234.218H398.753C398.682 234.765 398.629 235.524 398.629 236.053V238.929C400.959 239.653 404.294 240.906 406.165 241.841L405.547 243.341C403.641 242.3 400.588 241.135 398.629 240.518V246.324C398.629 246.888 398.682 247.841 398.735 248.406H397.041C397.112 247.841 397.147 246.976 397.147 246.324ZM417.529 233.688C417.423 234.218 417.282 234.906 417.018 235.735C418.818 235.647 420.741 235.488 422.4 235.188L422.382 236.494C420.635 236.776 418.447 236.918 416.523 236.988C416.118 237.924 415.535 238.929 414.935 239.724C415.606 239.3 416.629 239.071 417.388 239.071C418.535 239.071 419.47 239.635 419.753 240.659C420.953 240.076 422.029 239.653 422.947 239.229C423.476 239 423.9 238.806 424.394 238.541L424.976 239.865C424.518 239.988 423.882 240.235 423.406 240.429C422.418 240.8 421.165 241.312 419.823 241.947C419.841 242.971 419.859 244.471 419.876 245.335H418.518C418.553 244.665 418.57 243.518 418.57 242.582C416.929 243.447 415.782 244.382 415.782 245.547C415.782 246.924 417.159 247.135 418.976 247.135C420.353 247.135 422.241 246.976 423.794 246.712L423.759 248.124C422.418 248.3 420.459 248.441 418.923 248.441C416.4 248.441 414.37 247.894 414.37 245.741C414.37 243.659 416.47 242.353 418.535 241.276C418.359 240.518 417.723 240.182 416.929 240.182C415.818 240.182 414.688 240.729 413.894 241.471C413.382 241.947 412.888 242.6 412.288 243.306L411.088 242.424C413.312 240.271 414.494 238.453 415.165 237.024C414.9 237.024 414.635 237.024 414.388 237.024C413.629 237.024 412.465 236.988 411.494 236.918V235.594C412.429 235.718 413.665 235.788 414.476 235.788C414.847 235.788 415.253 235.788 415.641 235.771C415.888 235.012 416.047 234.218 416.082 233.565L417.529 233.688ZM433.235 240.606L433.394 241.788L431.541 242.371V247.4C431.541 248.141 431.382 248.512 430.941 248.741C430.482 248.953 429.776 248.988 428.612 248.971C428.559 248.653 428.4 248.071 428.223 247.718C429.018 247.753 429.741 247.753 429.97 247.735C430.2 247.735 430.27 247.665 430.27 247.4V242.759L427.906 243.482L427.606 242.212C428.329 242.035 429.265 241.771 430.27 241.471V237.624H427.906V236.424H430.27V232.894H431.541V236.424H433.253V237.624H431.541V241.1L433.235 240.606ZM442.006 239.988H439.165V241.647H442.006V239.988ZM439.165 244.471H442.006V242.724H439.165V244.471ZM435.212 244.471H437.965V242.724H435.212V244.471ZM437.965 239.988H435.212V241.647H437.965V239.988ZM443.823 237.482H439.165V238.876H443.241V246.182H442.006V245.565H439.165V248.988H437.965V245.565H435.212V246.288H434.012V238.876H437.965V237.482H433.482V236.318H437.965V234.853C436.623 234.959 435.265 235.029 433.994 235.065C433.959 234.8 433.818 234.359 433.694 234.076C436.694 233.935 440.259 233.618 442.306 233.194L443.1 234.182C441.988 234.412 440.612 234.588 439.165 234.747V236.318H443.823V237.482ZM448.765 233.953H454.376C454.376 237.076 454.782 243.729 461.7 247.841C461.4 248.053 460.87 248.618 460.641 248.935C456.3 246.306 454.429 242.441 453.635 239.106C452.329 243.676 450.106 246.888 446.594 248.953C446.347 248.688 445.765 248.141 445.412 247.912C449.312 245.882 451.482 242.335 452.559 237.394L453.335 237.518C453.212 236.706 453.141 235.929 453.106 235.259H448.765V233.953Z" fill="black"/>
<path d="M162.941 134.118C162.941 136.717 165.048 138.824 167.647 138.824C170.246 138.824 172.353 136.717 172.353 134.118C172.353 131.519 170.246 129.412 167.647 129.412C165.048 129.412 162.941 131.519 162.941 134.118ZM325.33 152.389C325.674 152.044 325.674 151.485 325.33 151.141L319.714 145.526C319.37 145.181 318.811 145.181 318.467 145.526C318.122 145.87 318.122 146.429 318.467 146.773L323.458 151.765L318.467 156.756C318.122 157.101 318.122 157.659 318.467 158.004C318.811 158.348 319.37 158.348 319.714 158.004L325.33 152.389ZM167.647 134.118C167.465 134.981 167.465 134.981 167.466 134.981C167.466 134.981 167.467 134.982 167.469 134.982C167.471 134.982 167.475 134.983 167.48 134.984C167.491 134.986 167.506 134.99 167.527 134.994C167.567 135.003 167.628 135.015 167.709 135.032C167.87 135.066 168.11 135.115 168.426 135.18C169.057 135.31 169.992 135.5 171.208 135.741C173.64 136.225 177.194 136.915 181.689 137.743C190.679 139.399 203.429 141.607 218.479 143.814C248.573 148.229 287.886 152.647 324.706 152.647V150.882C288.009 150.882 248.792 146.477 218.736 142.068C203.711 139.864 190.981 137.66 182.009 136.007C177.523 135.181 173.976 134.492 171.552 134.011C170.34 133.77 169.409 133.58 168.781 133.452C168.466 133.387 168.228 133.338 168.069 133.304C167.989 133.288 167.929 133.275 167.889 133.267C167.869 133.263 167.854 133.26 167.844 133.257C167.839 133.256 167.835 133.256 167.833 133.255C167.832 133.255 167.831 133.255 167.83 133.255C167.83 133.254 167.829 133.254 167.647 134.118Z" fill="black"/>
<path d="M162.941 72.3968C162.941 74.9958 165.048 77.1027 167.647 77.1027C170.246 77.1027 172.353 74.9958 172.353 72.3968C172.353 69.7978 170.246 67.6909 167.647 67.6909C165.048 67.6909 162.941 69.7978 162.941 72.3968ZM327.094 119.742C327.439 119.397 327.439 118.838 327.094 118.494L321.479 112.878C321.135 112.534 320.576 112.534 320.231 112.878C319.887 113.223 319.887 113.782 320.231 114.126L325.223 119.118L320.231 124.109C319.887 124.453 319.887 125.012 320.231 125.357C320.576 125.701 321.134 125.701 321.479 125.357L327.094 119.742ZM167.672 73.2788C197.844 72.4353 217.338 83.9867 239.457 95.8954C261.595 107.814 286.234 119.999 326.47 120L326.471 118.235C286.667 118.235 262.337 106.209 240.294 94.3415C218.233 82.4645 198.336 70.6561 167.622 71.5148L167.672 73.2788Z" fill="black"/>
<path d="M249.632 82.44L249.056 84.232H252.608L252.048 82.44C251.616 81.112 251.248 79.832 250.864 78.472H250.8C250.432 79.848 250.048 81.112 249.632 82.44ZM246.048 89L250.032 77.256H251.68L255.664 89H254.096L252.976 85.416H248.688L247.552 89H246.048ZM257.319 89V77.256H260.679C263.303 77.256 265.063 78.152 265.063 80.712C265.063 83.192 263.319 84.344 260.743 84.344H258.807V89H257.319ZM258.807 83.144H260.551C262.615 83.144 263.591 82.392 263.591 80.712C263.591 79.016 262.551 78.472 260.487 78.472H258.807V83.144ZM267.428 89V77.256H268.916V89H267.428Z" fill="black"/>
<defs>
<clipPath id="clip0_177_185">
<rect width="45.8824" height="45.8824" fill="white" transform="translate(288.529)"/>
</clipPath>
<clipPath id="clip1_177_185">
<rect width="123.529" height="25.7215" fill="white" transform="translate(42.353 199.412)"/>
</clipPath>
</defs>
</svg>
