<svg width="480" height="256" viewBox="0 0 480 256" fill="none" xmlns="http://www.w3.org/2000/svg">
<rect x="24.7061" y="22.9412" width="176.471" height="158.824" rx="7.05882" fill="#D9D9D9"/>
<rect x="8.82373" width="45.8824" height="45.8824" rx="22.9412" fill="black"/>
<path d="M31.1323 15.8296L29.71 14.0912L33.9769 6.34741L42.3529 16.4617L41.8787 17.2519L31.1323 15.8296Z" fill="white"/>
<path d="M41.4051 18.3582L28.2881 16.7778L24.1792 24.5216L37.1382 26.26L41.4051 18.3582Z" fill="white"/>
<path d="M23.2307 25.7859L21.1763 29.4207L29.5522 39.535L33.9772 31.6332L29.7102 26.5761L23.2307 25.7859Z" fill="white"/>
<path d="M27.2958 169.789C34.9531 169.789 41.1607 163.581 41.1607 155.924C41.1607 148.266 34.9531 142.059 27.2958 142.059C19.6384 142.059 13.4308 148.266 13.4308 155.924C13.4308 163.581 19.6384 169.789 27.2958 169.789Z" fill="white"/>
<path d="M33.107 187.963C33.2377 187.505 33.3031 187.277 33.4011 187.063C33.4881 186.874 33.5941 186.694 33.7175 186.526C33.8565 186.336 34.0247 186.168 34.3612 185.831L54.2554 165.937C56.3825 163.81 59.8311 163.81 61.9582 165.937C64.0853 168.064 64.0854 171.513 61.9582 173.64L42.064 193.534C41.7275 193.871 41.5592 194.039 41.3699 194.178C41.2018 194.301 41.0217 194.407 40.8322 194.494C40.6188 194.592 40.39 194.658 39.9324 194.788L30.3768 197.519L33.107 187.963Z" fill="white"/>
<path d="M24.2147 180.573H19.593C15.2931 180.573 13.1432 180.573 11.3938 181.103C7.45489 182.298 4.37251 185.38 3.17766 189.319C2.64697 191.069 2.64697 193.219 2.64697 197.519M41.1607 155.924C41.1607 163.581 34.9531 169.789 27.2958 169.789C19.6384 169.789 13.4308 163.581 13.4308 155.924C13.4308 148.266 19.6384 142.059 27.2958 142.059C34.9531 142.059 41.1607 148.266 41.1607 155.924ZM30.3768 197.519L39.9324 194.788C40.39 194.658 40.6188 194.592 40.8322 194.494C41.0217 194.407 41.2018 194.301 41.3699 194.178C41.5592 194.039 41.7275 193.871 42.064 193.534L61.9582 173.64C64.0854 171.513 64.0853 168.064 61.9582 165.937C59.8311 163.81 56.3825 163.81 54.2554 165.937L34.3612 185.831C34.0247 186.168 33.8565 186.336 33.7175 186.526C33.5941 186.694 33.4881 186.874 33.4011 187.063C33.3031 187.277 33.2377 187.505 33.107 187.963L30.3768 197.519Z" stroke="black" stroke-width="5.29412" stroke-linecap="round" stroke-linejoin="round"/>
<rect x="71.9119" y="48.9705" width="85.5882" height="46.7647" rx="5.73529" fill="white"/>
<rect x="71.9119" y="48.9705" width="85.5882" height="46.7647" rx="5.73529" stroke="black" stroke-width="2.64706"/>
<path d="M107.706 63.5293H87.4121M107.706 81.1764H87.4121M94.1768 69.3197H87.4121M94.1768 75.3859H87.4121M100.491 76.7646H105.902C106.534 76.7646 106.849 76.7646 107.091 76.6444C107.303 76.5386 107.475 76.3699 107.583 76.1624C107.706 75.9264 107.706 75.6176 107.706 74.9999V69.7058C107.706 69.0881 107.706 68.7792 107.583 68.5433C107.475 68.3357 107.303 68.167 107.091 68.0613C106.849 67.9411 106.534 67.9411 105.902 67.9411H100.491C99.8591 67.9411 99.5434 67.9411 99.3022 68.0613C99.0901 68.167 98.9176 68.3357 98.8095 68.5433C98.6866 68.7792 98.6866 69.0881 98.6866 69.7058V74.9999C98.6866 75.6176 98.6866 75.9264 98.8095 76.1624C98.9176 76.3699 99.0901 76.5386 99.3022 76.6444C99.5434 76.7646 99.8591 76.7646 100.491 76.7646Z" stroke="black" stroke-width="1.76471" stroke-linecap="round" stroke-linejoin="round"/>
<path d="M118.855 83.174C116.558 83.174 114.927 82.1857 113.865 80.3081L115.495 79.1469C116.311 80.5798 117.324 81.1728 118.633 81.1728C120.585 81.1728 121.548 80.061 121.548 77.3187V64.7187H123.821V77.541C123.821 80.654 122.388 83.174 118.855 83.174ZM131.854 72.7234L130.964 75.4904H136.449L135.584 72.7234C134.917 70.6728 134.349 68.6963 133.756 66.5963H133.657C133.089 68.721 132.496 70.6728 131.854 72.7234ZM126.32 82.8528L132.472 64.7187H135.016L141.168 82.8528H138.747L137.017 77.3187H130.396L128.642 82.8528H126.32Z" fill="black"/>
<rect x="71.9119" y="109.853" width="85.5882" height="46.7647" rx="5.73529" fill="white"/>
<rect x="71.9119" y="109.853" width="85.5882" height="46.7647" rx="5.73529" stroke="black" stroke-width="2.64706"/>
<path d="M115.941 143.735V125.626H126.392V127.553H118.239V133.235H125.107V135.187H118.239V141.784H126.664V143.735H115.941ZM130.466 143.735V125.626H132.837L139.434 137.04L141.361 140.771H141.484C141.361 138.942 141.188 136.917 141.188 135.039V125.626H143.362V143.735H141.015L134.419 132.297L132.467 128.566H132.368C132.467 130.394 132.64 132.321 132.64 134.224V143.735H130.466Z" fill="black"/>
<path d="M107.647 128.615H90.1416M107.647 143.836H90.1416M95.9766 133.609H90.1416M95.9766 138.842H90.1416M101.423 140.031H106.091C106.635 140.031 106.908 140.031 107.116 139.927C107.299 139.836 107.447 139.69 107.541 139.511C107.647 139.308 107.647 139.041 107.647 138.509V133.942C107.647 133.409 107.647 133.143 107.541 132.939C107.447 132.76 107.299 132.615 107.116 132.524C106.908 132.42 106.635 132.42 106.091 132.42H101.423C100.878 132.42 100.606 132.42 100.398 132.524C100.215 132.615 100.066 132.76 99.9726 132.939C99.8666 133.143 99.8666 133.409 99.8666 133.942V138.509C99.8666 139.041 99.8666 139.308 99.9726 139.511C100.066 139.69 100.215 139.836 100.398 139.927C100.606 140.031 100.878 140.031 101.423 140.031Z" stroke="black" stroke-width="1.52217" stroke-linecap="round" stroke-linejoin="round"/>
<path d="M88.9626 122.488L90.2165 125.748C90.4204 126.278 90.5223 126.543 90.6809 126.766C90.8214 126.964 90.994 127.136 91.1916 127.277C91.4146 127.435 91.6797 127.537 92.2098 127.741L95.4699 128.995L92.2098 130.249C91.6797 130.453 91.4146 130.555 91.1916 130.713C90.994 130.854 90.8214 131.027 90.6809 131.224C90.5223 131.447 90.4204 131.712 90.2165 132.242L88.9626 135.502L87.7087 132.242C87.5048 131.712 87.4029 131.447 87.2443 131.224C87.1038 131.027 86.9312 130.854 86.7336 130.713C86.5106 130.555 86.2455 130.453 85.7154 130.249L82.4553 128.995L85.7154 127.741C86.2455 127.537 86.5106 127.435 86.7336 127.277C86.9312 127.136 87.1038 126.964 87.2443 126.766C87.4029 126.543 87.5048 126.278 87.7087 125.748L88.9626 122.488Z" fill="white"/>
<path d="M82.8169 136.225V132.61M82.8169 125.38V121.765M81.0093 123.572H84.6244M81.0093 134.418H84.6244M88.9626 122.488L87.7087 125.748C87.5048 126.278 87.4029 126.543 87.2443 126.766C87.1038 126.964 86.9312 127.136 86.7336 127.277C86.5106 127.435 86.2455 127.537 85.7154 127.741L82.4553 128.995L85.7154 130.249C86.2455 130.453 86.5106 130.555 86.7336 130.713C86.9312 130.854 87.1038 131.027 87.2443 131.224C87.4029 131.447 87.5048 131.712 87.7087 132.242L88.9626 135.502L90.2165 132.242C90.4204 131.712 90.5223 131.447 90.6809 131.224C90.8214 131.027 90.994 130.854 91.1916 130.713C91.4146 130.555 91.6797 130.453 92.2098 130.249L95.4699 128.995L92.2098 127.741C91.6797 127.537 91.4146 127.435 91.1916 127.277C90.994 127.136 90.8214 126.964 90.6809 126.766C90.5223 126.543 90.4204 126.278 90.2165 125.748L88.9626 122.488Z" stroke="black" stroke-width="1.52217" stroke-linecap="round" stroke-linejoin="round"/>
<rect x="312.794" y="24.2647" width="142.941" height="156.176" rx="5.73529" fill="white"/>
<rect x="312.794" y="24.2647" width="142.941" height="156.176" rx="5.73529" stroke="black" stroke-width="2.64706"/>
<rect width="112.059" height="57.3529" transform="translate(328.235 41.9119)" fill="#E0E0E0"/>
<rect x="341.382" y="106.323" width="24.7059" height="24.7059" rx="12.3529" fill="black"/>
<path d="M353.395 114.847L352.629 113.911L354.927 109.741L359.437 115.188L359.181 115.613L353.395 114.847Z" fill="white"/>
<path d="M358.926 116.209L351.863 115.358L349.651 119.528L356.629 120.464L358.926 116.209Z" fill="white"/>
<path d="M349.14 120.208L348.034 122.166L352.544 127.612L354.926 123.357L352.629 120.634L349.14 120.208Z" fill="white"/>
<path d="M376.912 125.383C376.17 125.383 375.535 125.229 375.006 124.922C374.487 124.605 374.053 124.144 373.703 123.541L374.752 122.778C375.016 123.255 375.313 123.594 375.641 123.795C375.98 123.996 376.356 124.097 376.769 124.097C377.404 124.097 377.875 123.906 378.182 123.525C378.489 123.133 378.643 122.498 378.643 121.619V113.535H380.12V121.762C380.12 122.429 380.009 123.038 379.786 123.588C379.564 124.139 379.215 124.578 378.738 124.907C378.272 125.224 377.663 125.383 376.912 125.383ZM381.711 125.177L385.649 113.535H387.285L391.24 125.177H389.683L387.651 118.665C387.439 117.998 387.238 117.347 387.047 116.711C386.856 116.065 386.666 115.404 386.475 114.726H386.412C386.232 115.404 386.041 116.065 385.84 116.711C385.649 117.347 385.453 117.998 385.252 118.665L383.188 125.177H381.711ZM383.759 121.619V120.459H389.128V121.619H383.759ZM403.216 117.918H408.711V119.046H403.216V117.918ZM402.692 117.918H403.883V124.382C403.883 124.7 403.952 124.907 404.089 125.002C404.227 125.097 404.513 125.145 404.947 125.145C405.042 125.145 405.227 125.145 405.503 125.145C405.778 125.145 406.075 125.145 406.392 125.145C406.72 125.145 407.027 125.145 407.313 125.145C407.61 125.145 407.827 125.145 407.965 125.145C408.25 125.145 408.462 125.081 408.6 124.954C408.748 124.817 408.849 124.562 408.902 124.192C408.965 123.811 409.013 123.249 409.045 122.508C409.14 122.572 409.251 122.641 409.378 122.715C409.516 122.778 409.653 122.837 409.791 122.889C409.929 122.942 410.056 122.979 410.172 123.001C410.119 123.848 410.024 124.509 409.886 124.986C409.759 125.462 409.553 125.796 409.267 125.987C408.981 126.188 408.568 126.288 408.028 126.288C407.954 126.288 407.806 126.288 407.583 126.288C407.372 126.288 407.123 126.288 406.837 126.288C406.562 126.288 406.286 126.288 406.011 126.288C405.736 126.288 405.487 126.288 405.265 126.288C405.053 126.288 404.915 126.288 404.852 126.288C404.301 126.288 403.867 126.235 403.549 126.129C403.232 126.024 403.009 125.833 402.882 125.558C402.755 125.282 402.692 124.891 402.692 124.382V117.918ZM402.517 112.725H409.315V119.919H408.123V113.868H402.517V112.725ZM396.227 116.648H401.183V117.585H396.227V116.648ZM396.307 112.391H401.246V113.344H396.307V112.391ZM396.227 118.76H401.183V119.713H396.227V118.76ZM395.465 114.472H401.786V115.472H395.465V114.472ZM396.783 120.904H401.135V125.542H396.783V124.557H400.071V121.905H396.783V120.904ZM396.196 120.904H397.26V126.272H396.196V120.904ZM418.034 111.835H419.241V125.113C419.241 125.473 419.183 125.738 419.066 125.907C418.96 126.087 418.78 126.219 418.526 126.304C418.283 126.389 417.944 126.442 417.51 126.463C417.086 126.484 416.541 126.495 415.874 126.495C415.842 126.347 415.784 126.172 415.699 125.971C415.615 125.78 415.53 125.621 415.445 125.494C415.763 125.505 416.07 125.51 416.366 125.51C416.673 125.51 416.938 125.505 417.16 125.494C417.393 125.494 417.552 125.494 417.637 125.494C417.785 125.484 417.886 125.452 417.939 125.399C418.002 125.346 418.034 125.251 418.034 125.113V111.835ZM411.808 113.106H425.594V114.091H411.808V113.106ZM414.619 115.869V116.997H422.799V115.869H414.619ZM413.476 115.028H424.006V117.839H413.476V115.028ZM413.015 118.967H424.26V124.732H423.053V119.84H413.015V118.967ZM411.506 120.952H425.912V121.905H411.506V120.952ZM412.872 123.096H423.672V124.033H412.872V123.096Z" fill="black"/>
<rect x="339.882" y="138.088" width="24.7059" height="24.7059" rx="12.3529" fill="black"/>
<path d="M351.895 146.612L351.129 145.676L353.427 141.506L357.937 146.952L357.681 147.378L351.895 146.612Z" fill="white"/>
<path d="M357.426 147.974L350.363 147.123L348.151 151.292L355.129 152.228L357.426 147.974Z" fill="white"/>
<path d="M347.64 151.973L346.534 153.93L351.044 159.377L353.426 155.122L351.129 152.399L347.64 151.973Z" fill="white"/>
<path d="M373.252 156.941V145.299H379.954V146.538H374.713V150.191H379.128V151.446H374.713V155.686H380.129V156.941H373.252ZM382.604 156.941V145.299H384.097L388.354 152.637L389.608 155.035H389.688C389.635 154.453 389.587 153.844 389.545 153.209C389.502 152.574 389.481 151.954 389.481 151.351V145.299H390.879V156.941H389.37L385.129 149.588L383.875 147.205H383.811C383.843 147.788 383.88 148.386 383.922 149C383.965 149.604 383.986 150.212 383.986 150.826V156.941H382.604ZM404.383 149.683H409.879V150.811H404.383V149.683ZM403.859 149.683H405.051V156.147C405.051 156.465 405.119 156.671 405.257 156.766C405.395 156.862 405.681 156.909 406.115 156.909C406.21 156.909 406.395 156.909 406.671 156.909C406.946 156.909 407.242 156.909 407.56 156.909C407.888 156.909 408.195 156.909 408.481 156.909C408.778 156.909 408.995 156.909 409.132 156.909C409.418 156.909 409.63 156.846 409.768 156.719C409.916 156.581 410.016 156.327 410.069 155.956C410.133 155.575 410.181 155.014 410.212 154.273C410.308 154.336 410.419 154.405 410.546 154.479C410.683 154.543 410.821 154.601 410.959 154.654C411.096 154.707 411.223 154.744 411.34 154.765C411.287 155.612 411.192 156.274 411.054 156.751C410.927 157.227 410.721 157.561 410.435 157.751C410.149 157.952 409.736 158.053 409.196 158.053C409.122 158.053 408.973 158.053 408.751 158.053C408.539 158.053 408.291 158.053 408.005 158.053C407.729 158.053 407.454 158.053 407.179 158.053C406.903 158.053 406.655 158.053 406.432 158.053C406.221 158.053 406.083 158.053 406.019 158.053C405.469 158.053 405.035 158 404.717 157.894C404.399 157.788 404.177 157.598 404.05 157.322C403.923 157.047 403.859 156.655 403.859 156.147V149.683ZM403.685 144.489H410.482V151.684H409.291V145.633H403.685V144.489ZM397.395 148.412H402.351V149.349H397.395V148.412ZM397.475 144.156H402.414V145.109H397.475V144.156ZM397.395 150.525H402.351V151.478H397.395V150.525ZM396.633 146.236H402.954V147.237H396.633V146.236ZM397.951 152.669H402.303V157.306H397.951V156.322H401.239V153.669H397.951V152.669ZM397.363 152.669H398.428V158.037H397.363V152.669ZM419.202 143.6H420.409V156.878C420.409 157.238 420.351 157.502 420.234 157.672C420.128 157.852 419.948 157.984 419.694 158.069C419.451 158.154 419.112 158.206 418.678 158.228C418.254 158.249 417.709 158.259 417.042 158.259C417.01 158.111 416.952 157.936 416.867 157.735C416.782 157.545 416.698 157.386 416.613 157.259C416.931 157.269 417.238 157.275 417.534 157.275C417.841 157.275 418.106 157.269 418.328 157.259C418.561 157.259 418.72 157.259 418.805 157.259C418.953 157.248 419.053 157.216 419.106 157.164C419.17 157.111 419.202 157.015 419.202 156.878V143.6ZM412.976 144.871H426.762V145.855H412.976V144.871ZM415.787 147.634V148.762H423.966V147.634H415.787ZM414.643 146.792H425.173V149.604H414.643V146.792ZM414.183 150.731H425.428V156.496H424.221V151.605H414.183V150.731ZM412.674 152.716H427.079V153.669H412.674V152.716ZM414.04 154.861H424.84V155.798H414.04V154.861Z" fill="black"/>
<g clip-path="url(#clip0_273_145)">
<path d="M165.451 210.906L164.275 212.297C163.707 211.768 163.139 211.729 162.884 211.729C162.316 211.729 161.963 212.003 161.963 212.415C161.963 212.63 162.061 212.963 162.727 213.179L163.295 213.355C163.962 213.571 164.961 213.904 165.451 214.57C165.706 214.923 165.882 215.433 165.882 215.981C165.882 216.746 165.627 217.51 164.942 218.137C164.256 218.764 163.433 219.039 162.394 219.039C160.63 219.039 159.631 218.196 159.102 217.628L160.356 216.177C160.826 216.726 161.532 217.157 162.237 217.157C162.903 217.157 163.413 216.824 163.413 216.236C163.413 215.707 162.982 215.491 162.668 215.374L162.12 215.178C161.512 214.962 160.807 214.688 160.297 214.159C159.905 213.747 159.65 213.218 159.65 212.532C159.65 211.709 160.042 211.023 160.532 210.612C161.198 210.083 162.061 210.004 162.747 210.004C163.374 210.004 164.373 210.083 165.451 210.906Z" fill="black"/>
<path d="M148.2 218.764V210.279H150.591V211.376C151.042 210.749 151.845 210.004 153.217 210.004C153.962 210.004 155.059 210.22 155.726 211.043C156.313 211.768 156.392 212.611 156.392 213.434V218.764H154.001V214.139C154.001 213.669 153.981 212.924 153.55 212.473C153.178 212.081 152.668 212.042 152.433 212.042C151.806 212.042 151.316 212.258 150.963 212.787C150.611 213.336 150.591 213.943 150.591 214.433V218.764H148.2Z" fill="black"/>
<path d="M140.511 210.004C142.118 210.004 143.215 210.533 143.941 211.2C144.783 211.964 145.371 213.14 145.371 214.531C145.371 215.923 144.783 217.079 143.941 217.843C143.215 218.509 142.118 219.039 140.511 219.039C138.904 219.039 137.807 218.509 137.081 217.843C136.239 217.079 135.651 215.903 135.651 214.531C135.651 213.159 136.239 211.964 137.081 211.2C137.807 210.533 138.904 210.004 140.511 210.004ZM140.511 216.922C141.902 216.922 142.902 215.825 142.902 214.531C142.902 213.238 141.883 212.121 140.511 212.121C139.139 212.121 138.12 213.199 138.12 214.531C138.12 215.864 139.12 216.922 140.511 216.922Z" fill="black"/>
<path d="M130.433 210.279H132.824V218.764H130.433V210.279ZM130.198 206.692C130.198 205.908 130.844 205.262 131.628 205.262C132.412 205.262 133.059 205.908 133.059 206.692C133.059 207.476 132.412 208.123 131.628 208.123C130.844 208.123 130.198 207.476 130.198 206.692Z" fill="black"/>
<path d="M128.209 212.317H126.563V218.764H124.172V212.317H123.231V210.279H124.172V207.378H126.563V210.279H128.209V212.317Z" fill="black"/>
<path d="M121.198 210.514V212.865C120.688 212.395 120.061 212.121 119.238 212.121C117.651 212.121 116.847 213.277 116.847 214.512C116.847 215.903 117.886 216.922 119.316 216.922C119.846 216.922 120.551 216.765 121.198 216.177V218.509C120.727 218.745 119.983 219.039 119.003 219.039C117.67 219.039 116.494 218.529 115.73 217.804C115.083 217.196 114.378 216.138 114.378 214.551C114.378 213.061 114.985 211.866 115.848 211.102C116.886 210.181 118.082 210.004 118.905 210.004C119.787 210.004 120.512 210.181 121.198 210.514Z" fill="black"/>
<path d="M109.724 216.04L111.919 216.393C111.664 217.02 110.704 219.039 107.744 219.039C106.373 219.039 105.334 218.647 104.491 217.843C103.551 216.961 103.159 215.864 103.159 214.531C103.159 212.846 103.845 211.807 104.452 211.2C105.452 210.22 106.627 210.004 107.646 210.004C109.371 210.004 110.371 210.69 110.958 211.396C111.86 212.473 111.977 213.806 111.977 214.727V214.923H105.628C105.628 215.433 105.765 215.981 106.04 216.354C106.294 216.706 106.823 217.157 107.744 217.157C108.666 217.157 109.332 216.726 109.724 216.04ZM105.706 213.394H109.724C109.528 212.238 108.587 211.69 107.705 211.69C106.823 211.69 105.902 212.258 105.706 213.394Z" fill="black"/>
<path d="M97.9409 204.478H100.332V218.764H97.9409V204.478Z" fill="black"/>
<path d="M92.2915 204.478H94.6824V218.764H92.2915V204.478Z" fill="black"/>
<path d="M84.6023 210.004C86.2093 210.004 87.3068 210.533 88.0319 211.2C88.8745 211.964 89.4625 213.14 89.4625 214.531C89.4625 215.923 88.8745 217.079 88.0319 217.843C87.3068 218.509 86.2093 219.039 84.6023 219.039C82.9953 219.039 81.8979 218.509 81.1728 217.843C80.3301 217.079 79.7422 215.903 79.7422 214.531C79.7422 213.159 80.3301 211.964 81.1728 211.2C81.8979 210.533 82.9953 210.004 84.6023 210.004ZM84.6023 216.922C85.9937 216.922 86.9932 215.825 86.9932 214.531C86.9932 213.238 85.9741 212.121 84.6023 212.121C83.2305 212.121 82.2115 213.199 82.2115 214.531C82.2115 215.864 83.2109 216.922 84.6023 216.922Z" fill="black"/>
<path d="M77.204 215.315V218.294C76.4201 218.706 75.3815 219.058 73.9705 219.058C71.6776 219.058 70.2862 218.274 69.1887 217.236C67.6797 215.786 67.0918 214.159 67.0918 212.238C67.0918 209.867 68.0717 208.162 69.1887 207.123C70.5017 205.889 72.1283 205.399 73.9901 205.399C74.9111 205.399 76.0086 205.556 77.204 206.202V209.181C76.0086 207.809 74.5192 207.711 74.0489 207.711C71.4228 207.711 69.7178 209.867 69.7178 212.278C69.7178 215.178 71.9519 216.746 74.1468 216.746C75.3619 216.746 76.4397 216.217 77.204 215.315Z" fill="black"/>
<path d="M50.0696 206.761L48.9673 205.414L52.2743 199.412L58.766 207.251L58.3985 207.863L50.0696 206.761Z" fill="black"/>
<path d="M58.0309 208.721L47.8647 207.496L44.6802 213.498L54.7238 214.845L58.0309 208.721Z" fill="black"/>
<path d="M43.9453 214.477L42.353 217.294L48.8446 225.133L52.2742 219.009L48.9671 215.09L43.9453 214.477Z" fill="black"/>
</g>
<path d="M170.513 208.924C171.049 208.91 171.501 208.882 171.783 208.854C172.687 208.755 175.355 208.501 177.953 208.275C179.506 208.148 180.819 208.063 181.765 208.035L181.779 209.164C180.96 209.15 179.732 209.179 179.012 209.376C176.993 210.026 175.765 212.186 175.765 213.852C175.765 216.604 178.348 217.494 180.635 217.579L180.226 218.736C177.614 218.637 174.649 217.254 174.649 214.092C174.649 211.903 175.99 210.096 177.275 209.334C175.765 209.489 172.165 209.842 170.64 210.167L170.513 208.924ZM179.732 210.887C180.056 211.353 180.593 212.228 180.903 212.863L180.169 213.188C179.845 212.51 179.449 211.79 179.026 211.197L179.732 210.887ZM181.27 210.294C181.623 210.76 182.174 211.621 182.499 212.242L181.779 212.595C181.44 211.917 181.016 211.212 180.579 210.619L181.27 210.294Z" fill="black"/>
<path d="M51.6354 238.363H57.7413V239.616H51.6354V238.363ZM51.053 238.363H52.3766V245.545C52.3766 245.898 52.453 246.127 52.606 246.233C52.7589 246.339 53.0766 246.392 53.5589 246.392C53.6648 246.392 53.8707 246.392 54.1766 246.392C54.4824 246.392 54.8119 246.392 55.1648 246.392C55.5295 246.392 55.8707 246.392 56.1883 246.392C56.5177 246.392 56.7589 246.392 56.9119 246.392C57.2295 246.392 57.4648 246.322 57.6177 246.18C57.7824 246.027 57.8942 245.745 57.953 245.333C58.0236 244.91 58.0766 244.286 58.1119 243.463C58.2177 243.533 58.3413 243.61 58.4824 243.692C58.6354 243.763 58.7883 243.827 58.9413 243.886C59.0942 243.945 59.2354 243.986 59.3648 244.01C59.306 244.951 59.2001 245.686 59.0471 246.216C58.906 246.745 58.6766 247.116 58.3589 247.327C58.0413 247.551 57.5824 247.663 56.9824 247.663C56.9001 247.663 56.7354 247.663 56.4883 247.663C56.253 247.663 55.9766 247.663 55.6589 247.663C55.353 247.663 55.0471 247.663 54.7413 247.663C54.4354 247.663 54.1589 247.663 53.9119 247.663C53.6766 247.663 53.5236 247.663 53.453 247.663C52.8413 247.663 52.3589 247.604 52.006 247.486C51.653 247.369 51.406 247.157 51.2648 246.851C51.1236 246.545 51.053 246.11 51.053 245.545V238.363ZM50.8589 232.592H58.4119V240.586H57.0883V233.863H50.8589V232.592ZM43.8707 236.951H49.3766V237.992H43.8707V236.951ZM43.9589 232.222H49.4471V233.28H43.9589V232.222ZM43.8707 239.298H49.3766V240.357H43.8707V239.298ZM43.0236 234.533H50.0471V235.645H43.0236V234.533ZM44.4883 241.68H49.3236V246.833H44.4883V245.739H48.1413V242.792H44.4883V241.68ZM43.8354 241.68H45.0177V247.645H43.8354V241.68ZM68.1001 231.604H69.4413V246.357C69.4413 246.757 69.3766 247.051 69.2471 247.239C69.1295 247.439 68.9295 247.586 68.6471 247.68C68.3766 247.775 68.0001 247.833 67.5177 247.857C67.0471 247.88 66.4413 247.892 65.7001 247.892C65.6648 247.727 65.6001 247.533 65.506 247.31C65.4119 247.098 65.3177 246.922 65.2236 246.78C65.5766 246.792 65.9177 246.798 66.2471 246.798C66.5883 246.798 66.8824 246.792 67.1295 246.78C67.3883 246.78 67.5648 246.78 67.6589 246.78C67.8236 246.769 67.9354 246.733 67.9942 246.675C68.0648 246.616 68.1001 246.51 68.1001 246.357V231.604ZM61.1824 233.016H76.5001V234.11H61.1824V233.016ZM64.306 236.086V237.339H73.3942V236.086H64.306ZM63.0354 235.151H74.7354V238.275H63.0354V235.151ZM62.5236 239.527H75.0177V245.933H73.6766V240.498H62.5236V239.527ZM60.8471 241.733H76.853V242.792H60.8471V241.733ZM62.3648 244.116H74.3648V245.157H62.3648V244.116ZM85.7648 232.469C85.6942 232.822 85.6001 233.239 85.4824 233.722C85.3766 234.192 85.2001 234.727 84.953 235.327C84.7413 235.857 84.4766 236.404 84.1589 236.969C83.853 237.533 83.5236 238.045 83.1707 238.504C83.3942 238.363 83.6471 238.245 83.9295 238.151C84.2119 238.045 84.5001 237.969 84.7942 237.922C85.1001 237.875 85.3766 237.851 85.6236 237.851C86.306 237.851 86.8824 238.045 87.353 238.433C87.8236 238.81 88.0589 239.363 88.0589 240.092C88.0589 240.316 88.0589 240.604 88.0589 240.957C88.0589 241.298 88.0589 241.663 88.0589 242.051C88.0707 242.427 88.0824 242.798 88.0942 243.163C88.106 243.527 88.1119 243.845 88.1119 244.116H86.753C86.7648 243.88 86.7766 243.604 86.7883 243.286C86.8001 242.969 86.806 242.633 86.806 242.28C86.8177 241.927 86.8177 241.592 86.806 241.275C86.806 240.957 86.806 240.686 86.806 240.463C86.806 239.945 86.6471 239.569 86.3295 239.333C86.0236 239.086 85.6354 238.963 85.1648 238.963C84.6119 238.963 84.0648 239.086 83.5236 239.333C82.9942 239.569 82.5295 239.875 82.1295 240.251C81.8707 240.498 81.6119 240.78 81.353 241.098C81.106 241.404 80.8295 241.733 80.5236 242.086L79.3236 241.204C80.1707 240.38 80.8766 239.61 81.4413 238.892C82.006 238.175 82.4648 237.51 82.8177 236.898C83.1707 236.275 83.4471 235.716 83.6471 235.222C83.8354 234.727 83.9883 234.233 84.106 233.739C84.2236 233.233 84.2942 232.769 84.3177 232.345L85.7648 232.469ZM79.7295 234.375C80.2001 234.433 80.7119 234.48 81.2648 234.516C81.8177 234.551 82.3001 234.569 82.7119 234.569C83.5001 234.569 84.3471 234.551 85.253 234.516C86.1589 234.469 87.0707 234.404 87.9883 234.322C88.9177 234.239 89.8001 234.122 90.6354 233.969L90.6177 235.275C90.006 235.38 89.353 235.469 88.6589 235.539C87.9648 235.598 87.2589 235.651 86.5413 235.698C85.8236 235.733 85.1295 235.763 84.4589 235.786C83.8001 235.798 83.1883 235.804 82.6236 235.804C82.3766 235.804 82.0883 235.804 81.7589 235.804C81.4413 235.792 81.106 235.78 80.753 235.769C80.4001 235.745 80.0589 235.722 79.7295 235.698V234.375ZM93.2119 238.645C93.0589 238.68 92.8883 238.733 92.7001 238.804C92.5236 238.863 92.3413 238.927 92.153 238.998C91.9766 239.069 91.806 239.139 91.6413 239.21C91.0295 239.445 90.3177 239.733 89.506 240.075C88.6942 240.416 87.8648 240.81 87.0177 241.257C86.4295 241.551 85.9119 241.863 85.4648 242.192C85.0177 242.51 84.6648 242.845 84.406 243.198C84.1471 243.539 84.0177 243.916 84.0177 244.327C84.0177 244.669 84.0942 244.945 84.2471 245.157C84.4119 245.369 84.6413 245.533 84.9354 245.651C85.2295 245.757 85.5648 245.827 85.9413 245.863C86.3295 245.898 86.753 245.916 87.2119 245.916C87.8942 245.916 88.6707 245.88 89.5413 245.81C90.4236 245.727 91.253 245.622 92.0295 245.492L91.9942 246.904C91.5471 246.963 91.0413 247.016 90.4766 247.063C89.9236 247.11 89.3589 247.145 88.7824 247.169C88.2177 247.204 87.6766 247.222 87.1589 247.222C86.3236 247.222 85.5589 247.145 84.8648 246.992C84.1824 246.839 83.6354 246.569 83.2236 246.18C82.8119 245.792 82.606 245.239 82.606 244.522C82.606 243.992 82.7295 243.51 82.9766 243.075C83.2236 242.627 83.553 242.222 83.9648 241.857C84.3883 241.492 84.853 241.157 85.3589 240.851C85.8648 240.533 86.3824 240.245 86.9119 239.986C87.4766 239.68 88.006 239.416 88.5001 239.192C89.006 238.969 89.4824 238.763 89.9295 238.575C90.3766 238.386 90.7942 238.198 91.1824 238.01C91.4413 237.892 91.6883 237.78 91.9236 237.675C92.1589 237.569 92.3942 237.451 92.6295 237.322L93.2119 238.645ZM103.888 234.551H112.271V235.822H103.271L103.888 234.551ZM106.094 238.38H111.865V239.598H106.094V238.38ZM106.094 242.28H112.094V243.533H106.094V242.28ZM105.441 234.975H106.782V247.822H105.441V234.975ZM104.577 231.816L105.847 232.151C105.518 233.08 105.129 233.998 104.682 234.904C104.247 235.798 103.777 236.639 103.271 237.427C102.765 238.216 102.241 238.916 101.7 239.527C101.629 239.457 101.529 239.363 101.4 239.245C101.282 239.127 101.153 239.01 101.012 238.892C100.882 238.775 100.771 238.686 100.677 238.627C101.206 238.075 101.712 237.433 102.194 236.704C102.677 235.975 103.118 235.192 103.518 234.357C103.929 233.522 104.282 232.675 104.577 231.816ZM100.324 231.675L101.594 232.063C101.218 233.051 100.771 234.039 100.253 235.027C99.7354 236.004 99.1766 236.922 98.5766 237.78C97.9766 238.627 97.353 239.386 96.706 240.057C96.6589 239.951 96.5883 239.816 96.4942 239.651C96.4001 239.475 96.3001 239.298 96.1942 239.122C96.1001 238.945 96.0119 238.81 95.9295 238.716C96.5177 238.139 97.0824 237.475 97.6236 236.722C98.1648 235.969 98.6648 235.163 99.1236 234.304C99.5942 233.433 99.9942 232.557 100.324 231.675ZM98.453 236.21L99.7589 234.886L99.7766 234.922V247.804H98.453V236.21ZM115.959 238.222H120.335V239.457H115.959V238.222ZM119.824 238.222H121.112C121.112 238.222 121.112 238.257 121.112 238.327C121.112 238.386 121.106 238.463 121.094 238.557C121.094 238.651 121.094 238.727 121.094 238.786C121.071 240.104 121.035 241.175 120.988 241.998C120.953 242.81 120.9 243.427 120.829 243.851C120.771 244.275 120.677 244.569 120.547 244.733C120.406 244.898 120.253 245.016 120.088 245.086C119.935 245.157 119.735 245.21 119.488 245.245C119.253 245.269 118.947 245.28 118.571 245.28C118.194 245.269 117.788 245.251 117.353 245.227C117.341 245.039 117.3 244.833 117.229 244.61C117.171 244.375 117.088 244.169 116.982 243.992C117.382 244.039 117.759 244.069 118.112 244.08C118.465 244.08 118.712 244.08 118.853 244.08C118.982 244.08 119.088 244.069 119.171 244.045C119.265 244.022 119.347 243.969 119.418 243.886C119.5 243.78 119.565 243.545 119.612 243.18C119.671 242.804 119.712 242.239 119.735 241.486C119.771 240.722 119.8 239.704 119.824 238.433V238.222ZM124.782 232.486L125.577 231.675C125.953 231.851 126.341 232.063 126.741 232.31C127.153 232.545 127.535 232.786 127.888 233.033C128.241 233.269 128.535 233.486 128.771 233.686L127.941 234.604C127.718 234.392 127.429 234.163 127.077 233.916C126.724 233.657 126.347 233.404 125.947 233.157C125.547 232.91 125.159 232.686 124.782 232.486ZM127.324 237.269L128.647 237.604C127.894 239.91 126.865 241.91 125.559 243.604C124.253 245.298 122.7 246.68 120.9 247.751C120.829 247.657 120.735 247.539 120.618 247.398C120.5 247.269 120.377 247.133 120.247 246.992C120.129 246.863 120.024 246.751 119.929 246.657C121.718 245.716 123.229 244.451 124.465 242.863C125.7 241.263 126.653 239.398 127.324 237.269ZM116.065 234.604H129.724V235.892H116.065V234.604ZM115.2 234.604H116.577V239.58C116.577 240.204 116.553 240.88 116.506 241.61C116.459 242.339 116.371 243.08 116.241 243.833C116.112 244.586 115.924 245.322 115.677 246.039C115.429 246.745 115.1 247.386 114.688 247.963C114.618 247.869 114.512 247.763 114.371 247.645C114.241 247.527 114.1 247.416 113.947 247.31C113.806 247.204 113.682 247.127 113.577 247.08C114.071 246.351 114.429 245.551 114.653 244.68C114.888 243.81 115.035 242.933 115.094 242.051C115.165 241.157 115.2 240.327 115.2 239.563V234.604ZM122.541 231.622H123.918C123.906 233.257 123.965 234.81 124.094 236.28C124.224 237.751 124.406 239.104 124.641 240.339C124.877 241.563 125.159 242.627 125.488 243.533C125.829 244.427 126.2 245.122 126.6 245.616C127.012 246.11 127.441 246.357 127.888 246.357C128.147 246.357 128.335 246.11 128.453 245.616C128.582 245.11 128.671 244.269 128.718 243.092C128.871 243.233 129.053 243.375 129.265 243.516C129.488 243.657 129.688 243.757 129.865 243.816C129.782 244.827 129.665 245.616 129.512 246.18C129.371 246.745 129.159 247.139 128.877 247.363C128.606 247.598 128.241 247.716 127.782 247.716C127.194 247.716 126.653 247.516 126.159 247.116C125.665 246.716 125.224 246.151 124.835 245.422C124.459 244.692 124.129 243.833 123.847 242.845C123.565 241.845 123.324 240.745 123.124 239.545C122.935 238.345 122.794 237.08 122.7 235.751C122.606 234.41 122.553 233.033 122.541 231.622Z" fill="black"/>
<path d="M309.6 218.647L313.976 205.712H315.794L320.188 218.647H318.459L316.2 211.412C315.965 210.671 315.741 209.947 315.529 209.241C315.318 208.523 315.106 207.788 314.894 207.035H314.823C314.623 207.788 314.412 208.523 314.188 209.241C313.976 209.947 313.759 210.671 313.535 211.412L311.241 218.647H309.6ZM311.876 214.694V213.406H317.841V214.694H311.876ZM322.048 218.647V205.712H325.736C326.701 205.712 327.548 205.835 328.278 206.082C329.007 206.318 329.572 206.712 329.972 207.265C330.372 207.818 330.572 208.565 330.572 209.506C330.572 210.412 330.372 211.159 329.972 211.747C329.572 212.335 329.013 212.776 328.295 213.071C327.578 213.353 326.748 213.494 325.807 213.494H323.672V218.647H322.048ZM323.672 212.171H325.595C326.725 212.171 327.566 211.959 328.119 211.535C328.672 211.112 328.948 210.435 328.948 209.506C328.948 208.565 328.66 207.918 328.083 207.565C327.519 207.212 326.666 207.035 325.525 207.035H323.672V212.171ZM333.215 218.647V205.712H334.839V218.647H333.215ZM347.891 204.741H355.726V205.906H347.891V204.741ZM348.579 214.253H356.75V215.435H348.579V214.253ZM347.432 218.347H357.526V219.529H347.432V218.347ZM355.355 204.741H355.602L355.867 204.688L356.75 205.076C356.279 206.429 355.614 207.594 354.755 208.571C353.908 209.547 352.926 210.365 351.808 211.023C350.702 211.682 349.526 212.218 348.279 212.629C348.197 212.453 348.079 212.259 347.926 212.047C347.785 211.835 347.65 211.659 347.52 211.518C348.673 211.2 349.767 210.747 350.802 210.159C351.85 209.559 352.767 208.829 353.555 207.971C354.355 207.1 354.955 206.1 355.355 204.971V204.741ZM350.185 205.765C350.82 207.2 351.791 208.412 353.097 209.4C354.414 210.388 355.961 211.082 357.738 211.482C357.608 211.612 357.461 211.788 357.297 212.012C357.144 212.223 357.02 212.412 356.926 212.576C355.079 212.094 353.479 211.312 352.126 210.229C350.785 209.135 349.75 207.776 349.02 206.153L350.185 205.765ZM351.95 211.694H353.255V219.088H351.95V211.694ZM343.991 203.823L345.155 204.3C344.932 204.712 344.697 205.153 344.45 205.623C344.202 206.094 343.95 206.547 343.691 206.982C343.444 207.418 343.202 207.794 342.967 208.112L342.067 207.706C342.291 207.365 342.52 206.971 342.755 206.523C342.991 206.065 343.22 205.6 343.444 205.129C343.667 204.647 343.85 204.212 343.991 203.823ZM345.985 205.835L347.097 206.347C346.697 207.018 346.25 207.729 345.755 208.482C345.273 209.235 344.785 209.959 344.291 210.653C343.797 211.347 343.326 211.959 342.879 212.488L342.067 212.029C342.397 211.629 342.738 211.176 343.091 210.671C343.455 210.153 343.808 209.618 344.15 209.065C344.502 208.5 344.832 207.941 345.138 207.388C345.455 206.823 345.738 206.306 345.985 205.835ZM341.22 207.547L341.891 206.665C342.22 206.935 342.55 207.241 342.879 207.582C343.22 207.912 343.532 208.241 343.814 208.571C344.097 208.888 344.314 209.176 344.467 209.435L343.744 210.441C343.591 210.171 343.373 209.865 343.091 209.523C342.82 209.171 342.52 208.823 342.191 208.482C341.861 208.141 341.538 207.829 341.22 207.547ZM345.35 209.947L346.285 209.559C346.532 209.935 346.767 210.347 346.991 210.794C347.214 211.229 347.408 211.659 347.573 212.082C347.75 212.494 347.879 212.865 347.961 213.194L346.955 213.635C346.885 213.306 346.761 212.929 346.585 212.506C346.42 212.082 346.232 211.647 346.02 211.2C345.808 210.741 345.585 210.323 345.35 209.947ZM341.15 211.729C341.926 211.706 342.838 211.671 343.885 211.623C344.932 211.576 346.014 211.529 347.132 211.482L347.114 212.559C346.067 212.629 345.032 212.7 344.008 212.771C342.985 212.829 342.073 212.888 341.273 212.947L341.15 211.729ZM345.808 214.094L346.779 213.794C347.014 214.288 347.238 214.841 347.45 215.453C347.673 216.053 347.826 216.571 347.908 217.006L346.902 217.359C346.82 216.912 346.673 216.388 346.461 215.788C346.261 215.176 346.044 214.612 345.808 214.094ZM342.155 213.918L343.285 214.112C343.167 214.947 343.002 215.771 342.791 216.582C342.579 217.382 342.332 218.065 342.05 218.629C341.967 218.571 341.861 218.512 341.732 218.453C341.614 218.394 341.485 218.335 341.344 218.276C341.214 218.206 341.097 218.153 340.991 218.118C341.297 217.576 341.538 216.935 341.714 216.194C341.902 215.441 342.05 214.682 342.155 213.918ZM344.044 212.223H345.226V220.094H344.044V212.223ZM360.844 212.418H373.144V213.723H360.844V212.418ZM360.844 217.641H373.108V218.965H360.844V217.641ZM360.208 207.247H373.867V219.988H372.491V208.571H361.532V220.059H360.208V207.247ZM366.297 203.823H367.638V218.347H366.297V203.823ZM377.238 207.035C377.567 207.023 377.867 207.012 378.138 207C378.42 206.976 378.644 206.959 378.808 206.947C379.091 206.912 379.497 206.871 380.026 206.823C380.567 206.765 381.185 206.706 381.879 206.647C382.573 206.576 383.32 206.506 384.12 206.435C384.92 206.365 385.726 206.294 386.538 206.223C387.185 206.165 387.797 206.118 388.373 206.082C388.95 206.035 389.485 206 389.979 205.976C390.473 205.941 390.914 205.918 391.302 205.906V207.318C390.973 207.318 390.597 207.323 390.173 207.335C389.75 207.347 389.332 207.371 388.92 207.406C388.508 207.441 388.15 207.506 387.844 207.6C387.22 207.8 386.655 208.106 386.15 208.518C385.655 208.918 385.232 209.382 384.879 209.912C384.526 210.441 384.255 210.988 384.067 211.553C383.891 212.118 383.802 212.665 383.802 213.194C383.802 213.876 383.92 214.476 384.155 214.994C384.391 215.5 384.708 215.929 385.108 216.282C385.52 216.635 385.985 216.923 386.502 217.147C387.02 217.371 387.567 217.541 388.144 217.659C388.732 217.765 389.314 217.823 389.891 217.835L389.379 219.3C388.72 219.276 388.061 219.182 387.402 219.018C386.744 218.865 386.114 218.641 385.514 218.347C384.914 218.041 384.379 217.659 383.908 217.2C383.438 216.741 383.067 216.206 382.797 215.594C382.526 214.982 382.391 214.282 382.391 213.494C382.391 212.576 382.55 211.729 382.867 210.953C383.197 210.165 383.614 209.476 384.12 208.888C384.626 208.3 385.15 207.847 385.691 207.529C385.314 207.576 384.844 207.629 384.279 207.688C383.726 207.747 383.132 207.812 382.497 207.882C381.861 207.941 381.22 208.012 380.573 208.094C379.938 208.176 379.344 208.259 378.791 208.341C378.238 208.412 377.773 208.488 377.397 208.571L377.238 207.035ZM388.761 209.488C388.891 209.676 389.044 209.918 389.22 210.212C389.408 210.494 389.591 210.788 389.767 211.094C389.944 211.388 390.091 211.671 390.208 211.941L389.308 212.365C389.108 211.929 388.885 211.5 388.638 211.076C388.391 210.641 388.132 210.241 387.861 209.876L388.761 209.488ZM390.685 208.747C390.826 208.935 390.991 209.171 391.179 209.453C391.367 209.735 391.55 210.029 391.726 210.335C391.914 210.629 392.079 210.912 392.22 211.182L391.302 211.623C391.091 211.188 390.855 210.759 390.597 210.335C390.35 209.912 390.091 209.518 389.82 209.153L390.685 208.747ZM402.773 210.582H408.879V211.835H402.773V210.582ZM402.191 210.582H403.514V217.765C403.514 218.118 403.591 218.347 403.744 218.453C403.897 218.559 404.214 218.612 404.697 218.612C404.802 218.612 405.008 218.612 405.314 218.612C405.62 218.612 405.95 218.612 406.302 218.612C406.667 218.612 407.008 218.612 407.326 218.612C407.655 218.612 407.897 218.612 408.05 218.612C408.367 218.612 408.602 218.541 408.755 218.4C408.92 218.247 409.032 217.965 409.091 217.553C409.161 217.129 409.214 216.506 409.25 215.682C409.355 215.753 409.479 215.829 409.62 215.912C409.773 215.982 409.926 216.047 410.079 216.106C410.232 216.165 410.373 216.206 410.502 216.229C410.444 217.171 410.338 217.906 410.185 218.435C410.044 218.965 409.814 219.335 409.497 219.547C409.179 219.771 408.72 219.882 408.12 219.882C408.038 219.882 407.873 219.882 407.626 219.882C407.391 219.882 407.114 219.882 406.797 219.882C406.491 219.882 406.185 219.882 405.879 219.882C405.573 219.882 405.297 219.882 405.05 219.882C404.814 219.882 404.661 219.882 404.591 219.882C403.979 219.882 403.497 219.823 403.144 219.706C402.791 219.588 402.544 219.376 402.402 219.071C402.261 218.765 402.191 218.329 402.191 217.765V210.582ZM401.997 204.812H409.55V212.806H408.226V206.082H401.997V204.812ZM395.008 209.171H400.514V210.212H395.008V209.171ZM395.097 204.441H400.585V205.5H395.097V204.441ZM395.008 211.518H400.514V212.576H395.008V211.518ZM394.161 206.753H401.185V207.865H394.161V206.753ZM395.626 213.9H400.461V219.053H395.626V217.959H399.279V215.012H395.626V213.9ZM394.973 213.9H396.155V219.865H394.973V213.9ZM419.238 203.823H420.579V218.576C420.579 218.976 420.514 219.271 420.385 219.459C420.267 219.659 420.067 219.806 419.785 219.9C419.514 219.994 419.138 220.053 418.655 220.076C418.185 220.1 417.579 220.112 416.838 220.112C416.802 219.947 416.738 219.753 416.644 219.529C416.55 219.318 416.455 219.141 416.361 219C416.714 219.012 417.055 219.018 417.385 219.018C417.726 219.018 418.02 219.012 418.267 219C418.526 219 418.702 219 418.797 219C418.961 218.988 419.073 218.953 419.132 218.894C419.202 218.835 419.238 218.729 419.238 218.576V203.823ZM412.32 205.235H427.638V206.329H412.32V205.235ZM415.444 208.306V209.559H424.532V208.306H415.444ZM414.173 207.371H425.873V210.494H414.173V207.371ZM413.661 211.747H426.155V218.153H424.814V212.718H413.661V211.747ZM411.985 213.953H427.991V215.012H411.985V213.953ZM413.502 216.335H425.502V217.376H413.502V216.335ZM436.902 204.688C436.832 205.041 436.738 205.459 436.62 205.941C436.514 206.412 436.338 206.947 436.091 207.547C435.879 208.076 435.614 208.623 435.297 209.188C434.991 209.753 434.661 210.265 434.308 210.723C434.532 210.582 434.785 210.465 435.067 210.371C435.35 210.265 435.638 210.188 435.932 210.141C436.238 210.094 436.514 210.071 436.761 210.071C437.444 210.071 438.02 210.265 438.491 210.653C438.961 211.029 439.197 211.582 439.197 212.312C439.197 212.535 439.197 212.823 439.197 213.176C439.197 213.518 439.197 213.882 439.197 214.271C439.208 214.647 439.22 215.018 439.232 215.382C439.244 215.747 439.25 216.065 439.25 216.335H437.891C437.902 216.1 437.914 215.823 437.926 215.506C437.938 215.188 437.944 214.853 437.944 214.5C437.955 214.147 437.955 213.812 437.944 213.494C437.944 213.176 437.944 212.906 437.944 212.682C437.944 212.165 437.785 211.788 437.467 211.553C437.161 211.306 436.773 211.182 436.302 211.182C435.75 211.182 435.202 211.306 434.661 211.553C434.132 211.788 433.667 212.094 433.267 212.471C433.008 212.718 432.75 213 432.491 213.318C432.244 213.623 431.967 213.953 431.661 214.306L430.461 213.423C431.308 212.6 432.014 211.829 432.579 211.112C433.144 210.394 433.602 209.729 433.955 209.118C434.308 208.494 434.585 207.935 434.785 207.441C434.973 206.947 435.126 206.453 435.244 205.959C435.361 205.453 435.432 204.988 435.455 204.565L436.902 204.688ZM430.867 206.594C431.338 206.653 431.85 206.7 432.402 206.735C432.955 206.771 433.438 206.788 433.85 206.788C434.638 206.788 435.485 206.771 436.391 206.735C437.297 206.688 438.208 206.623 439.126 206.541C440.055 206.459 440.938 206.341 441.773 206.188L441.755 207.494C441.144 207.6 440.491 207.688 439.797 207.759C439.102 207.818 438.397 207.871 437.679 207.918C436.961 207.953 436.267 207.982 435.597 208.006C434.938 208.018 434.326 208.023 433.761 208.023C433.514 208.023 433.226 208.023 432.897 208.023C432.579 208.012 432.244 208 431.891 207.988C431.538 207.965 431.197 207.941 430.867 207.918V206.594ZM444.35 210.865C444.197 210.9 444.026 210.953 443.838 211.023C443.661 211.082 443.479 211.147 443.291 211.218C443.114 211.288 442.944 211.359 442.779 211.429C442.167 211.665 441.455 211.953 440.644 212.294C439.832 212.635 439.002 213.029 438.155 213.476C437.567 213.771 437.05 214.082 436.602 214.412C436.155 214.729 435.802 215.065 435.544 215.418C435.285 215.759 435.155 216.135 435.155 216.547C435.155 216.888 435.232 217.165 435.385 217.376C435.55 217.588 435.779 217.753 436.073 217.871C436.367 217.976 436.702 218.047 437.079 218.082C437.467 218.118 437.891 218.135 438.35 218.135C439.032 218.135 439.808 218.1 440.679 218.029C441.561 217.947 442.391 217.841 443.167 217.712L443.132 219.123C442.685 219.182 442.179 219.235 441.614 219.282C441.061 219.329 440.497 219.365 439.92 219.388C439.355 219.423 438.814 219.441 438.297 219.441C437.461 219.441 436.697 219.365 436.002 219.212C435.32 219.059 434.773 218.788 434.361 218.4C433.95 218.012 433.744 217.459 433.744 216.741C433.744 216.212 433.867 215.729 434.114 215.294C434.361 214.847 434.691 214.441 435.102 214.076C435.526 213.712 435.991 213.376 436.497 213.071C437.002 212.753 437.52 212.465 438.05 212.206C438.614 211.9 439.144 211.635 439.638 211.412C440.144 211.188 440.62 210.982 441.067 210.794C441.514 210.606 441.932 210.418 442.32 210.229C442.579 210.112 442.826 210 443.061 209.894C443.297 209.788 443.532 209.671 443.767 209.541L444.35 210.865ZM322.235 238.547C322.235 239.723 322.159 240.765 322.006 241.671C321.865 242.576 321.606 243.382 321.229 244.088C320.853 244.794 320.335 245.423 319.676 245.976C319.029 246.518 318.2 247.012 317.188 247.459L316.006 246.347C316.818 246.029 317.523 245.682 318.123 245.306C318.723 244.929 319.223 244.459 319.623 243.894C320.023 243.329 320.323 242.623 320.523 241.776C320.723 240.929 320.823 239.888 320.823 238.653V234.365C320.823 234.012 320.812 233.706 320.788 233.447C320.765 233.176 320.747 233 320.735 232.918H322.323C322.312 233 322.294 233.176 322.27 233.447C322.247 233.706 322.235 234.012 322.235 234.365V238.547ZM315.882 233.023C315.87 233.106 315.853 233.265 315.829 233.5C315.806 233.735 315.794 234.006 315.794 234.312V240.771C315.794 240.982 315.8 241.206 315.812 241.441C315.823 241.665 315.835 241.865 315.847 242.041C315.859 242.206 315.865 242.318 315.865 242.376H314.312C314.312 242.318 314.318 242.206 314.329 242.041C314.341 241.876 314.353 241.682 314.365 241.459C314.376 241.223 314.382 240.994 314.382 240.771V234.312C314.382 234.112 314.376 233.9 314.365 233.676C314.353 233.441 314.335 233.223 314.312 233.023H315.882ZM310.712 236.447C310.77 236.459 310.888 236.476 311.065 236.5C311.253 236.512 311.476 236.529 311.735 236.553C311.994 236.565 312.241 236.571 312.476 236.571H324.176C324.565 236.571 324.9 236.559 325.182 236.535C325.465 236.512 325.67 236.494 325.8 236.482V237.982C325.694 237.971 325.494 237.959 325.2 237.947C324.906 237.935 324.565 237.929 324.176 237.929H312.476C312.229 237.929 311.982 237.935 311.735 237.947C311.488 237.947 311.27 237.953 311.082 237.965C310.906 237.976 310.782 237.982 310.712 237.982V236.447ZM328.694 240.276C330.223 239.865 331.647 239.365 332.965 238.776C334.282 238.188 335.429 237.588 336.406 236.976C337.018 236.588 337.612 236.171 338.188 235.723C338.776 235.265 339.329 234.788 339.847 234.294C340.365 233.8 340.823 233.312 341.223 232.829L342.406 233.923C341.912 234.453 341.376 234.971 340.8 235.476C340.223 235.982 339.612 236.471 338.965 236.941C338.329 237.4 337.665 237.847 336.97 238.282C336.323 238.671 335.594 239.071 334.782 239.482C333.97 239.894 333.106 240.282 332.188 240.647C331.27 241.012 330.341 241.347 329.4 241.653L328.694 240.276ZM336.123 237.718L337.641 237.259V245.306C337.641 245.529 337.641 245.765 337.641 246.012C337.653 246.259 337.665 246.488 337.676 246.7C337.7 246.912 337.723 247.076 337.747 247.194H336.018C336.029 247.076 336.041 246.912 336.053 246.7C336.076 246.488 336.094 246.259 336.106 246.012C336.118 245.765 336.123 245.529 336.123 245.306V237.718ZM350.77 245.094C350.77 244.929 350.77 244.6 350.77 244.106C350.77 243.6 350.77 243.006 350.77 242.323C350.77 241.629 350.77 240.906 350.77 240.153C350.77 239.388 350.77 238.647 350.77 237.929C350.77 237.212 350.77 236.576 350.77 236.023C350.77 235.471 350.77 235.071 350.77 234.823C350.77 234.576 350.759 234.276 350.735 233.923C350.712 233.571 350.676 233.259 350.629 232.988H352.359C352.335 233.247 352.306 233.553 352.27 233.906C352.247 234.259 352.235 234.565 352.235 234.823C352.235 235.282 352.235 235.835 352.235 236.482C352.235 237.118 352.235 237.8 352.235 238.529C352.235 239.247 352.235 239.965 352.235 240.682C352.247 241.388 352.253 242.053 352.253 242.676C352.253 243.288 352.253 243.812 352.253 244.247C352.253 244.671 352.253 244.953 352.253 245.094C352.253 245.282 352.253 245.5 352.253 245.747C352.265 245.994 352.282 246.247 352.306 246.506C352.329 246.753 352.347 246.976 352.359 247.176H350.647C350.694 246.894 350.723 246.559 350.735 246.171C350.759 245.782 350.77 245.423 350.77 245.094ZM351.935 237.612C352.512 237.788 353.147 238 353.841 238.247C354.547 238.482 355.265 238.735 355.994 239.006C356.723 239.276 357.412 239.553 358.059 239.835C358.718 240.106 359.288 240.365 359.77 240.612L359.17 242.112C358.665 241.829 358.094 241.553 357.459 241.282C356.823 241 356.17 240.723 355.5 240.453C354.841 240.182 354.2 239.941 353.576 239.729C352.965 239.506 352.418 239.323 351.935 239.182V237.612ZM370.518 234.735C371 234.806 371.559 234.865 372.194 234.912C372.841 234.947 373.506 234.965 374.188 234.965C374.882 234.953 375.541 234.929 376.165 234.894C376.8 234.847 377.335 234.788 377.77 234.718V236.147C377.3 236.194 376.747 236.235 376.112 236.271C375.488 236.294 374.835 236.306 374.153 236.306C373.482 236.306 372.829 236.294 372.194 236.271C371.559 236.235 371 236.194 370.518 236.147V234.735ZM371.206 241.918C371.123 242.235 371.059 242.523 371.012 242.782C370.965 243.041 370.941 243.294 370.941 243.541C370.941 243.741 370.982 243.941 371.065 244.141C371.159 244.329 371.312 244.5 371.523 244.653C371.747 244.794 372.053 244.912 372.441 245.006C372.829 245.088 373.323 245.129 373.923 245.129C374.723 245.129 375.476 245.094 376.182 245.023C376.888 244.941 377.594 244.823 378.3 244.671L378.335 246.153C377.782 246.271 377.135 246.365 376.394 246.435C375.665 246.494 374.841 246.523 373.923 246.523C372.441 246.523 371.353 246.288 370.659 245.818C369.976 245.347 369.635 244.7 369.635 243.876C369.635 243.582 369.659 243.271 369.706 242.941C369.765 242.6 369.841 242.218 369.935 241.794L371.206 241.918ZM367.147 233.376C367.123 233.471 367.088 233.594 367.041 233.747C367.006 233.888 366.965 234.035 366.918 234.188C366.882 234.329 366.853 234.453 366.829 234.559C366.77 234.888 366.7 235.271 366.618 235.706C366.535 236.129 366.453 236.588 366.37 237.082C366.3 237.565 366.229 238.059 366.159 238.565C366.1 239.059 366.047 239.541 366 240.012C365.965 240.482 365.947 240.918 365.947 241.318C365.947 241.753 365.959 242.165 365.982 242.553C366.018 242.941 366.059 243.353 366.106 243.788C366.212 243.518 366.323 243.229 366.441 242.923C366.559 242.618 366.676 242.318 366.794 242.023C366.923 241.718 367.035 241.447 367.129 241.212L367.87 241.776C367.718 242.2 367.553 242.665 367.376 243.171C367.2 243.676 367.041 244.165 366.9 244.635C366.77 245.094 366.676 245.459 366.618 245.729C366.594 245.859 366.57 246 366.547 246.153C366.523 246.306 366.518 246.429 366.529 246.523C366.541 246.618 366.547 246.718 366.547 246.823C366.559 246.941 366.57 247.047 366.582 247.141L365.312 247.229C365.135 246.606 364.982 245.806 364.853 244.829C364.723 243.841 364.659 242.753 364.659 241.565C364.659 240.918 364.688 240.259 364.747 239.588C364.806 238.906 364.882 238.247 364.976 237.612C365.07 236.965 365.159 236.376 365.241 235.847C365.335 235.306 365.406 234.853 365.453 234.488C365.488 234.276 365.518 234.065 365.541 233.853C365.565 233.629 365.576 233.423 365.576 233.235L367.147 233.376ZM387.494 238.212L389.047 238.618C388.765 239.276 388.459 239.971 388.129 240.7C387.812 241.418 387.482 242.141 387.141 242.871C386.8 243.588 386.453 244.276 386.1 244.935C385.747 245.582 385.412 246.176 385.094 246.718L383.859 246.312C384.176 245.771 384.506 245.165 384.847 244.494C385.188 243.823 385.518 243.123 385.835 242.394C386.165 241.665 386.47 240.941 386.753 240.223C387.035 239.506 387.282 238.835 387.494 238.212ZM381.706 245.906C382.506 245.882 383.412 245.853 384.423 245.818C385.447 245.782 386.529 245.741 387.67 245.694C388.823 245.635 390 245.582 391.2 245.535C392.412 245.476 393.612 245.423 394.8 245.376L394.765 246.629C393.223 246.712 391.67 246.794 390.106 246.876C388.541 246.971 387.053 247.053 385.641 247.123C384.241 247.194 382.988 247.253 381.882 247.3L381.706 245.906ZM390.882 242.094L392.135 241.494C392.676 242.118 393.223 242.788 393.776 243.506C394.329 244.212 394.841 244.906 395.312 245.588C395.782 246.271 396.159 246.882 396.441 247.423L395.118 248.147C394.835 247.594 394.459 246.971 393.988 246.276C393.529 245.571 393.023 244.853 392.47 244.123C391.929 243.382 391.4 242.706 390.882 242.094ZM385.712 232.335L387.176 232.741C386.788 233.694 386.329 234.618 385.8 235.512C385.27 236.406 384.706 237.241 384.106 238.018C383.506 238.782 382.888 239.453 382.253 240.029C382.17 239.935 382.053 239.829 381.9 239.712C381.747 239.594 381.588 239.476 381.423 239.359C381.259 239.241 381.118 239.147 381 239.076C381.647 238.547 382.259 237.929 382.835 237.223C383.423 236.506 383.965 235.729 384.459 234.894C384.953 234.059 385.37 233.206 385.712 232.335ZM392.012 232.335C392.306 232.912 392.653 233.506 393.053 234.118C393.465 234.729 393.9 235.329 394.359 235.918C394.818 236.506 395.276 237.059 395.735 237.576C396.194 238.094 396.629 238.535 397.041 238.9C396.923 238.994 396.794 239.106 396.653 239.235C396.512 239.365 396.376 239.5 396.247 239.641C396.118 239.782 396.006 239.912 395.912 240.029C395.512 239.606 395.076 239.112 394.606 238.547C394.147 237.982 393.682 237.382 393.212 236.747C392.753 236.112 392.306 235.465 391.87 234.806C391.435 234.135 391.053 233.488 390.723 232.865L392.012 232.335ZM402.194 239.641H410.965V240.735H402.194V239.641ZM401.876 242.659H411.335V243.788H401.876V242.659ZM407.753 239.976H408.935V247.723H407.753V239.976ZM404.118 240.029H405.282V243.259C405.282 243.529 405.247 243.865 405.176 244.265C405.106 244.653 404.982 245.071 404.806 245.518C404.641 245.965 404.4 246.4 404.082 246.823C403.765 247.259 403.359 247.647 402.865 247.988C402.77 247.859 402.635 247.712 402.459 247.547C402.282 247.394 402.123 247.271 401.982 247.176C402.57 246.812 403.018 246.388 403.323 245.906C403.629 245.412 403.835 244.929 403.941 244.459C404.059 243.976 404.118 243.571 404.118 243.241V240.029ZM400.006 235.035H404.965V235.971H400.006V235.035ZM408.141 235.035H413.153V235.971H408.141V235.035ZM412.623 232.582H413.929V246.347C413.929 246.735 413.876 247.041 413.77 247.265C413.676 247.5 413.5 247.676 413.241 247.794C412.97 247.9 412.612 247.965 412.165 247.988C411.718 248.023 411.153 248.035 410.47 248.023C410.459 247.906 410.429 247.765 410.382 247.6C410.347 247.447 410.3 247.288 410.241 247.123C410.182 246.959 410.123 246.818 410.065 246.7C410.547 246.712 410.994 246.718 411.406 246.718C411.829 246.718 412.118 246.718 412.27 246.718C412.4 246.706 412.488 246.676 412.535 246.629C412.594 246.571 412.623 246.471 412.623 246.329V232.582ZM400.129 232.582H405.776V238.529H400.129V237.506H404.523V233.588H400.129V232.582ZM413.259 232.582V233.588H408.6V237.523H413.259V238.547H407.347V232.582H413.259ZM399.335 232.582H400.641V248.076H399.335V232.582Z" fill="black"/>
<path d="M162.941 134.118C162.941 136.717 165.048 138.824 167.647 138.824C170.246 138.824 172.353 136.717 172.353 134.118C172.353 131.519 170.246 129.412 167.647 129.412C165.048 129.412 162.941 131.519 162.941 134.118ZM325.33 152.389C325.674 152.044 325.674 151.485 325.33 151.141L319.714 145.526C319.37 145.181 318.811 145.181 318.467 145.526C318.122 145.87 318.122 146.429 318.467 146.773L323.458 151.765L318.467 156.756C318.122 157.101 318.122 157.659 318.467 158.004C318.811 158.348 319.37 158.348 319.714 158.004L325.33 152.389ZM167.647 134.118C167.465 134.981 167.465 134.981 167.466 134.981C167.466 134.981 167.467 134.982 167.469 134.982C167.471 134.982 167.475 134.983 167.48 134.984C167.491 134.986 167.506 134.99 167.527 134.994C167.567 135.003 167.628 135.015 167.709 135.032C167.87 135.066 168.11 135.115 168.426 135.18C169.057 135.31 169.992 135.5 171.208 135.741C173.64 136.225 177.194 136.915 181.689 137.743C190.679 139.399 203.429 141.607 218.479 143.814C248.573 148.229 287.886 152.647 324.706 152.647V150.882C288.009 150.882 248.792 146.477 218.736 142.068C203.711 139.864 190.981 137.66 182.009 136.007C177.523 135.181 173.976 134.492 171.552 134.011C170.34 133.77 169.409 133.58 168.781 133.452C168.466 133.387 168.228 133.338 168.069 133.304C167.989 133.288 167.929 133.275 167.889 133.267C167.869 133.263 167.854 133.26 167.844 133.257C167.839 133.256 167.835 133.256 167.833 133.255C167.832 133.255 167.831 133.255 167.83 133.255C167.83 133.254 167.829 133.254 167.647 134.118Z" fill="black"/>
<path d="M162.941 72.3969C162.941 74.9959 165.048 77.1028 167.647 77.1028C170.246 77.1028 172.353 74.9959 172.353 72.3969C172.353 69.7979 170.246 67.691 167.647 67.691C165.048 67.691 162.941 69.7979 162.941 72.3969ZM327.094 119.742C327.439 119.397 327.439 118.838 327.094 118.494L321.479 112.878C321.135 112.534 320.576 112.534 320.231 112.878C319.887 113.223 319.887 113.782 320.231 114.126L325.223 119.118L320.231 124.109C319.887 124.454 319.887 125.012 320.231 125.357C320.576 125.701 321.134 125.701 321.479 125.357L327.094 119.742ZM167.672 73.2789C197.844 72.4353 217.338 83.9868 239.457 95.8954C261.595 107.814 286.234 119.999 326.47 120L326.471 118.235C286.667 118.235 262.337 106.209 240.294 94.3416C218.233 82.4645 198.336 70.6562 167.622 71.5149L167.672 73.2789Z" fill="black"/>
<path d="M249.632 82.44L249.056 84.232H252.608L252.048 82.44C251.616 81.112 251.248 79.832 250.864 78.472H250.8C250.432 79.848 250.048 81.112 249.632 82.44ZM246.048 89L250.032 77.256H251.68L255.664 89H254.096L252.976 85.416H248.688L247.552 89H246.048ZM257.319 89V77.256H260.679C263.303 77.256 265.063 78.152 265.063 80.712C265.063 83.192 263.319 84.344 260.743 84.344H258.807V89H257.319ZM258.807 83.144H260.551C262.615 83.144 263.591 82.392 263.591 80.712C263.591 79.016 262.551 78.472 260.487 78.472H258.807V83.144ZM267.428 89V77.256H268.916V89H267.428Z" fill="black"/>
<defs>
<clipPath id="clip0_273_145">
<rect width="123.529" height="25.7215" fill="white" transform="translate(42.353 199.412)"/>
</clipPath>
</defs>
</svg>
