<svg width="161" height="141" viewBox="0 0 161 141" fill="none" xmlns="http://www.w3.org/2000/svg">
<rect x="0.666504" y="0.352905" width="160" height="140" rx="60" fill="white"/>
<path d="M83.1665 47.8529L87.5019 59.1251C88.207 60.9581 88.5595 61.8747 89.1077 62.6456C89.5935 63.3289 90.1905 63.9259 90.8738 64.4117C91.6447 64.9599 92.5613 65.3124 94.3943 66.0175L105.667 70.3529L94.3944 74.6883C92.5613 75.3934 91.6447 75.7459 90.8738 76.2941C90.1905 76.7799 89.5935 77.3769 89.1077 78.0602C88.5595 78.8311 88.207 79.7477 87.5019 81.5807L83.1665 92.8529L78.8311 81.5807C78.126 79.7477 77.7735 78.8311 77.2253 78.0602C76.7395 77.3769 76.1425 76.7799 75.4592 76.2941C74.6883 75.7459 73.7717 75.3934 71.9387 74.6884L60.6665 70.3529L71.9387 66.0175C73.7717 65.3124 74.6883 64.9599 75.4592 64.4117C76.1425 63.9259 76.7395 63.3289 77.2253 62.6456C77.7735 61.8747 78.126 60.9581 78.8311 59.1251L83.1665 47.8529Z" fill="white"/>
<path d="M61.9165 95.3529V82.8529M61.9165 57.8529V45.3529M55.6665 51.6029H68.1665M55.6665 89.1029H68.1665M83.1665 47.8529L78.8311 59.1251C78.126 60.9581 77.7735 61.8747 77.2253 62.6456C76.7395 63.3289 76.1425 63.9259 75.4592 64.4117C74.6883 64.9599 73.7717 65.3124 71.9387 66.0175L60.6665 70.3529L71.9387 74.6884C73.7717 75.3934 74.6883 75.7459 75.4592 76.2941C76.1425 76.7799 76.7395 77.3769 77.2253 78.0602C77.7735 78.8311 78.126 79.7477 78.8311 81.5808L83.1665 92.8529L87.502 81.5807C88.207 79.7477 88.5595 78.8311 89.1077 78.0602C89.5935 77.3769 90.1905 76.7799 90.8738 76.2941C91.6447 75.7459 92.5613 75.3934 94.3944 74.6883L105.667 70.3529L94.3943 66.0175C92.5613 65.3124 91.6447 64.9599 90.8738 64.4117C90.1905 63.9259 89.5935 63.3289 89.1077 62.6456C88.5595 61.8747 88.207 60.9581 87.5019 59.1251L83.1665 47.8529Z" stroke="black" stroke-width="4.14158" stroke-linecap="round" stroke-linejoin="round"/>
</svg>
