<svg width="161" height="141" viewBox="0 0 161 141" fill="none" xmlns="http://www.w3.org/2000/svg">
<rect x="0.333496" y="0.352905" width="160" height="140" rx="60" fill="white"/>
<path d="M83.4151 54.507L66.8261 57.8248C65.8994 58.0101 65.436 58.1028 65.0587 58.3281C64.7251 58.5273 64.4414 58.8 64.2292 59.1255C63.9892 59.4936 63.8783 59.953 63.6566 60.8716L55.3335 95.3529M55.3335 95.3529L89.8148 87.0298C90.7334 86.8081 91.1928 86.6972 91.5609 86.4572C91.8864 86.245 92.1591 85.9613 92.3583 85.6277C92.5836 85.2504 92.6763 84.787 92.8616 83.8603L96.1794 67.2713M55.3335 95.3529L74.6996 75.9868M103.503 59.2773L91.4091 47.1837C90.3981 46.1727 89.8926 45.6672 89.3097 45.4779C88.797 45.3113 88.2447 45.3113 87.7319 45.4779C87.1491 45.6672 86.6436 46.1727 85.6326 47.1837L83.7505 49.0658C82.7395 50.0768 82.234 50.5823 82.0446 51.1652C81.878 51.6779 81.878 52.2302 82.0446 52.743C82.234 53.3259 82.7395 53.8314 83.7505 54.8423L95.8441 66.9359C96.855 67.9469 97.3605 68.4524 97.9434 68.6418C98.4562 68.8084 99.0085 68.8084 99.5212 68.6418C100.104 68.4524 100.61 67.9469 101.621 66.9359L103.503 65.0538C104.514 64.0428 105.019 63.5373 105.209 62.9545C105.375 62.4417 105.375 61.8894 105.209 61.3767C105.019 60.7938 104.514 60.2883 103.503 59.2773ZM78.3093 67.2713C81.1292 67.2713 83.4151 69.5572 83.4151 72.3771C83.4151 75.1969 81.1292 77.4828 78.3093 77.4828C75.4895 77.4828 73.2036 75.1969 73.2036 72.3771C73.2036 69.5572 75.4895 67.2713 78.3093 67.2713Z" stroke="black" stroke-width="4.29794" stroke-linecap="round" stroke-linejoin="round"/>
</svg>
