<svg width="160" height="141" viewBox="0 0 160 141" fill="none" xmlns="http://www.w3.org/2000/svg">
<rect y="0.352905" width="160" height="140" rx="60" fill="white"/>
<rect x="30.0325" y="38.8276" width="96.4545" height="43.3536" rx="20.9186" stroke="black" stroke-width="3.54552"/>
<path d="M51.0919 55.8946C51.0919 56.125 51.0089 56.3186 50.843 56.4752C50.6863 56.6319 50.4974 56.7103 50.2762 56.7103H47.6216V65.0058C47.6216 65.2639 47.5294 65.4851 47.3451 65.6695C47.1699 65.8538 46.9533 65.946 46.6953 65.946C46.4372 65.946 46.216 65.8538 46.0316 65.6695C45.8473 65.4851 45.7551 65.2639 45.7551 65.0058V56.7103H43.1558C42.9346 56.7103 42.7457 56.6319 42.589 56.4752C42.4323 56.3186 42.3539 56.125 42.3539 55.8946C42.3539 55.6733 42.4323 55.4844 42.589 55.3277C42.7457 55.171 42.9346 55.0927 43.1558 55.0927H50.2762C50.4974 55.0927 50.6863 55.171 50.843 55.3277C51.0089 55.4844 51.0919 55.6733 51.0919 55.8946ZM57.86 59.0054C57.86 59.2358 57.777 59.434 57.6111 59.5999C57.4452 59.7566 57.247 59.8349 57.0166 59.8349C56.9429 59.8349 56.823 59.8211 56.6571 59.7935C56.4912 59.7566 56.353 59.7382 56.2423 59.7382C55.8091 59.7382 55.4036 59.9225 55.0257 60.2912C54.6939 60.623 54.468 61.0009 54.3482 61.4249V65.0749C54.3482 65.3146 54.2606 65.522 54.0855 65.6971C53.9196 65.863 53.7214 65.946 53.491 65.946C53.2606 65.946 53.0578 65.863 52.8827 65.6971C52.7167 65.522 52.6338 65.3146 52.6338 65.0749V59.033C52.6338 58.7934 52.7167 58.5906 52.8827 58.4247C53.0578 58.2588 53.2606 58.1758 53.491 58.1758C53.7306 58.1758 53.9334 58.2588 54.0993 58.4247C54.2652 58.5906 54.3482 58.7934 54.3482 59.033V59.3234C54.892 58.5307 55.6432 58.1344 56.6018 58.1344C56.8046 58.1344 56.9889 58.1482 57.1549 58.1758C57.3576 58.2127 57.5235 58.3095 57.6526 58.4662C57.7908 58.6229 57.86 58.8026 57.86 59.0054ZM65.952 65.1026C65.952 65.3422 65.8644 65.545 65.6893 65.7109C65.5234 65.8861 65.3252 65.9736 65.0948 65.9736C64.8552 65.9736 64.6478 65.8861 64.4726 65.7109C64.3067 65.545 64.2238 65.3422 64.2238 65.1026C63.5233 65.7202 62.6937 66.0289 61.7351 66.0289C60.9885 66.0289 60.3848 65.8768 59.9239 65.5727C59.3525 65.1948 59.0667 64.6233 59.0667 63.8583C59.0667 61.9687 60.7857 60.9733 64.2238 60.8719V60.8166C64.2238 59.9225 63.68 59.4755 62.5923 59.4755C61.9102 59.4755 61.1498 59.6829 60.311 60.0976C60.2189 60.1437 60.1129 60.1668 59.9931 60.1668C59.7903 60.1668 59.6198 60.0976 59.4815 59.9594C59.3432 59.8211 59.2741 59.6552 59.2741 59.4616C59.2741 59.1575 59.417 58.9409 59.7027 58.8118C60.7258 58.351 61.7351 58.1205 62.7306 58.1205C64.8782 58.1205 65.952 58.9316 65.952 60.5539V65.1026ZM64.2238 63.6094V62.0747C63.173 62.1392 62.4126 62.2499 61.9425 62.4066C61.159 62.6554 60.7673 63.0748 60.7673 63.6647C60.7673 64.3283 61.1452 64.6602 61.901 64.6602C62.6568 64.6602 63.4311 64.3099 64.2238 63.6094ZM75.043 65.0749C75.043 65.3146 74.9554 65.522 74.7803 65.6971C74.6144 65.863 74.4162 65.946 74.1858 65.946C73.9461 65.946 73.7387 65.863 73.5636 65.6971C73.3977 65.522 73.3147 65.3146 73.3147 65.0749V61.2867C73.3147 60.7889 73.2456 60.4248 73.1073 60.1944C72.9322 59.8902 72.6142 59.7382 72.1534 59.7382C71.7201 59.7382 71.2915 59.9179 70.8675 60.2774C70.4528 60.6276 70.1901 60.9871 70.0795 61.3558V65.0749C70.0795 65.3146 69.9919 65.522 69.8168 65.6971C69.6509 65.863 69.4527 65.946 69.2223 65.946C68.9826 65.946 68.7752 65.863 68.6001 65.6971C68.4342 65.522 68.3512 65.3146 68.3512 65.0749V59.0469C68.3512 58.8072 68.4342 58.6044 68.6001 58.4385C68.7752 58.2634 68.9826 58.1758 69.2223 58.1758C69.4527 58.1758 69.6509 58.2634 69.8168 58.4385C69.9919 58.6044 70.0795 58.8072 70.0795 59.0469V59.2819C70.3376 58.9593 70.6832 58.692 71.1164 58.48C71.5865 58.2403 72.0658 58.1205 72.5543 58.1205C74.2134 58.1205 75.043 59.0146 75.043 60.8027V65.0749ZM83.8529 63.4711C83.8529 64.3744 83.475 65.0473 82.7191 65.4897C82.12 65.84 81.3365 66.0151 80.3687 66.0151C79.023 66.0151 78.0322 65.6372 77.3962 64.8814C77.2671 64.7247 77.2026 64.5542 77.2026 64.3698C77.2026 64.121 77.2856 63.909 77.4515 63.7338C77.6266 63.5587 77.8386 63.4711 78.0875 63.4711C78.3916 63.4711 78.6221 63.5864 78.7788 63.8168C79.1567 64.3698 79.7005 64.6463 80.4102 64.6463C81.5255 64.6463 82.0924 64.3376 82.1108 63.72C82.1292 63.3052 81.7098 63.0149 80.8526 62.849C79.3963 62.5817 78.5944 62.4204 78.4469 62.3651C77.5805 62.0425 77.1473 61.471 77.1473 60.6507C77.1473 59.7842 77.5298 59.1252 78.2949 58.6736C78.9216 58.3049 79.6959 58.1205 80.6176 58.1205C81.7605 58.1205 82.6592 58.4293 83.3137 59.0469C83.4703 59.1943 83.5487 59.3787 83.5487 59.5999C83.5487 59.8303 83.4657 60.0285 83.2998 60.1944C83.1431 60.3511 82.9496 60.4294 82.7191 60.4294C82.4887 60.4294 82.2951 60.3373 82.1385 60.1529C81.7698 59.7105 81.2259 59.4893 80.507 59.4893C79.9816 59.4893 79.5761 59.5769 79.2903 59.752C79.0415 59.9087 78.9124 60.1022 78.9032 60.3327C78.8848 60.7474 79.3041 61.0286 80.1613 61.176C81.5439 61.4065 82.3412 61.5632 82.5532 61.6461C83.4196 61.9872 83.8529 62.5955 83.8529 63.4711ZM89.499 65.1303C89.499 65.333 89.4253 65.5082 89.2778 65.6556C89.1395 65.7939 88.969 65.863 88.7662 65.863H87.7016C87.0196 65.863 86.5449 65.734 86.2776 65.4759C86.0103 65.2086 85.8766 64.7431 85.8766 64.0795V55.6319C85.8766 55.3922 85.9596 55.1894 86.1255 55.0235C86.3006 54.8484 86.508 54.7608 86.7477 54.7608C86.9781 54.7608 87.1763 54.8484 87.3422 55.0235C87.5173 55.1894 87.6049 55.3922 87.6049 55.6319V63.7062C87.6049 64.0749 87.6924 64.2915 87.8676 64.356C87.9505 64.3929 88.0888 64.4113 88.2823 64.4113H88.7662C88.969 64.4113 89.1395 64.485 89.2778 64.6325C89.4253 64.7708 89.499 64.9367 89.499 65.1303ZM97.4518 65.1026C97.4518 65.3422 97.3642 65.545 97.1891 65.7109C97.0232 65.8861 96.825 65.9736 96.5946 65.9736C96.355 65.9736 96.1476 65.8861 95.9724 65.7109C95.8065 65.545 95.7236 65.3422 95.7236 65.1026C95.0231 65.7202 94.1935 66.0289 93.2349 66.0289C92.4883 66.0289 91.8846 65.8768 91.4237 65.5727C90.8523 65.1948 90.5665 64.6233 90.5665 63.8583C90.5665 61.9687 92.2855 60.9733 95.7236 60.8719V60.8166C95.7236 59.9225 95.1798 59.4755 94.0921 59.4755C93.41 59.4755 92.6496 59.6829 91.8108 60.0976C91.7187 60.1437 91.6127 60.1668 91.4929 60.1668C91.2901 60.1668 91.1196 60.0976 90.9813 59.9594C90.843 59.8211 90.7739 59.6552 90.7739 59.4616C90.7739 59.1575 90.9168 58.9409 91.2025 58.8118C92.2256 58.351 93.2349 58.1205 94.2304 58.1205C96.378 58.1205 97.4518 58.9316 97.4518 60.5539V65.1026ZM95.7236 63.6094V62.0747C94.6728 62.1392 93.9124 62.2499 93.4423 62.4066C92.6588 62.6554 92.2671 63.0748 92.2671 63.6647C92.2671 64.3283 92.645 64.6602 93.4008 64.6602C94.1566 64.6602 94.9309 64.3099 95.7236 63.6094ZM104.745 59.0192C104.745 59.222 104.672 59.4017 104.524 59.5584C104.377 59.7059 104.197 59.7796 103.985 59.7796H102.381V63.402C102.381 63.697 102.4 63.8951 102.436 63.9965C102.501 64.1809 102.653 64.2915 102.893 64.3283C102.985 64.3376 103.114 64.3422 103.28 64.3422H103.943C104.155 64.3422 104.335 64.4159 104.483 64.5634C104.63 64.7109 104.704 64.8906 104.704 65.1026C104.704 65.3054 104.63 65.4851 104.483 65.6418C104.335 65.7893 104.155 65.863 103.943 65.863H102.727C101.943 65.863 101.4 65.7248 101.095 65.4482C100.8 65.1625 100.653 64.6279 100.653 63.8444V59.7796H99.6022C99.3994 59.7796 99.2197 59.7059 99.063 59.5584C98.9155 59.4017 98.8417 59.222 98.8417 59.0192C98.8417 58.8072 98.9155 58.6275 99.063 58.48C99.2197 58.3325 99.3994 58.2588 99.6022 58.2588H100.653V56.89C100.653 56.6504 100.736 56.4476 100.902 56.2817C101.077 56.1066 101.284 56.019 101.524 56.019C101.754 56.019 101.953 56.1066 102.118 56.2817C102.294 56.4476 102.381 56.6504 102.381 56.89V58.2588H103.985C104.197 58.2588 104.377 58.3325 104.524 58.48C104.672 58.6275 104.745 58.8072 104.745 59.0192ZM113.256 61.259C113.256 62.1346 112.859 62.5725 112.067 62.5725H107.781C107.864 63.2085 108.085 63.697 108.444 64.038C108.804 64.379 109.255 64.5496 109.799 64.5496C110.481 64.5496 111.034 64.3099 111.458 63.8306C111.634 63.6371 111.841 63.5403 112.081 63.5403C112.311 63.5403 112.509 63.6232 112.675 63.7891C112.841 63.9458 112.924 64.1394 112.924 64.3698C112.924 64.591 112.846 64.7846 112.689 64.9505C112.025 65.6602 111.067 66.0151 109.813 66.0151C108.689 66.0151 107.795 65.6787 107.131 65.0058C106.44 64.2961 106.094 63.3145 106.094 62.0609C106.094 60.7889 106.444 59.8073 107.145 59.116C107.808 58.4523 108.693 58.1205 109.799 58.1205C110.896 58.1205 111.763 58.4385 112.399 59.0745C112.97 59.6552 113.256 60.3834 113.256 61.259ZM111.61 60.9825C111.435 60.0055 110.813 59.5169 109.744 59.5169C108.721 59.5169 108.085 60.0838 107.836 61.2175H111.403C111.569 61.2175 111.638 61.1392 111.61 60.9825Z" fill="black"/>
<path d="M99.5547 71.4655L109.356 101.929L116.244 95.0418L124.853 103.651L131.74 96.7636L123.131 88.1543L130.018 81.2668L99.5547 71.4655Z" fill="#7E7E7E" stroke="black" stroke-width="4.87442" stroke-linecap="round" stroke-linejoin="round"/>
</svg>
