<?xml version="1.0" encoding="UTF-8" standalone="no"?>
<!DOCTYPE svg PUBLIC "-//W3C//DTD SVG 1.1//EN" "http://www.w3.org/Graphics/SVG/1.1/DTD/svg11.dtd">
<svg width="100%" height="100%" viewBox="0 0 2102 438" version="1.1" xmlns="http://www.w3.org/2000/svg" xmlns:xlink="http://www.w3.org/1999/xlink" xml:space="preserve" xmlns:serif="http://www.serif.com/" style="fill-rule:evenodd;clip-rule:evenodd;stroke-linejoin:round;stroke-miterlimit:2;">
    <g id="レイヤー-1" serif:id="レイヤー 1" transform="matrix(4.16667,0,0,4.16667,-1033.33,-1866.67)">
        <g transform="matrix(1,0,0,1,750.508,524.442)">
            <path d="M0,-29.52L-4.8,-23.84C-7.12,-26 -9.44,-26.16 -10.48,-26.16C-12.8,-26.16 -14.24,-25.04 -14.24,-23.36C-14.24,-22.48 -13.84,-21.12 -11.12,-20.24L-8.8,-19.52C-6.08,-18.64 -2,-17.28 0,-14.56C1.04,-13.12 1.76,-11.04 1.76,-8.8C1.76,-5.68 0.72,-2.56 -2.08,-0C-4.88,2.56 -8.24,3.68 -12.48,3.68C-19.68,3.68 -23.76,0.24 -25.92,-2.08L-20.8,-8C-18.88,-5.76 -16,-4 -13.12,-4C-10.4,-4 -8.32,-5.36 -8.32,-7.76C-8.32,-9.92 -10.08,-10.8 -11.36,-11.28L-13.6,-12.08C-16.08,-12.96 -18.96,-14.08 -21.04,-16.24C-22.64,-17.92 -23.68,-20.08 -23.68,-22.88C-23.68,-26.24 -22.08,-29.04 -20.08,-30.72C-17.36,-32.88 -13.84,-33.2 -11.04,-33.2C-8.48,-33.2 -4.4,-32.88 0,-29.52" style="fill:white;fill-rule:nonzero;"/>
        </g>
        <g transform="matrix(1,0,0,1,680.093,491.242)">
            <path d="M0,35.76L0,1.12L9.76,1.12L9.76,5.6C11.6,3.04 14.88,0 20.48,0C23.52,0 28,0.88 30.72,4.24C33.12,7.2 33.44,10.64 33.44,14L33.44,35.76L23.68,35.76L23.68,16.88C23.68,14.96 23.6,11.92 21.84,10.08C20.32,8.48 18.24,8.32 17.28,8.32C14.72,8.32 12.72,9.2 11.28,11.36C9.84,13.6 9.76,16.08 9.76,18.08L9.76,35.76L0,35.76Z" style="fill:white;fill-rule:nonzero;"/>
        </g>
        <g transform="matrix(1,0,0,1,648.704,499.882)">
            <path d="M0,19.6C5.68,19.6 9.761,15.12 9.761,9.84C9.761,4.4 5.6,-0 0,-0C-5.6,-0 -9.76,4.4 -9.76,9.84C-9.76,15.12 -5.68,19.6 0,19.6M0,-8.64C6.56,-8.64 11.04,-6.48 14,-3.76C17.44,-0.64 19.84,4.16 19.84,9.84C19.84,15.44 17.44,20.24 14,23.36C11.04,26.08 6.56,28.24 0,28.24C-6.56,28.24 -11.04,26.08 -14,23.36C-17.44,20.24 -19.839,15.44 -19.839,9.84C-19.839,4.16 -17.44,-0.64 -14,-3.76C-11.04,-6.48 -6.56,-8.64 0,-8.64" style="fill:white;fill-rule:nonzero;"/>
        </g>
        <g transform="matrix(1,0,0,1,606.602,521.163)">
            <path d="M0,-43.44C0,-46.64 2.64,-49.28 5.84,-49.28C9.04,-49.28 11.68,-46.64 11.68,-43.44C11.68,-40.24 9.04,-37.6 5.84,-37.6C2.64,-37.6 0,-40.24 0,-43.44M0.96,-28.8L10.72,-28.8L10.72,5.84L0.96,5.84L0.96,-28.8Z" style="fill:white;fill-rule:nonzero;"/>
        </g>
        <g transform="matrix(1,0,0,1,598.479,506.843)">
            <path d="M0,-6.16L-6.72,-6.16L-6.72,20.16L-16.48,20.16L-16.48,-6.16L-20.32,-6.16L-20.32,-14.48L-16.48,-14.48L-16.48,-26.32L-6.72,-26.32L-6.72,-14.48L0,-14.48L0,-6.16Z" style="fill:white;fill-rule:nonzero;"/>
        </g>
        <g transform="matrix(1,0,0,1,569.861,526.042)">
            <path d="M0,-32.72L0,-23.12C-2.08,-25.04 -4.64,-26.16 -8,-26.16C-14.48,-26.16 -17.76,-21.44 -17.76,-16.4C-17.76,-10.72 -13.52,-6.56 -7.68,-6.56C-5.52,-6.56 -2.64,-7.2 0,-9.6L0,-0.08C-1.92,0.88 -4.96,2.08 -8.96,2.08C-14.4,2.08 -19.2,0 -22.32,-2.96C-24.96,-5.44 -27.84,-9.76 -27.84,-16.24C-27.84,-22.32 -25.36,-27.2 -21.84,-30.32C-17.6,-34.08 -12.72,-34.8 -9.36,-34.8C-5.76,-34.8 -2.8,-34.08 0,-32.72" style="fill:white;fill-rule:nonzero;"/>
        </g>
        <g transform="matrix(1,0,0,1,506.624,514.282)">
            <path d="M0,-9.2L16.4,-9.2C15.6,-13.92 11.76,-16.16 8.16,-16.16C4.56,-16.16 0.8,-13.84 0,-9.2M16.4,1.6L25.36,3.04C24.32,5.6 20.4,13.84 8.32,13.84C2.72,13.84 -1.52,12.24 -4.96,8.96C-8.8,5.36 -10.4,0.88 -10.4,-4.56C-10.4,-11.44 -7.6,-15.68 -5.12,-18.16C-1.04,-22.16 3.76,-23.04 7.92,-23.04C14.96,-23.04 19.04,-20.24 21.44,-17.36C25.12,-12.96 25.6,-7.52 25.6,-3.76L25.6,-2.96L-0.32,-2.96C-0.32,-0.88 0.24,1.36 1.36,2.88C2.4,4.32 4.56,6.16 8.32,6.16C12,6.16 14.8,4.4 16.4,1.6" style="fill:white;fill-rule:nonzero;"/>
        </g>
        <g transform="matrix(1,0,0,1,0,-4.32)">
            <rect x="474.921" y="473" width="9.76" height="58.32" style="fill:white;"/>
        </g>
        <g transform="matrix(1,0,0,1,0,-4.32)">
            <rect x="451.859" y="473" width="9.76" height="58.32" style="fill:white;"/>
        </g>
        <g transform="matrix(1,0,0,1,420.47,499.882)">
            <path d="M0,19.6C5.68,19.6 9.76,15.12 9.76,9.84C9.76,4.4 5.6,-0 0,-0C-5.6,-0 -9.76,4.4 -9.76,9.84C-9.76,15.12 -5.68,19.6 0,19.6M0,-8.64C6.56,-8.64 11.04,-6.48 14,-3.76C17.44,-0.64 19.84,4.16 19.84,9.84C19.84,15.44 17.44,20.24 14,23.36C11.04,26.08 6.56,28.24 0,28.24C-6.56,28.24 -11.04,26.08 -14,23.36C-17.44,20.24 -19.84,15.44 -19.84,9.84C-19.84,4.16 -17.44,-0.64 -14,-3.76C-11.04,-6.48 -6.56,-8.64 0,-8.64" style="fill:white;fill-rule:nonzero;"/>
        </g>
        <g transform="matrix(1,0,0,1,390.269,487.718)">
            <path d="M0,25.2L0,37.36C-3.2,39.04 -7.44,40.48 -13.2,40.48C-22.56,40.48 -28.24,37.28 -32.72,33.04C-38.88,27.12 -41.28,20.48 -41.28,12.64C-41.28,2.96 -37.28,-4 -32.72,-8.24C-27.36,-13.28 -20.72,-15.28 -13.12,-15.28C-9.36,-15.28 -4.88,-14.64 0,-12L0,0.16C-4.88,-5.44 -10.96,-5.84 -12.88,-5.84C-23.6,-5.84 -30.56,2.96 -30.56,12.8C-30.56,24.64 -21.44,31.04 -12.48,31.04C-7.52,31.04 -3.12,28.88 0,25.2" style="fill:white;fill-rule:nonzero;"/>
        </g>
        <g transform="matrix(1,0,0,1,279.5,452.5)">
            <path d="M0,25.5L-4.5,20L9,-4.5L35.5,27.5L34,30L0,25.5Z" style="fill:white;fill-rule:nonzero;"/>
        </g>
        <g transform="matrix(-0.99282,-0.119617,-0.119617,0.99282,256.499,502.669)">
            <path d="M-53.108,-23.188L-11.308,-23.188L-1.332,2.691L-42.696,3.248L-53.108,-23.188Z" style="fill:white;fill-rule:nonzero;"/>
        </g>
        <g transform="matrix(1,0,0,1,254.5,553)">
            <path d="M0,-43.5L-6.5,-32L20,0L34,-25L20.5,-41L0,-43.5Z" style="fill:white;fill-rule:nonzero;"/>
        </g>
    </g>
</svg>
