<svg width="160" height="141" viewBox="0 0 160 141" fill="none" xmlns="http://www.w3.org/2000/svg">
<rect y="0.353027" width="160" height="140" rx="60" fill="white"/>
<path d="M79.9998 44.2165C73.9495 44.1294 68.0698 46.2222 63.4352 50.1126C58.8006 54.0029 55.7206 59.431 54.758 65.4049C53.7954 71.3788 55.0144 77.4997 58.1924 82.6489C61.3704 87.7982 66.2951 91.632 72.0665 93.4498C73.2332 93.6832 74.1665 92.3998 74.1665 91.3498V87.9665C67.1665 89.4832 64.9498 84.5832 64.9498 84.5832C64.4947 83.1062 63.5992 81.8036 62.3832 80.8498C60.0498 79.2165 62.4998 79.3331 62.4998 79.3331C63.279 79.3953 64.0328 79.6386 64.7013 80.0437C65.3697 80.4488 65.9342 81.0045 66.3498 81.6665C68.3332 85.0498 72.7665 84.6998 74.1665 84.1165C74.044 82.9564 74.2459 81.7852 74.7498 80.7332C66.8165 79.3331 62.4998 74.6665 62.4998 68.3665C62.4164 65.0808 63.6321 61.8947 65.8832 59.4998C65.2561 58.3413 64.9573 57.0336 65.0189 55.7178C65.0806 54.4019 65.5005 53.1279 66.2332 52.0331C67.6422 52.0609 69.0309 52.3751 70.3145 52.9568C71.5982 53.5384 72.75 54.3753 73.6998 55.4165C75.7257 54.7252 77.8606 54.4089 79.9998 54.4831C82.13 54.4171 84.2569 54.6928 86.2998 55.2998C87.2639 54.2852 88.4211 53.4735 89.7033 52.9125C90.9856 52.3515 92.367 52.0525 93.7665 52.0331C94.4832 53.1312 94.9029 54.3963 94.9847 55.7049C95.0665 57.0136 94.8076 58.3211 94.2332 59.4998C96.4418 61.9132 97.6148 65.0971 97.4998 68.3665C97.4998 74.6665 93.1832 79.3331 85.2498 80.7332C85.7538 81.7852 85.9557 82.9564 85.8332 84.1165V91.3498C85.8327 91.6357 85.8907 91.9186 86.0034 92.1813C86.1162 92.444 86.2814 92.681 86.4889 92.8776C86.6964 93.0742 86.9419 93.2263 87.2103 93.3247C87.4787 93.4231 87.7644 93.4657 88.0498 93.4498C93.6838 91.495 98.4469 87.6141 101.5 82.4911C104.552 77.3682 105.698 71.3321 104.736 65.4467C103.774 59.5614 100.765 54.2047 96.2395 50.3207C91.7142 46.4368 85.963 44.2751 79.9998 44.2165Z" fill="black"/>
</svg>
