<?xml version="1.0" encoding="UTF-8" standalone="no"?>
<!DOCTYPE svg PUBLIC "-//W3C//DTD SVG 1.1//EN" "http://www.w3.org/Graphics/SVG/1.1/DTD/svg11.dtd">
<svg width="100%" height="100%" viewBox="0 0 2344 434" version="1.1" xmlns="http://www.w3.org/2000/svg" xmlns:xlink="http://www.w3.org/1999/xlink" xml:space="preserve" xmlns:serif="http://www.serif.com/" style="fill-rule:evenodd;clip-rule:evenodd;stroke-linejoin:round;stroke-miterlimit:2;">
    <g id="レイヤー-1" serif:id="レイヤー 1" transform="matrix(4.16667,0,0,4.16667,-911.492,-1866.67)">
        <g transform="matrix(1,0,0,1,761.399,518.484)">
            <path d="M0,-22.265C-2.084,-22.265 -3.881,-21.718 -5.391,-20.625C-6.849,-19.583 -7.995,-18.203 -8.829,-16.484C-9.662,-14.765 -10.079,-12.916 -10.079,-10.937C-10.079,-7.968 -9.193,-5.442 -7.422,-3.359C-5.599,-1.276 -3.203,-0.234 -0.235,-0.234C1.536,-0.234 3.177,-0.703 4.687,-1.64C6.25,-2.578 7.5,-3.88 8.437,-5.546C9.427,-7.265 9.921,-9.323 9.921,-11.718L9.921,-17.343C8.515,-18.854 6.979,-20.052 5.312,-20.937C3.698,-21.823 1.927,-22.265 0,-22.265M-2.032,-31.953C0.104,-31.953 2.265,-31.458 4.453,-30.468C6.64,-29.479 8.463,-28.151 9.921,-26.484L9.921,-30.937L19.843,-30.937L19.843,8.516L9.921,8.516L9.921,1.875C8.776,4.011 7.109,5.86 4.921,7.422C2.734,8.933 0.182,9.688 -2.735,9.688C-5.912,9.688 -8.855,8.881 -11.563,7.266C-14.219,5.651 -16.355,3.308 -17.969,0.235C-19.584,-2.838 -20.391,-6.562 -20.391,-10.937C-20.391,-15.312 -19.584,-19.062 -17.969,-22.187C-16.302,-25.312 -14.089,-27.708 -11.329,-29.375C-8.516,-31.093 -5.417,-31.953 -2.032,-31.953" style="fill:white;fill-rule:nonzero;"/>
        </g>
        <g transform="matrix(1,0,0,1,706.649,528.172)">
            <path d="M0,-52.11L0,-40.625L10.937,-40.625L10.937,-32.344L0,-32.344L0,-15.313C0,-13.542 0.39,-12.136 1.171,-11.094C2.005,-10.104 3.229,-9.61 4.843,-9.61C6.25,-9.61 7.448,-9.766 8.437,-10.078C9.479,-10.391 10.442,-10.833 11.328,-11.406L11.328,-3.516C10.338,-2.526 9.088,-1.693 7.578,-1.016C6.119,-0.339 4.27,0 2.031,0C-1.511,0 -4.401,-1.12 -6.641,-3.36C-8.829,-5.651 -9.922,-8.776 -9.922,-12.734L-9.922,-32.344L-17.032,-32.344L-17.032,-37.422C-14.532,-38.307 -12.24,-39.974 -10.157,-42.422C-8.021,-44.87 -6.329,-48.099 -5.079,-52.11L0,-52.11Z" style="fill:white;fill-rule:nonzero;"/>
        </g>
        <g transform="matrix(1,0,0,1,648.461,519.5)">
            <path d="M0,-24.297C-2.448,-24.297 -4.505,-23.542 -6.172,-22.031C-7.838,-20.521 -8.984,-18.49 -9.609,-15.938L9.297,-15.938C9.089,-18.75 8.047,-20.833 6.172,-22.188C4.297,-23.594 2.24,-24.297 0,-24.297M0.235,-32.969C4.089,-32.969 7.396,-32.135 10.156,-30.469C12.969,-28.802 15.104,-26.484 16.563,-23.516C18.073,-20.599 18.828,-17.214 18.828,-13.359L18.828,-9.141L-9.765,-9.141C-9.245,-6.484 -7.943,-4.349 -5.859,-2.734C-3.776,-1.12 -1.224,-0.312 1.797,-0.312C4.662,-0.312 7.266,-0.885 9.609,-2.031C11.953,-3.177 13.828,-4.349 15.235,-5.547L15.156,3.672C13.906,4.766 12.031,5.885 9.531,7.031C7.083,8.125 4.375,8.672 1.406,8.672C-2.5,8.672 -6.068,7.786 -9.297,6.016C-12.474,4.245 -15.026,1.823 -16.953,-1.25C-18.828,-4.323 -19.765,-7.839 -19.765,-11.797C-19.765,-15.651 -18.906,-19.167 -17.187,-22.344C-15.469,-25.521 -13.099,-28.073 -10.078,-30C-7.057,-31.979 -3.62,-32.969 0.235,-32.969" style="fill:white;fill-rule:nonzero;"/>
        </g>
        <g transform="matrix(1,0,0,1,582.305,527)">
            <path d="M0,-56.25L0,-21.875L16.094,-39.453L28.515,-39.453L11.484,-22.344L29.375,0L16.875,0L4.922,-15.703L0,-10.781L0,0L-9.922,0L-9.922,-56.25L0,-56.25Z" style="fill:white;fill-rule:nonzero;"/>
        </g>
        <g transform="matrix(1,0,0,1,535.914,528.172)">
            <path d="M0,-41.641C2.917,-41.641 5.313,-41.172 7.188,-40.234C9.063,-39.297 10.547,-38.386 11.641,-37.5L11.641,-28.36C10.287,-29.349 8.75,-30.182 7.032,-30.86C5.365,-31.537 3.308,-31.875 0.86,-31.875C-1.12,-31.875 -2.968,-31.38 -4.687,-30.391C-6.354,-29.401 -7.682,-28.073 -8.672,-26.406C-9.661,-24.74 -10.156,-22.839 -10.156,-20.703C-10.156,-17.474 -9.114,-14.818 -7.031,-12.734C-4.948,-10.651 -2.317,-9.61 0.86,-9.61C3.308,-9.61 5.365,-9.922 7.032,-10.547C8.75,-11.224 10.287,-12.057 11.641,-13.047L11.641,-3.984C10.547,-3.047 9.063,-2.136 7.188,-1.25C5.313,-0.417 2.917,0 0,0C-4.01,0 -7.578,-0.938 -10.703,-2.813C-13.776,-4.74 -16.224,-7.266 -18.047,-10.391C-19.817,-13.568 -20.703,-17.005 -20.703,-20.703C-20.703,-23.464 -20.208,-26.094 -19.218,-28.594C-18.177,-31.094 -16.718,-33.307 -14.844,-35.234C-12.968,-37.214 -10.781,-38.776 -8.281,-39.922C-5.729,-41.068 -2.968,-41.641 0,-41.641" style="fill:white;fill-rule:nonzero;"/>
        </g>
        <g transform="matrix(1,0,0,1,471.399,518.562)">
            <path d="M0,-22.421C-1.875,-22.421 -3.62,-21.979 -5.235,-21.093C-6.849,-20.208 -8.151,-18.932 -9.141,-17.265C-10.079,-15.598 -10.547,-13.567 -10.547,-11.171C-10.547,-8.776 -10.079,-6.744 -9.141,-5.078C-8.151,-3.411 -6.849,-2.135 -5.235,-1.25C-3.62,-0.416 -1.875,0 0,0C1.875,0 3.619,-0.416 5.234,-1.25C6.849,-2.135 8.151,-3.411 9.14,-5.078C10.13,-6.744 10.625,-8.776 10.625,-11.171C10.625,-13.567 10.13,-15.598 9.14,-17.265C8.151,-18.932 6.849,-20.208 5.234,-21.093C3.619,-21.979 1.875,-22.421 0,-22.421M0,-32.031C3.854,-32.031 7.369,-31.093 10.547,-29.218C13.724,-27.395 16.276,-24.895 18.203,-21.718C20.182,-18.593 21.171,-15.078 21.171,-11.171C21.171,-7.265 20.182,-3.75 18.203,-0.624C16.276,2.5 13.724,5 10.547,6.876C7.369,8.698 3.854,9.61 0,9.61C-3.802,9.61 -7.318,8.698 -10.547,6.876C-13.724,5 -16.276,2.5 -18.203,-0.624C-20.131,-3.75 -21.094,-7.265 -21.094,-11.171C-21.094,-15.078 -20.131,-18.593 -18.203,-21.718C-16.276,-24.895 -13.724,-27.395 -10.547,-29.218C-7.318,-31.093 -3.802,-32.031 0,-32.031" style="fill:white;fill-rule:nonzero;"/>
        </g>
        <g transform="matrix(1,0,0,1,397.43,516.844)">
            <path d="M0,-32.032L0,-18.828C1.25,-18.412 2.63,-18.073 4.14,-17.813C5.703,-17.604 7.266,-17.5 8.828,-17.5C11.953,-17.5 14.427,-18.125 16.25,-19.375C18.125,-20.677 19.062,-22.5 19.062,-24.844C19.062,-27.396 18.073,-29.219 16.094,-30.313C14.167,-31.459 11.797,-32.032 8.984,-32.032L0,-32.032ZM10.39,-42.188C12.838,-42.188 15.234,-41.849 17.578,-41.172C19.922,-40.495 22.031,-39.453 23.906,-38.047C25.833,-36.641 27.344,-34.87 28.437,-32.735C29.583,-30.651 30.156,-28.151 30.156,-25.235C30.156,-22.162 29.375,-19.505 27.812,-17.266C26.302,-15.078 24.297,-13.36 21.797,-12.11C19.297,-10.912 16.588,-10.209 13.672,-10L32.5,10.156L18.203,10.156L0,-11.25L0,10.156L-10.86,10.156L-10.86,-42.188L10.39,-42.188Z" style="fill:white;fill-rule:nonzero;"/>
        </g>
        <g transform="matrix(1,0,0,1,298.758,448.002)">
            <path d="M0,70.06L0,20.022L8,20.022L8,51.94L17,43.734L17,0L25,0L25,47.266L0,70.06Z" style="fill:white;"/>
        </g>
        <g transform="matrix(1,0,0,1,0,-77)">
            <rect x="261.758" y="525" width="62" height="27" style="fill:white;"/>
        </g>
        <g transform="matrix(1,0,0,1,0,1)">
            <rect x="218.758" y="448" width="27" height="103" style="fill:white;"/>
        </g>
        <g transform="matrix(1,0,0,1,0,44)">
            <rect x="259.758" y="448" width="27" height="60" style="fill:white;"/>
        </g>
        <g transform="matrix(0,-1,-1,0,336.258,495.5)">
            <path d="M-16.5,35.5L35.5,35.5L35.5,16.5L7.5,16.5L-16.5,35.5Z" style="fill:white;fill-rule:nonzero;"/>
        </g>
    </g>
</svg>
