<?xml version="1.0" standalone="no"?>
<!DOCTYPE svg PUBLIC "-//W3C//DTD SVG 20010904//EN"
 "http://www.w3.org/TR/2001/REC-SVG-20010904/DTD/svg10.dtd">
<svg version="1.0" xmlns="http://www.w3.org/2000/svg"
 width="260.000000pt" height="260.000000pt" viewBox="0 0 260.000000 260.000000"
 preserveAspectRatio="xMidYMid meet">
<g transform="translate(0.000000,260.000000) scale(0.130000,-0.130000)"
fill="#000000" stroke="none">
<path d="M515 1180 c154 -154 281 -280 282 -280 2 0 3 126 3 280 l0 280 -282
0 -283 0 280 -280z"/>
<path d="M860 881 c0 -319 3 -581 8 -581 4 0 138 130 297 290 l290 290 -60 61
c-33 33 -167 164 -297 291 l-238 230 0 -581z"/>
<path d="M1322 1337 l-122 -122 125 -125 125 -125 0 248 c0 136 -1 247 -3 247
-1 0 -57 -55 -125 -123z"/>
<path d="M1510 1335 l0 -125 127 0 128 0 -125 125 c-69 69 -126 125 -127 125
-2 0 -3 -56 -3 -125z"/>
</g>
</svg>
